<svg width="1068" height="1047" viewBox="0 0 1068 1047" fill="none" xmlns="http://www.w3.org/2000/svg">
<path d="M1067.35 831.104L695.38 1045.92V816.774L1067.35 601.874V831.104Z" fill="#9C705D" stroke="black" stroke-width="0.25" stroke-miterlimit="10"/>
<path fill-rule="evenodd" clip-rule="evenodd" d="M695.38 816.775L496.57 702.045V501.584L0.25 215.044V644.844L695.38 1045.92V816.775Z" fill="#865C4D" stroke="black" stroke-width="0.25" stroke-miterlimit="10"/>
<path fill-rule="evenodd" clip-rule="evenodd" d="M1067.35 601.874L868.82 487.394L496.57 702.044L695.38 816.774L1067.35 601.874Z" fill="#D9D9D7" stroke="black" stroke-width="0.25" stroke-miterlimit="10"/>
<path fill-rule="evenodd" clip-rule="evenodd" d="M1057.14 602.364L868.82 494.434L507.81 702.394L695.99 810.994L1057.14 602.364Z" fill="#C9C9C7" stroke="black" stroke-width="0.25" stroke-miterlimit="10"/>
<path fill-rule="evenodd" clip-rule="evenodd" d="M868.82 286.824L496.57 501.584V702.044L868.82 487.394V286.824Z" fill="#9E715D" stroke="black" stroke-width="0.25" stroke-miterlimit="10"/>
<path fill-rule="evenodd" clip-rule="evenodd" d="M0.25 215.044L372.49 0.144287L868.82 286.824L496.57 501.584L0.25 215.044Z" fill="#D9D9D7" stroke="black" stroke-width="0.25" stroke-miterlimit="10"/>
<path fill-rule="evenodd" clip-rule="evenodd" d="M21.97 216.834L375.59 12.6843L847.1 285.024L493.47 489.044L21.97 216.834Z" fill="#C9C9C7" stroke="black" stroke-width="0.25" stroke-miterlimit="10"/>
<path fill-rule="evenodd" clip-rule="evenodd" d="M638.77 962.865V848.245L539.5 790.935V905.555L638.77 962.865Z" fill="#8FB2C4" stroke="black" stroke-width="0.25" stroke-miterlimit="10"/>
<path fill-rule="evenodd" clip-rule="evenodd" d="M645.58 844.274L546.31 786.964L539.5 790.934L638.77 848.244V962.864L645.58 958.894V844.274Z" fill="#7698AA" stroke="black" stroke-width="0.25" stroke-miterlimit="10"/>
<path fill-rule="evenodd" clip-rule="evenodd" d="M722.48 857.744L764.49 833.494V978.534L722.48 1001.01V857.744Z" fill="#8FB2C4" stroke="black" stroke-width="0.25" stroke-miterlimit="10"/>
<path fill-rule="evenodd" clip-rule="evenodd" d="M722.48 943.704L758.19 923.084V837.124L764.49 833.494V927.994L722.48 952.374V943.704Z" fill="#7698AA" stroke="black" stroke-width="0.25" stroke-miterlimit="10"/>
<path fill-rule="evenodd" clip-rule="evenodd" d="M498.06 543.454L529.46 525.324V595.974L498.06 614.204V543.454Z" fill="#8FB2C4" stroke="black" stroke-width="0.25" stroke-miterlimit="10"/>
<path fill-rule="evenodd" clip-rule="evenodd" d="M498.06 607.724L524.76 592.314V528.044L529.46 525.324V595.974L498.06 614.204V607.724Z" fill="#7698AA" stroke="black" stroke-width="0.25" stroke-miterlimit="10"/>
<path fill-rule="evenodd" clip-rule="evenodd" d="M564.01 505.114L595.42 486.984V557.634L564.01 575.864V505.114Z" fill="#8FB2C4" stroke="black" stroke-width="0.25" stroke-miterlimit="10"/>
<path fill-rule="evenodd" clip-rule="evenodd" d="M564.01 569.374L590.71 553.964V489.694L595.42 486.984V557.634L564.01 575.864V569.374Z" fill="#7698AA" stroke="black" stroke-width="0.25" stroke-miterlimit="10"/>
<path fill-rule="evenodd" clip-rule="evenodd" d="M764.49 927.994L722.48 952.374V1001.01L724.69 1002.28V953.644L766.69 929.264L764.49 927.994Z" fill="#D8D27A" stroke="black" stroke-width="0.25" stroke-miterlimit="10"/>
<path fill-rule="evenodd" clip-rule="evenodd" d="M724.69 953.645V1002.27L766.69 978.435V929.265L724.69 953.645ZM739.25 991.334L726.88 998.455V955.125L739.25 948.035V991.324V991.334ZM747.53 986.455L743.85 988.584V945.895L747.53 943.645V986.445V986.455ZM764.5 977.045L752.13 984.175V940.844L764.5 933.755V977.045Z" fill="#F2E98F" stroke="black" stroke-width="0.25" stroke-miterlimit="10"/>
<path fill-rule="evenodd" clip-rule="evenodd" d="M819.19 659.174L992.9 558.944V444.274L819.19 544.565V659.174Z" fill="#9C705D" stroke="black" stroke-width="0.25" stroke-miterlimit="10"/>
<path fill-rule="evenodd" clip-rule="evenodd" d="M844.14 527.534L878.77 507.544V627.134L844.14 645.664V527.534Z" fill="#8FB2C4" stroke="black" stroke-width="0.25" stroke-miterlimit="10"/>
<path fill-rule="evenodd" clip-rule="evenodd" d="M844.14 598.414L873.58 581.414V510.544L878.77 507.544V585.464L844.14 605.564V598.414Z" fill="#7698AA" stroke="black" stroke-width="0.25" stroke-miterlimit="10"/>
<path fill-rule="evenodd" clip-rule="evenodd" d="M878.77 585.464L844.14 605.564V645.664L845.96 646.714V606.614L880.59 586.514L878.77 585.464Z" fill="#D8D27A" stroke="black" stroke-width="0.25" stroke-miterlimit="10"/>
<path fill-rule="evenodd" clip-rule="evenodd" d="M845.96 606.614V646.714L880.59 627.054V586.514L845.96 606.624V606.614ZM857.96 637.684L847.76 643.554V607.834L857.96 601.994V637.684ZM864.79 633.664L861.76 635.424V600.234L864.79 598.374V633.664ZM878.78 625.904L868.58 631.774V596.054L878.78 590.214V625.904Z" fill="#F2E98F" stroke="black" stroke-width="0.25" stroke-miterlimit="10"/>
<path fill-rule="evenodd" clip-rule="evenodd" d="M892.7 500.544L927.33 480.554V600.134L892.7 618.674V500.544Z" fill="#8FB2C4" stroke="black" stroke-width="0.25" stroke-miterlimit="10"/>
<path fill-rule="evenodd" clip-rule="evenodd" d="M892.7 571.424L922.14 554.424V483.544L927.33 480.554V558.464L892.7 578.574V571.424Z" fill="#7698AA" stroke="black" stroke-width="0.25" stroke-miterlimit="10"/>
<path fill-rule="evenodd" clip-rule="evenodd" d="M927.33 558.464L892.7 578.574V618.674L894.52 619.724V579.624L929.15 559.514L927.33 558.464Z" fill="#D8D27A" stroke="black" stroke-width="0.25" stroke-miterlimit="10"/>
<path fill-rule="evenodd" clip-rule="evenodd" d="M894.52 579.624V619.724L929.15 600.064V559.524L894.52 579.634V579.624ZM906.52 610.694L896.32 616.564V580.844L906.52 575.004V610.694ZM913.35 606.674L910.32 608.434V573.244L913.35 571.384V606.674ZM927.34 598.914L917.14 604.784V569.064L927.34 563.224V598.914Z" fill="#F2E98F" stroke="black" stroke-width="0.25" stroke-miterlimit="10"/>
<path fill-rule="evenodd" clip-rule="evenodd" d="M941.26 473.554L975.89 453.554V573.144L941.26 591.674V473.554Z" fill="#8FB2C4" stroke="black" stroke-width="0.25" stroke-miterlimit="10"/>
<path fill-rule="evenodd" clip-rule="evenodd" d="M941.26 544.424L970.7 527.434V456.554L975.89 453.554V531.474L941.26 551.584V544.424Z" fill="#7698AA" stroke="black" stroke-width="0.25" stroke-miterlimit="10"/>
<path fill-rule="evenodd" clip-rule="evenodd" d="M975.89 531.474L941.26 551.584V591.674L943.08 592.724V552.634L977.71 532.524L975.89 531.474Z" fill="#D8D27A" stroke="black" stroke-width="0.25" stroke-miterlimit="10"/>
<path fill-rule="evenodd" clip-rule="evenodd" d="M943.08 552.634V592.734L977.71 573.074V532.534L943.08 552.644V552.634ZM955.08 583.694L944.88 589.564V553.844L955.08 548.004V583.694ZM961.91 579.684L958.88 581.444V546.254L961.91 544.394V579.684ZM975.9 571.924L965.7 577.794V542.074L975.9 536.234V571.924Z" fill="#F2E98F" stroke="black" stroke-width="0.25" stroke-miterlimit="10"/>
<path fill-rule="evenodd" clip-rule="evenodd" d="M65.3597 295.254L40.6298 281.054V347.444L65.3597 360.674V295.254Z" fill="#8FB2C4" stroke="black" stroke-width="0.25" stroke-miterlimit="10"/>
<path fill-rule="evenodd" clip-rule="evenodd" d="M65.3597 326.944L44.3398 314.804V283.184L40.6298 281.054V317.694L65.3597 332.044V326.944Z" fill="#7698AA" stroke="black" stroke-width="0.25" stroke-miterlimit="10"/>
<path fill-rule="evenodd" clip-rule="evenodd" d="M40.6298 317.694L65.3597 332.044V360.674L64.0598 361.424V332.794L39.3298 318.444L40.6298 317.694Z" fill="#D8D27A" stroke="black" stroke-width="0.25" stroke-miterlimit="10"/>
<path fill-rule="evenodd" clip-rule="evenodd" d="M64.0598 332.794V361.424L39.3298 347.394V318.444L64.0598 332.794Z" fill="#F2E98F" stroke="black" stroke-width="0.25" stroke-miterlimit="10"/>
<path fill-rule="evenodd" clip-rule="evenodd" d="M55.4897 354.984L62.7698 359.174V333.664L55.4897 329.494V354.984Z" fill="#F2E98F"/>
<path fill-rule="evenodd" clip-rule="evenodd" d="M50.6097 352.114L52.7798 353.364V328.234L50.6097 326.914V352.114Z" fill="#F2E98F"/>
<path fill-rule="evenodd" clip-rule="evenodd" d="M40.6198 346.574L47.8998 350.764V325.254L40.6198 321.084V346.574Z" fill="#F2E98F"/>
<path fill-rule="evenodd" clip-rule="evenodd" d="M64.7098 362.204L39.9799 348.004V414.394L64.7098 427.624V362.204Z" fill="#8FB2C4" stroke="black" stroke-width="0.25" stroke-miterlimit="10"/>
<path fill-rule="evenodd" clip-rule="evenodd" d="M64.7098 393.884L43.6898 381.744V350.124L39.9799 348.004V384.634L64.7098 398.994V393.884Z" fill="#7698AA" stroke="black" stroke-width="0.25" stroke-miterlimit="10"/>
<path fill-rule="evenodd" clip-rule="evenodd" d="M39.9799 384.634L64.7098 398.994V427.624L63.4098 428.374V399.744L38.6798 385.384L39.9799 384.634Z" fill="#D8D27A" stroke="black" stroke-width="0.25" stroke-miterlimit="10"/>
<path fill-rule="evenodd" clip-rule="evenodd" d="M63.4098 399.744V428.374L38.6798 414.334V385.384L63.4098 399.744Z" fill="#F2E98F" stroke="black" stroke-width="0.25" stroke-miterlimit="10"/>
<path fill-rule="evenodd" clip-rule="evenodd" d="M54.8398 421.924L62.1198 426.124V400.614L54.8398 396.444V421.924Z" fill="#F2E98F"/>
<path fill-rule="evenodd" clip-rule="evenodd" d="M49.9698 419.054L52.1298 420.314V395.184L49.9698 393.854V419.054Z" fill="#F2E98F"/>
<path fill-rule="evenodd" clip-rule="evenodd" d="M39.9698 413.514L47.2498 417.714V392.204L39.9698 388.034V413.514Z" fill="#F2E98F"/>
<path fill-rule="evenodd" clip-rule="evenodd" d="M64.0598 429.144L39.3298 414.944V481.334L64.0598 494.574V429.144Z" fill="#8FB2C4" stroke="black" stroke-width="0.25" stroke-miterlimit="10"/>
<path fill-rule="evenodd" clip-rule="evenodd" d="M64.0598 460.834L43.0398 448.694V417.074L39.3298 414.944V451.584L64.0598 465.934V460.834Z" fill="#7698AA" stroke="black" stroke-width="0.25" stroke-miterlimit="10"/>
<path fill-rule="evenodd" clip-rule="evenodd" d="M39.3298 451.584L64.0598 465.934V494.574L62.7598 495.314V466.684L38.0298 452.334L39.3298 451.584Z" fill="#D8D27A" stroke="black" stroke-width="0.25" stroke-miterlimit="10"/>
<path fill-rule="evenodd" clip-rule="evenodd" d="M62.7598 466.684V495.314L38.0298 481.284V452.334L62.7598 466.684Z" fill="#F2E98F" stroke="black" stroke-width="0.25" stroke-miterlimit="10"/>
<path fill-rule="evenodd" clip-rule="evenodd" d="M54.1898 488.874L61.4698 493.064V467.564L54.1898 463.384V488.874Z" fill="#F2E98F"/>
<path fill-rule="evenodd" clip-rule="evenodd" d="M49.3198 486.004L51.4799 487.264V462.124L49.3198 460.804V486.004Z" fill="#F2E98F"/>
<path fill-rule="evenodd" clip-rule="evenodd" d="M39.3298 480.464L46.6097 484.654V459.144L39.3298 454.974V480.464Z" fill="#F2E98F"/>
<path fill-rule="evenodd" clip-rule="evenodd" d="M114.86 322.014L90.1298 307.814V374.204L114.86 387.434V322.014Z" fill="#8FB2C4" stroke="black" stroke-width="0.25" stroke-miterlimit="10"/>
<path fill-rule="evenodd" clip-rule="evenodd" d="M114.86 353.694L93.8398 341.564V309.944L90.1298 307.814V344.454L114.86 358.804V353.694Z" fill="#7698AA" stroke="black" stroke-width="0.25" stroke-miterlimit="10"/>
<path fill-rule="evenodd" clip-rule="evenodd" d="M90.1298 344.454L114.86 358.804V387.434L113.56 388.184V359.554L88.8298 345.204L90.1298 344.454Z" fill="#D8D27A" stroke="black" stroke-width="0.25" stroke-miterlimit="10"/>
<path fill-rule="evenodd" clip-rule="evenodd" d="M113.56 359.554V388.184L88.8298 374.154V345.204L113.56 359.554Z" fill="#F2E98F" stroke="black" stroke-width="0.25" stroke-miterlimit="10"/>
<path fill-rule="evenodd" clip-rule="evenodd" d="M104.99 381.744L112.27 385.934V360.424L104.99 356.254V381.744Z" fill="#F2E98F"/>
<path fill-rule="evenodd" clip-rule="evenodd" d="M100.11 378.874L102.28 380.124V354.994L100.11 353.674V378.874Z" fill="#F2E98F"/>
<path fill-rule="evenodd" clip-rule="evenodd" d="M90.1198 373.324L97.3998 377.524V352.014L90.1198 347.844V373.324Z" fill="#F2E98F"/>
<path fill-rule="evenodd" clip-rule="evenodd" d="M114.21 388.964L89.4799 374.764V441.144L114.21 454.384V388.964Z" fill="#8FB2C4" stroke="black" stroke-width="0.25" stroke-miterlimit="10"/>
<path fill-rule="evenodd" clip-rule="evenodd" d="M114.21 420.644L93.1898 408.504V376.884L89.4799 374.764V411.394L114.21 425.754V420.644Z" fill="#7698AA" stroke="black" stroke-width="0.25" stroke-miterlimit="10"/>
<path fill-rule="evenodd" clip-rule="evenodd" d="M89.4799 411.394L114.21 425.754V454.384L112.91 455.134V426.504L88.1798 412.144L89.4799 411.394Z" fill="#D8D27A" stroke="black" stroke-width="0.25" stroke-miterlimit="10"/>
<path fill-rule="evenodd" clip-rule="evenodd" d="M112.91 426.504V455.134L88.1798 441.094V412.144L112.91 426.504Z" fill="#F2E98F" stroke="black" stroke-width="0.25" stroke-miterlimit="10"/>
<path fill-rule="evenodd" clip-rule="evenodd" d="M104.34 448.684L111.62 452.884V427.374L104.34 423.204V448.684Z" fill="#F2E98F"/>
<path fill-rule="evenodd" clip-rule="evenodd" d="M99.4598 445.814L101.63 447.074V421.944L99.4598 420.614V445.814Z" fill="#F2E98F"/>
<path fill-rule="evenodd" clip-rule="evenodd" d="M89.4698 440.274L96.7498 444.474V418.964L89.4698 414.794V440.274Z" fill="#F2E98F"/>
<path fill-rule="evenodd" clip-rule="evenodd" d="M113.56 455.904L88.8298 441.704V508.094L113.56 521.324V455.904Z" fill="#8FB2C4" stroke="black" stroke-width="0.25" stroke-miterlimit="10"/>
<path fill-rule="evenodd" clip-rule="evenodd" d="M113.56 487.594L92.5398 475.454V443.834L88.8298 441.704V478.344L113.56 492.694V487.594Z" fill="#7698AA" stroke="black" stroke-width="0.25" stroke-miterlimit="10"/>
<path fill-rule="evenodd" clip-rule="evenodd" d="M88.8298 478.344L113.56 492.694V521.324L112.26 522.074V493.444L87.5298 479.094L88.8298 478.344Z" fill="#D8D27A" stroke="black" stroke-width="0.25" stroke-miterlimit="10"/>
<path fill-rule="evenodd" clip-rule="evenodd" d="M112.26 493.444V522.074L87.5298 508.045V479.094L112.26 493.444Z" fill="#F2E98F" stroke="black" stroke-width="0.25" stroke-miterlimit="10"/>
<path fill-rule="evenodd" clip-rule="evenodd" d="M103.69 515.634L110.97 519.824V494.314L103.69 490.144V515.634Z" fill="#F2E98F"/>
<path fill-rule="evenodd" clip-rule="evenodd" d="M98.8198 512.764L100.98 514.014V488.884L98.8198 487.564V512.764Z" fill="#F2E98F"/>
<path fill-rule="evenodd" clip-rule="evenodd" d="M88.8198 507.224L96.0999 511.414V485.904L88.8198 481.734V507.224Z" fill="#F2E98F"/>
<path fill-rule="evenodd" clip-rule="evenodd" d="M164.36 348.774L139.63 334.574V400.964L164.36 414.194V348.774Z" fill="#8FB2C4" stroke="black" stroke-width="0.25" stroke-miterlimit="10"/>
<path fill-rule="evenodd" clip-rule="evenodd" d="M164.36 380.454L143.34 368.324V336.704L139.63 334.574V371.214L164.36 385.564V380.454Z" fill="#7698AA" stroke="black" stroke-width="0.25" stroke-miterlimit="10"/>
<path fill-rule="evenodd" clip-rule="evenodd" d="M139.63 371.214L164.36 385.564V414.194L163.06 414.944V386.314L138.33 371.954L139.63 371.214Z" fill="#D8D27A" stroke="black" stroke-width="0.25" stroke-miterlimit="10"/>
<path fill-rule="evenodd" clip-rule="evenodd" d="M163.06 386.314V414.944L138.33 400.914V371.954L163.06 386.314Z" fill="#F2E98F" stroke="black" stroke-width="0.25" stroke-miterlimit="10"/>
<path fill-rule="evenodd" clip-rule="evenodd" d="M154.49 408.504L161.77 412.694V387.184L154.49 383.014V408.504Z" fill="#F2E98F"/>
<path fill-rule="evenodd" clip-rule="evenodd" d="M149.61 405.634L151.78 406.884V381.754L149.61 380.434V405.634Z" fill="#F2E98F"/>
<path fill-rule="evenodd" clip-rule="evenodd" d="M139.62 400.084L146.9 404.284V378.774L139.62 374.604V400.084Z" fill="#F2E98F"/>
<path fill-rule="evenodd" clip-rule="evenodd" d="M163.71 447.404L142.69 435.264V403.644L138.98 401.524V438.154L163.71 452.514V447.404Z" fill="#7698AA" stroke="black" stroke-width="0.25" stroke-miterlimit="10"/>
<path fill-rule="evenodd" clip-rule="evenodd" d="M163.71 415.714L138.98 401.524V467.904L163.71 481.144V415.714Z" fill="#8FB2C4" stroke="black" stroke-width="0.25" stroke-miterlimit="10"/>
<path fill-rule="evenodd" clip-rule="evenodd" d="M138.98 438.154L163.71 452.514V490.604L162.41 491.494V453.264L137.68 438.904L138.98 438.154Z" fill="#D8D27A" stroke="black" stroke-width="0.25" stroke-miterlimit="10"/>
<path fill-rule="evenodd" clip-rule="evenodd" d="M137.68 438.904V477.274L162.41 491.494V453.264L137.68 438.904Z" fill="#F2E98F" stroke="black" stroke-width="0.25" stroke-miterlimit="10"/>
<path fill-rule="evenodd" clip-rule="evenodd" d="M163.06 491.714L138.33 477.574V530.904L163.06 543.484V491.714Z" fill="#8FB2C4" stroke="black" stroke-width="0.25" stroke-miterlimit="10"/>
<path fill-rule="evenodd" clip-rule="evenodd" d="M138.33 501.014L163.06 515.374V553.694L161.76 554.364V516.124L137.03 501.764L138.33 501.014Z" fill="#D8D27A" stroke="black" stroke-width="0.25" stroke-miterlimit="10"/>
<path fill-rule="evenodd" clip-rule="evenodd" d="M137.03 501.764V540.134L161.76 554.364V516.124L137.03 501.764Z" fill="#F2E98F" stroke="black" stroke-width="0.25" stroke-miterlimit="10"/>
<path fill-rule="evenodd" clip-rule="evenodd" d="M164.36 452.934L189.09 467.294V505.384L187.79 506.284V468.044L163.06 453.684L164.36 452.934Z" fill="#D8D27A" stroke="black" stroke-width="0.25" stroke-miterlimit="10"/>
<path fill-rule="evenodd" clip-rule="evenodd" d="M163.06 453.684V492.054L187.79 506.284V468.044L163.06 453.684Z" fill="#F2E98F" stroke="black" stroke-width="0.25" stroke-miterlimit="10"/>
<path fill-rule="evenodd" clip-rule="evenodd" d="M188.44 506.504L163.71 492.354V545.694L188.44 558.274V506.504Z" fill="#8FB2C4" stroke="black" stroke-width="0.25" stroke-miterlimit="10"/>
<path fill-rule="evenodd" clip-rule="evenodd" d="M163.71 515.804L188.44 530.154V568.474L187.14 569.144V530.904L162.41 516.554L163.71 515.804Z" fill="#D8D27A" stroke="black" stroke-width="0.25" stroke-miterlimit="10"/>
<path fill-rule="evenodd" clip-rule="evenodd" d="M162.41 516.554V554.924L187.14 569.144V530.904L162.41 516.554Z" fill="#F2E98F" stroke="black" stroke-width="0.25" stroke-miterlimit="10"/>
<path fill-rule="evenodd" clip-rule="evenodd" d="M254.59 403.644L229.86 389.444V455.834L254.59 469.064V403.644Z" fill="#8FB2C4" stroke="black" stroke-width="0.25" stroke-miterlimit="10"/>
<path fill-rule="evenodd" clip-rule="evenodd" d="M254.59 435.324L233.57 423.194V391.574L229.86 389.444V426.074L254.59 440.434V435.324Z" fill="#7698AA" stroke="black" stroke-width="0.25" stroke-miterlimit="10"/>
<path fill-rule="evenodd" clip-rule="evenodd" d="M229.86 426.074L254.59 440.434V469.064L253.3 469.814V441.184L228.57 426.824L229.86 426.074Z" fill="#D8D27A" stroke="black" stroke-width="0.25" stroke-miterlimit="10"/>
<path fill-rule="evenodd" clip-rule="evenodd" d="M253.3 441.184V469.814L228.57 455.774V426.824L253.3 441.184Z" fill="#F2E98F" stroke="black" stroke-width="0.25" stroke-miterlimit="10"/>
<path fill-rule="evenodd" clip-rule="evenodd" d="M244.72 463.364L252 467.564V442.054L244.72 437.884V463.364Z" fill="#F2E98F"/>
<path fill-rule="evenodd" clip-rule="evenodd" d="M239.85 460.505L242.01 461.755V436.625L239.85 435.304V460.505Z" fill="#F2E98F"/>
<path fill-rule="evenodd" clip-rule="evenodd" d="M229.86 454.954L237.14 459.154V433.644L229.86 429.474V454.954Z" fill="#F2E98F"/>
<path fill-rule="evenodd" clip-rule="evenodd" d="M253.94 470.584L229.22 456.384V522.774L253.94 536.014V470.584Z" fill="#8FB2C4" stroke="black" stroke-width="0.25" stroke-miterlimit="10"/>
<path fill-rule="evenodd" clip-rule="evenodd" d="M253.94 502.274L232.92 490.134V458.514L229.22 456.384V493.024L253.94 507.384V502.274Z" fill="#7698AA" stroke="black" stroke-width="0.25" stroke-miterlimit="10"/>
<path fill-rule="evenodd" clip-rule="evenodd" d="M229.22 493.024L253.94 507.384V536.014L252.65 536.764V508.134L227.92 493.774L229.22 493.024Z" fill="#D8D27A" stroke="black" stroke-width="0.25" stroke-miterlimit="10"/>
<path fill-rule="evenodd" clip-rule="evenodd" d="M252.65 508.134V536.764L227.92 522.724V493.774L252.65 508.134Z" fill="#F2E98F" stroke="black" stroke-width="0.25" stroke-miterlimit="10"/>
<path fill-rule="evenodd" clip-rule="evenodd" d="M244.08 530.314L251.36 534.504V509.004L244.08 504.834V530.314Z" fill="#F2E98F"/>
<path fill-rule="evenodd" clip-rule="evenodd" d="M239.2 527.444L241.36 528.704V503.574L239.2 502.244V527.444Z" fill="#F2E98F"/>
<path fill-rule="evenodd" clip-rule="evenodd" d="M229.21 521.904L236.49 526.094V500.594L229.21 496.414V521.904Z" fill="#F2E98F"/>
<path fill-rule="evenodd" clip-rule="evenodd" d="M253.3 537.534L228.57 523.334V589.724L253.3 602.954V537.534Z" fill="#8FB2C4" stroke="black" stroke-width="0.25" stroke-miterlimit="10"/>
<path fill-rule="evenodd" clip-rule="evenodd" d="M253.3 569.214L232.27 557.084V525.464L228.57 523.334V559.974L253.3 574.324V569.214Z" fill="#7698AA" stroke="black" stroke-width="0.25" stroke-miterlimit="10"/>
<path fill-rule="evenodd" clip-rule="evenodd" d="M228.57 559.974L253.3 574.324V602.954L252 603.704V575.074L227.27 560.714L228.57 559.974Z" fill="#D8D27A" stroke="black" stroke-width="0.25" stroke-miterlimit="10"/>
<path fill-rule="evenodd" clip-rule="evenodd" d="M252 575.074V603.704L227.27 589.674V560.714L252 575.074Z" fill="#F2E98F" stroke="black" stroke-width="0.25" stroke-miterlimit="10"/>
<path fill-rule="evenodd" clip-rule="evenodd" d="M243.43 597.264L250.71 601.454V575.944L243.43 571.774V597.264Z" fill="#F2E98F"/>
<path fill-rule="evenodd" clip-rule="evenodd" d="M238.55 594.394L240.72 595.644V570.514L238.55 569.194V594.394Z" fill="#F2E98F"/>
<path fill-rule="evenodd" clip-rule="evenodd" d="M228.56 588.844L235.84 593.044V567.534L228.56 563.364V588.844Z" fill="#F2E98F"/>
<path fill-rule="evenodd" clip-rule="evenodd" d="M304.09 430.404L279.36 416.204V482.594L304.09 495.824V430.404Z" fill="#8FB2C4" stroke="black" stroke-width="0.25" stroke-miterlimit="10"/>
<path fill-rule="evenodd" clip-rule="evenodd" d="M304.09 462.084L283.07 449.954V418.334L279.36 416.204V452.834L304.09 467.194V462.084Z" fill="#7698AA" stroke="black" stroke-width="0.25" stroke-miterlimit="10"/>
<path fill-rule="evenodd" clip-rule="evenodd" d="M279.36 452.834L304.09 467.194V495.824L302.79 496.574V467.944L278.07 453.584L279.36 452.834Z" fill="#D8D27A" stroke="black" stroke-width="0.25" stroke-miterlimit="10"/>
<path fill-rule="evenodd" clip-rule="evenodd" d="M302.79 467.944V496.574L278.07 482.534V453.584L302.79 467.944Z" fill="#F2E98F" stroke="black" stroke-width="0.25" stroke-miterlimit="10"/>
<path fill-rule="evenodd" clip-rule="evenodd" d="M294.22 490.124L301.5 494.324V468.814L294.22 464.644V490.124Z" fill="#F2E98F"/>
<path fill-rule="evenodd" clip-rule="evenodd" d="M289.35 487.254L291.51 488.514V463.384L289.35 462.064V487.254Z" fill="#F2E98F"/>
<path fill-rule="evenodd" clip-rule="evenodd" d="M279.36 481.714L286.64 485.914V460.404L279.36 456.234V481.714Z" fill="#F2E98F"/>
<path fill-rule="evenodd" clip-rule="evenodd" d="M303.44 497.344L278.72 483.144V549.534L303.44 562.774V497.344Z" fill="#8FB2C4" stroke="black" stroke-width="0.25" stroke-miterlimit="10"/>
<path fill-rule="evenodd" clip-rule="evenodd" d="M303.44 529.034L282.42 516.894V485.274L278.72 483.144V519.784L303.44 534.144V529.034Z" fill="#7698AA" stroke="black" stroke-width="0.25" stroke-miterlimit="10"/>
<path fill-rule="evenodd" clip-rule="evenodd" d="M278.72 519.784L303.44 534.144V562.774L302.15 563.524V534.884L277.42 520.534L278.72 519.784Z" fill="#D8D27A" stroke="black" stroke-width="0.25" stroke-miterlimit="10"/>
<path fill-rule="evenodd" clip-rule="evenodd" d="M302.15 534.884V563.524L277.42 549.484V520.534L302.15 534.884Z" fill="#F2E98F" stroke="black" stroke-width="0.25" stroke-miterlimit="10"/>
<path fill-rule="evenodd" clip-rule="evenodd" d="M293.57 557.074L300.85 561.264V535.764L293.57 531.584V557.074Z" fill="#F2E98F"/>
<path fill-rule="evenodd" clip-rule="evenodd" d="M288.7 554.204L290.86 555.464V530.334L288.7 529.004V554.204Z" fill="#F2E98F"/>
<path fill-rule="evenodd" clip-rule="evenodd" d="M278.71 548.664L285.99 552.854V527.354L278.71 523.174V548.664Z" fill="#F2E98F"/>
<path fill-rule="evenodd" clip-rule="evenodd" d="M302.79 564.294L278.07 550.094V616.484L302.79 629.714V564.294Z" fill="#8FB2C4" stroke="black" stroke-width="0.25" stroke-miterlimit="10"/>
<path fill-rule="evenodd" clip-rule="evenodd" d="M302.79 595.974L281.77 583.844V552.224L278.07 550.094V586.724L302.79 601.084V595.974Z" fill="#7698AA" stroke="black" stroke-width="0.25" stroke-miterlimit="10"/>
<path fill-rule="evenodd" clip-rule="evenodd" d="M278.07 586.724L302.79 601.084V629.714L301.5 630.464V601.834L276.77 587.474L278.07 586.724Z" fill="#D8D27A" stroke="black" stroke-width="0.25" stroke-miterlimit="10"/>
<path fill-rule="evenodd" clip-rule="evenodd" d="M301.5 601.834V630.464L276.77 616.424V587.474L301.5 601.834Z" fill="#F2E98F" stroke="black" stroke-width="0.25" stroke-miterlimit="10"/>
<path fill-rule="evenodd" clip-rule="evenodd" d="M292.93 624.024L300.21 628.214V602.704L292.93 598.534V624.024Z" fill="#F2E98F"/>
<path fill-rule="evenodd" clip-rule="evenodd" d="M288.05 621.154L290.21 622.404V597.274L288.05 595.954V621.154Z" fill="#F2E98F"/>
<path fill-rule="evenodd" clip-rule="evenodd" d="M278.06 615.604L285.34 619.804V594.294L278.06 590.124V615.604Z" fill="#F2E98F"/>
<path fill-rule="evenodd" clip-rule="evenodd" d="M353.59 457.164L328.86 442.964V509.354L353.59 522.584V457.164Z" fill="#8FB2C4" stroke="black" stroke-width="0.25" stroke-miterlimit="10"/>
<path fill-rule="evenodd" clip-rule="evenodd" d="M353.59 488.844L332.57 476.714V445.094L328.86 442.964V479.594L353.59 493.954V488.844Z" fill="#7698AA" stroke="black" stroke-width="0.25" stroke-miterlimit="10"/>
<path fill-rule="evenodd" clip-rule="evenodd" d="M328.86 479.594L353.59 493.954V522.584L352.29 523.334V494.704L327.57 480.344L328.86 479.594Z" fill="#D8D27A" stroke="black" stroke-width="0.25" stroke-miterlimit="10"/>
<path fill-rule="evenodd" clip-rule="evenodd" d="M352.29 494.704V523.334L327.57 509.295V480.344L352.29 494.704Z" fill="#F2E98F" stroke="black" stroke-width="0.25" stroke-miterlimit="10"/>
<path fill-rule="evenodd" clip-rule="evenodd" d="M343.72 516.884L351 521.084V495.574L343.72 491.404V516.884Z" fill="#F2E98F"/>
<path fill-rule="evenodd" clip-rule="evenodd" d="M338.85 514.014L341.01 515.274V490.144L338.85 488.824V514.014Z" fill="#F2E98F"/>
<path fill-rule="evenodd" clip-rule="evenodd" d="M328.86 508.474L336.14 512.674V487.164L328.86 482.994V508.474Z" fill="#F2E98F"/>
<path fill-rule="evenodd" clip-rule="evenodd" d="M352.94 555.794L331.92 543.654V512.034L328.21 509.904V546.544L352.94 560.894V555.794Z" fill="#7698AA" stroke="black" stroke-width="0.25" stroke-miterlimit="10"/>
<path fill-rule="evenodd" clip-rule="evenodd" d="M352.94 524.104L328.21 509.904V576.294L352.94 589.534V524.104Z" fill="#8FB2C4" stroke="black" stroke-width="0.25" stroke-miterlimit="10"/>
<path fill-rule="evenodd" clip-rule="evenodd" d="M328.21 546.544L352.94 560.894V598.994L351.65 599.884V561.644L326.92 547.294L328.21 546.544Z" fill="#D8D27A" stroke="black" stroke-width="0.25" stroke-miterlimit="10"/>
<path fill-rule="evenodd" clip-rule="evenodd" d="M326.92 547.294V585.664L351.65 599.884V561.644L326.92 547.294Z" fill="#F2E98F" stroke="black" stroke-width="0.25" stroke-miterlimit="10"/>
<path fill-rule="evenodd" clip-rule="evenodd" d="M352.29 600.104L327.57 585.964V639.294L352.29 651.874V600.104Z" fill="#8FB2C4" stroke="black" stroke-width="0.25" stroke-miterlimit="10"/>
<path fill-rule="evenodd" clip-rule="evenodd" d="M327.57 609.404L352.29 623.764V662.084L351 662.744V624.514L326.27 610.154L327.57 609.404Z" fill="#D8D27A" stroke="black" stroke-width="0.25" stroke-miterlimit="10"/>
<path fill-rule="evenodd" clip-rule="evenodd" d="M326.27 610.154V648.524L351 662.744V624.514L326.27 610.154Z" fill="#F2E98F" stroke="black" stroke-width="0.25" stroke-miterlimit="10"/>
<path fill-rule="evenodd" clip-rule="evenodd" d="M353.59 561.324L378.32 575.684V613.774L377.02 614.664V576.434L352.29 562.074L353.59 561.324Z" fill="#D8D27A" stroke="black" stroke-width="0.25" stroke-miterlimit="10"/>
<path fill-rule="evenodd" clip-rule="evenodd" d="M352.29 562.074V600.444L377.02 614.664V576.434L352.29 562.074Z" fill="#F2E98F" stroke="black" stroke-width="0.25" stroke-miterlimit="10"/>
<path fill-rule="evenodd" clip-rule="evenodd" d="M377.67 614.884L352.94 600.744V654.074L377.67 666.654V614.884Z" fill="#8FB2C4" stroke="black" stroke-width="0.25" stroke-miterlimit="10"/>
<path fill-rule="evenodd" clip-rule="evenodd" d="M352.94 624.184L377.67 638.544V676.864L376.37 677.534V639.294L351.65 624.934L352.94 624.184Z" fill="#D8D27A" stroke="black" stroke-width="0.25" stroke-miterlimit="10"/>
<path fill-rule="evenodd" clip-rule="evenodd" d="M351.65 624.934V663.304L376.37 677.534V639.294L351.65 624.934Z" fill="#F2E98F" stroke="black" stroke-width="0.25" stroke-miterlimit="10"/>
<path fill-rule="evenodd" clip-rule="evenodd" d="M472.16 625.764L447.44 611.614V664.954L472.16 677.534V625.764Z" fill="#8FB2C4" stroke="black" stroke-width="0.25" stroke-miterlimit="10"/>
<path fill-rule="evenodd" clip-rule="evenodd" d="M447.43 635.064L472.16 649.414V687.734L470.87 688.404V650.164L446.14 635.814L447.43 635.064Z" fill="#D8D27A" stroke="black" stroke-width="0.25" stroke-miterlimit="10"/>
<path fill-rule="evenodd" clip-rule="evenodd" d="M446.14 635.814V674.184L470.87 688.404V650.164L446.14 635.814Z" fill="#F2E98F" stroke="black" stroke-width="0.25" stroke-miterlimit="10"/>
<path fill-rule="evenodd" clip-rule="evenodd" d="M497.54 576.004L472.81 562.414V615.744L497.54 628.324V576.004Z" fill="#8FB2C4" stroke="black" stroke-width="0.25" stroke-miterlimit="10"/>
<path fill-rule="evenodd" clip-rule="evenodd" d="M497.54 505.004L472.81 490.474V541.644L497.54 554.224V505.004Z" fill="#8FB2C4" stroke="black" stroke-width="0.25" stroke-miterlimit="10"/>
<path fill-rule="evenodd" clip-rule="evenodd" d="M472.81 585.854L497.54 600.214V638.534L496.24 639.204V600.964L471.51 586.604L472.81 585.854Z" fill="#D8D27A" stroke="black" stroke-width="0.25" stroke-miterlimit="10"/>
<path fill-rule="evenodd" clip-rule="evenodd" d="M471.51 586.604V624.974L496.24 639.204V600.964L471.51 586.604Z" fill="#F2E98F" stroke="black" stroke-width="0.25" stroke-miterlimit="10"/>
<path fill-rule="evenodd" clip-rule="evenodd" d="M472.81 545.084L448.08 531.574V602.074L472.81 614.664V545.084Z" fill="#8FB2C4" stroke="black" stroke-width="0.25" stroke-miterlimit="10"/>
<path fill-rule="evenodd" clip-rule="evenodd" d="M448.08 572.184L472.81 586.544V624.864L471.51 625.534V587.294L446.79 572.934L448.08 572.184Z" fill="#D8D27A" stroke="black" stroke-width="0.25" stroke-miterlimit="10"/>
<path fill-rule="evenodd" clip-rule="evenodd" d="M446.79 572.934V611.304L471.51 625.534V587.294L446.79 572.934Z" fill="#F2E98F" stroke="black" stroke-width="0.25" stroke-miterlimit="10"/>
<path fill-rule="evenodd" clip-rule="evenodd" d="M448.3 502.354L472.16 516.024L471.76 544.264L473.67 543.144L473.85 514.864L450.3 501.584L448.3 502.354Z" fill="#D8D27A" stroke="black" stroke-width="0.25" stroke-miterlimit="10"/>
<path fill-rule="evenodd" clip-rule="evenodd" d="M448.08 502.414V531.204L471.76 544.264L472.16 516.024L448.08 502.414Z" fill="#F2E98F" stroke="black" stroke-width="0.25" stroke-miterlimit="10"/>
<path fill-rule="evenodd" clip-rule="evenodd" d="M472.51 533.244L496.37 546.914L495.97 575.154L497.54 573.594V545.454L474.51 532.464L472.51 533.244Z" fill="#D8D27A" stroke="black" stroke-width="0.25" stroke-miterlimit="10"/>
<path fill-rule="evenodd" clip-rule="evenodd" d="M472.29 533.294V562.094L495.97 575.154L496.37 546.914L472.29 533.294Z" fill="#F2E98F" stroke="black" stroke-width="0.25" stroke-miterlimit="10"/>
<path fill-rule="evenodd" clip-rule="evenodd" d="M496.89 639.434L472.16 625.284V678.614L496.89 691.204V639.434Z" fill="#8FB2C4" stroke="black" stroke-width="0.25" stroke-miterlimit="10"/>
<path fill-rule="evenodd" clip-rule="evenodd" d="M472.16 648.734L496.89 663.084V701.404L495.59 702.074V663.834L470.87 649.474L472.16 648.734Z" fill="#D8D27A" stroke="black" stroke-width="0.25" stroke-miterlimit="10"/>
<path fill-rule="evenodd" clip-rule="evenodd" d="M470.87 649.474V687.844L495.59 702.074V663.834L470.87 649.474Z" fill="#F2E98F" stroke="black" stroke-width="0.25" stroke-miterlimit="10"/>
<path fill-rule="evenodd" clip-rule="evenodd" d="M791.37 818.314L833.38 794.074V939.104L791.37 961.584V818.314Z" fill="#8FB2C4" stroke="black" stroke-width="0.25" stroke-miterlimit="10"/>
<path fill-rule="evenodd" clip-rule="evenodd" d="M791.37 904.284L827.08 883.664V797.704L833.38 794.074V888.574L791.37 912.954V904.284Z" fill="#7698AA" stroke="black" stroke-width="0.25" stroke-miterlimit="10"/>
<path fill-rule="evenodd" clip-rule="evenodd" d="M833.38 888.574L791.37 912.954V961.584L793.58 962.864V914.224L835.58 889.844L833.38 888.574Z" fill="#D8D27A" stroke="black" stroke-width="0.25" stroke-miterlimit="10"/>
<path fill-rule="evenodd" clip-rule="evenodd" d="M793.58 914.224V962.854L835.58 939.014V889.844L793.58 914.224ZM808.14 951.914L795.77 959.034V915.704L808.14 908.614V951.904V951.914ZM816.42 947.034L812.74 949.164V906.474L816.42 904.224V947.024V947.034ZM833.39 937.624L821.02 944.754V901.424L833.39 894.334V937.624Z" fill="#F2E98F" stroke="black" stroke-width="0.25" stroke-miterlimit="10"/>
<path fill-rule="evenodd" clip-rule="evenodd" d="M860.26 778.894L902.26 754.644V899.684L860.26 922.164V778.894Z" fill="#8FB2C4" stroke="black" stroke-width="0.25" stroke-miterlimit="10"/>
<path fill-rule="evenodd" clip-rule="evenodd" d="M860.26 864.854L895.97 844.244V758.284L902.26 754.644V849.144L860.26 873.534V864.854Z" fill="#7698AA" stroke="black" stroke-width="0.25" stroke-miterlimit="10"/>
<path fill-rule="evenodd" clip-rule="evenodd" d="M902.26 849.144L860.26 873.534V922.164L862.47 923.434V874.804L904.47 850.424L902.26 849.144Z" fill="#D8D27A" stroke="black" stroke-width="0.25" stroke-miterlimit="10"/>
<path fill-rule="evenodd" clip-rule="evenodd" d="M862.47 874.804V923.434L904.47 899.594V850.424L862.47 874.804ZM877.02 912.484L864.65 919.604V876.274L877.02 869.184V912.474V912.484ZM885.31 907.614L881.63 909.744V867.054L885.31 864.804V907.604V907.614ZM902.28 898.204L889.91 905.334V862.004L902.28 854.914V898.204Z" fill="#F2E98F" stroke="black" stroke-width="0.25" stroke-miterlimit="10"/>
<path fill-rule="evenodd" clip-rule="evenodd" d="M929.15 739.474L971.15 715.224V860.264L929.15 882.744V739.474Z" fill="#8FB2C4" stroke="black" stroke-width="0.25" stroke-miterlimit="10"/>
<path fill-rule="evenodd" clip-rule="evenodd" d="M929.15 825.434L964.86 804.824V718.864L971.15 715.224V809.724L929.15 834.114V825.434Z" fill="#7698AA" stroke="black" stroke-width="0.25" stroke-miterlimit="10"/>
<path fill-rule="evenodd" clip-rule="evenodd" d="M971.15 809.724L929.15 834.114V882.744L931.35 884.014V835.384L973.36 810.994L971.15 809.724Z" fill="#D8D27A" stroke="black" stroke-width="0.25" stroke-miterlimit="10"/>
<path fill-rule="evenodd" clip-rule="evenodd" d="M931.35 835.384V884.014L973.35 860.174V811.004L931.35 835.384ZM945.91 873.064L933.54 880.184V836.854L945.91 829.764V873.054V873.064ZM954.2 868.194L950.52 870.324V827.634L954.2 825.384V868.184V868.194ZM971.17 858.774L958.8 865.904V822.574L971.17 815.484V858.774Z" fill="#F2E98F" stroke="black" stroke-width="0.25" stroke-miterlimit="10"/>
<path fill-rule="evenodd" clip-rule="evenodd" d="M998.04 700.054L1040.04 675.804V820.844L998.04 843.324V700.054Z" fill="#8FB2C4" stroke="black" stroke-width="0.25" stroke-miterlimit="10"/>
<path fill-rule="evenodd" clip-rule="evenodd" d="M998.04 786.014L1033.75 765.404V679.434L1040.04 675.804V770.304L998.04 794.684V786.014Z" fill="#7698AA" stroke="black" stroke-width="0.25" stroke-miterlimit="10"/>
<path fill-rule="evenodd" clip-rule="evenodd" d="M1040.04 770.304L998.04 794.684V843.324L1000.24 844.594V795.964L1042.25 771.574L1040.04 770.304Z" fill="#D8D27A" stroke="black" stroke-width="0.25" stroke-miterlimit="10"/>
<path fill-rule="evenodd" clip-rule="evenodd" d="M1000.24 795.964V844.594L1042.24 820.754V771.584L1000.24 795.964ZM1014.8 833.644L1002.43 840.764V797.434L1014.8 790.344V833.634V833.644ZM1023.08 828.774L1019.4 830.904V788.214L1023.08 785.964V828.764V828.774ZM1040.05 819.354L1027.68 826.484V783.154L1040.05 776.064V819.354Z" fill="#F2E98F" stroke="black" stroke-width="0.25" stroke-miterlimit="10"/>
<path fill-rule="evenodd" clip-rule="evenodd" d="M124.33 573.264V601.874L322.86 716.484V687.834L124.33 573.264Z" fill="#A0A0A0"/>
<mask id="mask0_5_272" style="mask-type:luminance" maskUnits="userSpaceOnUse" x="130" y="583" width="188" height="125">
<path d="M130.82 599.924L130.87 583.944L317.02 691.424L316.98 707.394L130.82 599.924Z" fill="white"/>
</mask>
<g mask="url(#mask0_5_272)">
<path d="M135.41 596.364L137.14 591.354L138.78 598.314L135.41 596.364ZM138.74 588.784L135.61 586.974L130.83 599.494L133.73 601.164L134.66 598.564L139.55 601.384L140.4 605.014L143.41 606.754L138.75 588.784" fill="#865C4D"/>
<path d="M150.54 595.304C148.87 594.344 147.49 594.174 146.41 594.804C145.16 595.524 144.54 597.224 144.53 599.884C144.53 602.354 145.07 604.604 146.15 606.654C147.24 608.694 148.74 610.264 150.65 611.364C152.2 612.254 153.46 612.464 154.46 611.994C155.45 611.524 156.06 610.524 156.3 608.994L153.55 607.404C153.36 608.084 153.12 608.544 152.84 608.764C152.33 609.204 151.59 609.144 150.62 608.584C149.65 608.024 148.88 607.154 148.27 605.944C147.66 604.744 147.35 603.284 147.36 601.564C147.37 599.844 147.66 598.704 148.25 598.104C148.84 597.514 149.63 597.494 150.64 598.084C151.65 598.674 152.38 599.414 152.88 600.374C153.17 600.904 153.39 601.594 153.57 602.424L156.35 604.024C156.31 603.054 156 601.924 155.44 600.644C154.41 598.364 152.78 596.584 150.54 595.294" fill="#865C4D"/>
<path d="M162.06 611.754L163.79 606.744L165.43 613.704L162.07 611.764M165.38 604.174L162.25 602.364L157.47 614.884L160.37 616.564L161.29 613.954L166.19 616.784L167.04 620.414L170.05 622.154L165.39 604.184" fill="#865C4D"/>
<path d="M174.43 622.014L174.46 612.054L177.02 613.534C178.28 614.264 179.13 615.164 179.55 616.234C179.96 617.314 180.17 618.624 180.17 620.174C180.17 621.294 180.02 622.194 179.74 622.844C179.22 624.024 178.3 624.244 176.99 623.484L174.43 622.004M177.49 611.154L171.78 607.854L171.74 623.104L177.45 626.404C179.46 627.564 180.95 627.474 181.91 626.124C182.62 625.124 182.99 623.614 182.99 621.594C182.99 620.784 182.91 619.904 182.74 618.914C182.58 617.934 182.27 616.934 181.8 615.914C181.23 614.644 180.48 613.564 179.55 612.674C179.01 612.154 178.32 611.644 177.5 611.154" fill="#865C4D"/>
<path d="M194.91 621.214L185.18 615.594L185.13 630.854L195.2 636.654V633.914L187.85 629.674L187.87 625.754L194.31 629.474L194.32 626.824L187.87 623.094L187.88 619.864L194.91 623.914V621.214Z" fill="#865C4D"/>
<path d="M210.19 630.044L206.2 627.744L203.77 638.354L201.39 624.964L197.35 622.634L197.31 637.884L199.9 639.374L199.93 629.054C199.93 628.754 199.93 628.334 199.93 627.804C199.93 627.264 199.92 626.844 199.93 626.554L202.39 640.794L205.08 642.354L207.63 631.004C207.63 631.294 207.63 631.704 207.61 632.234C207.61 632.754 207.61 633.174 207.61 633.474L207.58 643.794L210.17 645.284L210.21 630.034" fill="#865C4D"/>
<path d="M215.31 632.994L212.55 631.404L212.5 646.654L215.26 648.244L215.31 632.994Z" fill="#865C4D"/>
<path d="M227.71 640.154L217.97 634.534L217.93 649.784L227.99 655.594L228 652.854L220.65 648.604L220.66 644.684L227.11 648.414L227.12 645.754L220.66 642.034L220.67 638.794L227.7 642.854L227.71 640.154Z" fill="#865C4D"/>
<path d="M248.11 651.934L244.12 649.634L241.69 660.244L239.31 646.854L235.27 644.524L235.23 659.774L237.82 661.264L237.85 650.944C237.85 650.644 237.85 650.224 237.85 649.694C237.85 649.154 237.85 648.734 237.85 648.454L240.31 662.694L243 664.254L245.55 652.904C245.55 653.194 245.55 653.604 245.55 654.144C245.55 654.664 245.53 655.084 245.53 655.384L245.5 665.704L248.09 667.194L248.13 651.944" fill="#865C4D"/>
<path d="M253.23 654.884L250.47 653.294L250.43 668.544L253.19 670.144L253.23 654.884Z" fill="#865C4D"/>
<path d="M266.55 662.574L263.96 661.084L263.93 671.734L258.68 658.034L255.77 656.354L255.72 671.604L258.31 673.094L258.34 662.264L263.73 676.234L266.51 677.834L266.55 662.574Z" fill="#865C4D"/>
<path d="M278.95 669.744L269.22 664.114L269.17 679.374L279.24 685.184V682.434L271.9 678.194L271.91 674.274L278.36 677.994V675.344L271.91 671.624L271.92 668.384L278.95 672.444V669.744Z" fill="#865C4D"/>
<path d="M284.2 679.524V675.434L287.44 677.294C288.04 677.644 288.49 677.984 288.79 678.344C289.32 678.974 289.59 679.744 289.58 680.664C289.58 681.524 289.3 681.934 288.75 681.904C288.44 681.884 287.97 681.694 287.34 681.334L284.2 679.524ZM288.01 674.974L281.5 671.214L281.46 686.464L284.17 688.034L284.19 682.054L287.05 683.704C287.87 684.174 288.43 684.664 288.72 685.154C289.02 685.654 289.17 686.394 289.18 687.364L289.2 688.794C289.2 689.244 289.24 689.704 289.31 690.174C289.35 690.404 289.4 690.704 289.49 691.094L292.54 692.854V692.474C292.28 692.144 292.11 691.754 292.05 691.314C292 691.044 291.98 690.554 291.98 689.854V688.824C291.98 687.764 291.86 686.884 291.61 686.214C291.36 685.544 290.92 684.894 290.31 684.254C291.05 684.384 291.57 684.194 291.89 683.674C292.21 683.164 292.37 682.544 292.37 681.814C292.37 681.214 292.29 680.624 292.13 680.064C291.96 679.494 291.73 678.934 291.44 678.384C291.1 677.724 290.67 677.114 290.17 676.584C289.67 676.054 288.95 675.504 288.02 674.954" fill="#865C4D"/>
<path d="M305.09 684.834L302.21 683.164L299.27 693.064L296.42 679.824L293.45 678.114L297.9 695.954L300.52 697.474L305.09 684.834Z" fill="#865C4D"/>
<path d="M308.99 696.584L310.72 691.574L312.36 698.534L308.99 696.584ZM312.32 689.004L309.19 687.194L304.41 699.714L307.31 701.384L308.24 698.784L313.13 701.604L313.98 705.234L316.99 706.974L312.33 689.004" fill="#865C4D"/>
</g>
<path fill-rule="evenodd" clip-rule="evenodd" d="M565.46 576.924V605.584L596.87 587.514V558.694L565.46 576.924Z" fill="#F2E98F" stroke="black" stroke-width="0.25" stroke-miterlimit="10"/>
<path fill-rule="evenodd" clip-rule="evenodd" d="M595.42 557.634L564.01 575.864V604.524L565.46 605.584V576.924L596.87 558.694L595.42 557.634Z" fill="#D8D27A" stroke="black" stroke-width="0.25" stroke-miterlimit="10"/>
<path fill-rule="evenodd" clip-rule="evenodd" d="M629.97 466.744L661.37 448.614V519.264L629.97 537.494V466.744Z" fill="#8FB2C4" stroke="black" stroke-width="0.25" stroke-miterlimit="10"/>
<path fill-rule="evenodd" clip-rule="evenodd" d="M629.97 531.014L656.66 515.594V451.334L661.37 448.614V519.264L629.97 537.494V531.014Z" fill="#7698AA" stroke="black" stroke-width="0.25" stroke-miterlimit="10"/>
<path fill-rule="evenodd" clip-rule="evenodd" d="M631.42 538.554V567.214L662.82 549.144V520.324L631.42 538.554Z" fill="#F2E98F" stroke="black" stroke-width="0.25" stroke-miterlimit="10"/>
<path fill-rule="evenodd" clip-rule="evenodd" d="M661.37 519.264L629.97 537.494V566.154L631.42 567.214V538.554L662.82 520.324L661.37 519.264Z" fill="#D8D27A" stroke="black" stroke-width="0.25" stroke-miterlimit="10"/>
<path fill-rule="evenodd" clip-rule="evenodd" d="M499.51 614.594V643.244L530.91 625.174V596.354L499.51 614.594Z" fill="#F2E98F" stroke="black" stroke-width="0.25" stroke-miterlimit="10"/>
<path fill-rule="evenodd" clip-rule="evenodd" d="M529.46 595.294L498.06 613.524V642.184L499.51 643.244V614.594L530.91 596.354L529.46 595.294Z" fill="#D8D27A" stroke="black" stroke-width="0.25" stroke-miterlimit="10"/>
<path fill-rule="evenodd" clip-rule="evenodd" d="M695.38 587.555V473.084L819.19 544.565V659.174L695.38 587.555Z" fill="#865C4D" stroke="black" stroke-width="0.25" stroke-miterlimit="10"/>
<path fill-rule="evenodd" clip-rule="evenodd" d="M779.01 552.724V594.294L733.46 568.084V526.284L779.01 552.724Z" fill="#F2E98F" stroke="black" stroke-width="0.25" stroke-miterlimit="10"/>
<path fill-rule="evenodd" clip-rule="evenodd" d="M735.56 524.744L781.11 551.184V592.754L779.01 594.294V552.724L733.46 526.284L735.56 524.744Z" fill="#D8D27A" stroke="black" stroke-width="0.25" stroke-miterlimit="10"/>
<path fill-rule="evenodd" clip-rule="evenodd" d="M779.01 510.154V551.724L733.46 525.514V483.714L779.01 510.154Z" fill="#E5E6E1" stroke="black" stroke-width="0.25" stroke-miterlimit="10"/>
<path fill-rule="evenodd" clip-rule="evenodd" d="M735.56 482.174L781.11 508.614V550.184L779.01 551.724V510.154L733.46 483.714L735.56 482.174Z" fill="#E5E6E1" stroke="black" stroke-width="0.25" stroke-miterlimit="10"/>
<path fill-rule="evenodd" clip-rule="evenodd" d="M777.95 595.204V635.324L732.4 608.974V568.764L777.95 595.204Z" fill="#E5E6E1" stroke="black" stroke-width="0.25" stroke-miterlimit="10"/>
<path fill-rule="evenodd" clip-rule="evenodd" d="M734.51 567.214L780.06 593.664V634.414L777.95 635.324V595.204L732.4 568.764L734.51 567.214Z" fill="#E5E6E1" stroke="black" stroke-width="0.25" stroke-miterlimit="10"/>
<path fill-rule="evenodd" clip-rule="evenodd" d="M868.82 372.644L695.38 473.084L819.19 544.564L992.9 444.274L868.82 372.644Z" fill="#D9D9D7" stroke="black" stroke-width="0.25" stroke-miterlimit="10"/>
<path fill-rule="evenodd" clip-rule="evenodd" d="M867.24 378.144L704.9 472.154L820.78 539.064L983.38 445.194L867.24 378.144Z" fill="#C9C9C7" stroke="black" stroke-width="0.25" stroke-miterlimit="10"/>
<path d="M496.89 931.404L496.57 702.044" stroke="black" stroke-width="0.25" stroke-miterlimit="10"/>
<path fill-rule="evenodd" clip-rule="evenodd" d="M168.6 741.494V662.534L242.8 704.674V784.304L168.6 741.494Z" fill="#6D4A3F"/>
<path opacity="0.44" fill-rule="evenodd" clip-rule="evenodd" d="M238.55 782.184V705.554L172.85 666.834V744.274L238.55 782.184Z" fill="#8FB2C4"/>
<path fill-rule="evenodd" clip-rule="evenodd" d="M173.84 744.844V668.834L238.55 705.554L164.36 662.534V739.374L173.84 744.844Z" fill="#563A33"/>
<path fill-rule="evenodd" clip-rule="evenodd" d="M172.85 658.244L164.36 662.534L238.55 705.554L247.04 701.254L172.85 658.244Z" fill="#563A33"/>
<path fill-rule="evenodd" clip-rule="evenodd" d="M238.55 782.184V705.554L247.04 701.254V787.084L238.55 782.184Z" fill="#563A33"/>
</svg>
