<svg width="1168" height="789" viewBox="0 0 1168 789" fill="none" xmlns="http://www.w3.org/2000/svg">
<path d="M894.695 587.545V358.314L721.345 449.204V688.045" fill="#533A33"/>
<path d="M894.695 587.545V358.314L721.345 449.204V688.045" stroke="black" stroke-width="0.25" stroke-miterlimit="10"/>
<path d="M249.465 788.125L522.456 630.525V372.645L249.465 530.245V788.125Z" fill="#82584D" stroke="black" stroke-width="0.25" stroke-miterlimit="10"/>
<path d="M944.326 788.125V415.625L522.456 172.005V372.645L869.886 573.225V745.145L944.326 788.125Z" fill="#65463D" stroke="black" stroke-width="0.25" stroke-miterlimit="10"/>
<path d="M1167.68 659.185L944.326 788.125V415.625L1167.68 286.685V659.185Z" fill="#7A5448" stroke="black" stroke-width="0.25" stroke-miterlimit="10"/>
<path d="M249.465 329.595V530.175L522.456 372.575V172.005L249.465 329.595Z" fill="#82584D"/>
<path d="M671.345 0.144531L447.906 128.995L299.105 43.1245L1.1355 214.954L249.465 358.304L547.266 186.334L697.156 272.625L944.336 415.624L1167.68 286.684L671.345 0.144531Z" fill="#C6C0B9" stroke="black" stroke-width="0.25" stroke-miterlimit="10"/>
<path d="M671.566 14.9648L474.276 128.735L540.095 166.705L694.345 255.555L945.425 400.805L1141.31 286.155L671.566 14.9648Z" fill="#CDC5BA" stroke="black" stroke-width="0.25" stroke-miterlimit="10"/>
<path d="M24.2056 213.755L251.556 344.995L524.206 187.545L296.995 56.4346L24.2056 213.755Z" fill="#CDC5BA" stroke="black" stroke-width="0.25" stroke-miterlimit="10"/>
<path d="M646.896 501.595L473.186 401.405V659.275L646.896 759.485V501.595Z" fill="#65463D" stroke="black" stroke-width="0.25" stroke-miterlimit="10"/>
<path d="M721.345 458.595L646.896 501.695V759.485L721.345 716.505V458.595Z" fill="#7A5448" stroke="black" stroke-width="0.25" stroke-miterlimit="10"/>
<path d="M721.345 458.595L547.635 358.305L473.186 401.285L646.896 501.695L721.345 458.595Z" fill="#7A5448" stroke="black" stroke-width="0.25" stroke-miterlimit="10"/>
<path d="M944.336 415.624L547.266 186.334L349.105 300.775V272.084L249.465 329.594L150.056 272.604L150.215 301.005L1.1355 214.954L0.125488 386.295L249.465 530.245L547.635 358.304L944.336 587.545L1167.68 458.595V286.684L944.336 415.624Z" fill="#E4DDD2" stroke="black" stroke-width="0.25" stroke-miterlimit="10"/>
<path fill-rule="evenodd" clip-rule="evenodd" d="M0.125488 386.295V644.174L249.465 788.124V530.245L170.885 484.874L118.125 364.875L65.1155 423.805L0.125488 386.295Z" fill="#65463D" stroke="black" stroke-width="0.25" stroke-miterlimit="10"/>
<mask id="mask0_5_359" style="mask-type:luminance" maskUnits="userSpaceOnUse" x="500" y="440" width="26" height="45">
<path d="M500.095 469.665L500.176 440.435L525.505 455.065L525.426 484.295L500.095 469.665Z" fill="white"/>
</mask>
<g mask="url(#mask0_5_359)">
<path d="M512.896 447.784C505.876 443.734 500.155 446.994 500.135 455.054V455.104C501.295 455.824 502.456 456.574 503.576 457.214C503.896 457.394 504.206 457.574 504.516 457.734C506.626 458.874 508.986 459.814 509.556 458.434C509.606 457.724 508.846 456.674 508.046 455.794C507.566 455.344 507.025 454.954 506.485 454.644C505.915 454.314 505.346 454.074 504.896 453.954C504.506 453.554 504.085 452.994 503.845 452.564C505.045 452.584 506.446 452.784 508.056 453.714C508.666 454.064 509.315 454.524 509.995 455.124C511.015 455.964 511.926 457.014 512.826 458.064C513.826 458.034 514.476 457.504 514.916 456.884C515.506 455.954 514.686 454.054 513.316 452.264C512.346 450.844 511.155 449.684 509.845 448.924C509.665 448.814 509.476 448.714 509.286 448.624L508.105 448.104L507.495 446.894C508.475 446.834 509.806 447.304 511.186 448.104C512.306 448.744 513.455 449.614 514.495 450.594C516.105 452.134 517.666 454.204 518.826 455.984C519.486 455.864 520.166 455.704 520.906 455.634C518.716 452.344 515.936 449.524 512.916 447.774" fill="#EE7F00"/>
<path d="M500.176 456.324C500.706 464.134 506.146 473.164 512.806 477.004C513.926 477.654 515.016 478.104 516.056 478.394C513.086 471.764 507.736 463.114 500.816 456.854C500.606 456.674 500.396 456.494 500.176 456.324Z" fill="#EE7F00"/>
<path d="M512.775 466.874C512.775 466.874 515.735 471.044 520.525 478.474C521.915 478.054 523.085 477.184 523.945 475.934C520.475 472.564 516.615 469.574 512.775 466.874Z" fill="#EE7F00"/>
<path d="M523.825 461.294C516.935 465.084 511.125 462.864 507.045 460.904C507.045 460.904 510.595 464.194 514.405 466.404C515.105 466.804 515.815 467.174 516.505 467.474C520.555 469.244 524.115 468.414 525.465 467.774C525.235 465.644 524.665 463.444 523.815 461.304" fill="#EE7F00"/>
</g>
<path d="M547.266 186.334L349.105 300.775V272.084L249.465 329.594V358.304V530.245L547.635 358.304L547.266 186.334Z" fill="#D8D2CA" stroke="black" stroke-width="0.25" stroke-miterlimit="10"/>
<path fill-rule="evenodd" clip-rule="evenodd" d="M598.556 640.114V544.614L515.845 496.864V592.364L598.556 640.114Z" fill="#8FB2C4" stroke="black" stroke-width="0.25" stroke-miterlimit="10"/>
<path fill-rule="evenodd" clip-rule="evenodd" d="M604.235 541.305L521.526 493.555L515.845 496.865L598.556 544.615V640.115L604.235 636.805V541.305Z" fill="#7698AA" stroke="black" stroke-width="0.25" stroke-miterlimit="10"/>
<path fill-rule="evenodd" clip-rule="evenodd" d="M276.105 426.535V356.305L336.936 321.185V391.425L276.105 426.535Z" fill="#8FB2C4" stroke="black" stroke-width="0.25" stroke-miterlimit="10"/>
<path fill-rule="evenodd" clip-rule="evenodd" d="M423.135 372.645V315.595L447.906 301.285V358.305L423.135 372.645Z" fill="#A9C2CF" stroke="black" stroke-width="0.25" stroke-miterlimit="10"/>
<path fill-rule="evenodd" clip-rule="evenodd" d="M443.566 303.795V355.165L423.135 366.995V372.645L447.906 358.305V301.285L443.566 303.795Z" fill="#8EA7B5" stroke="black" stroke-width="0.25" stroke-miterlimit="10"/>
<path fill-rule="evenodd" clip-rule="evenodd" d="M574.896 717.944V660.804L522.456 630.734V687.744L574.896 717.944Z" fill="#4B352F" stroke="black" stroke-width="0.25" stroke-miterlimit="10"/>
<path fill-rule="evenodd" clip-rule="evenodd" d="M527.546 633.654L527.766 684.924L574.896 711.224V717.944L522.456 687.744V630.734L527.546 633.654Z" fill="#6D4A3F" stroke="black" stroke-width="0.25" stroke-miterlimit="10"/>
<path fill-rule="evenodd" clip-rule="evenodd" d="M427.816 595.854V503.325L467.995 480.125V572.595L427.816 595.854Z" fill="#8FB2C4" stroke="black" stroke-width="0.25" stroke-miterlimit="10"/>
<path fill-rule="evenodd" clip-rule="evenodd" d="M387.646 618.975V526.445L427.816 503.245V595.715L387.646 618.975Z" fill="#8FB2C4" stroke="black" stroke-width="0.25" stroke-miterlimit="10"/>
<path fill-rule="evenodd" clip-rule="evenodd" d="M427.816 685.355V592.825L467.995 569.635V662.105L427.816 685.355Z" fill="#8FB2C4" stroke="black" stroke-width="0.25" stroke-miterlimit="10"/>
<path fill-rule="evenodd" clip-rule="evenodd" d="M387.646 708.475V615.945L427.816 592.755V685.225L387.646 708.475Z" fill="#8FB2C4" stroke="black" stroke-width="0.25" stroke-miterlimit="10"/>
<path fill-rule="evenodd" clip-rule="evenodd" d="M467.995 480.125L460.965 484.185V567.505L427.816 586.695V595.854L460.965 576.665V657.015L427.816 676.195V685.354L467.995 662.104V572.595V480.125Z" fill="#82584D" stroke="black" stroke-width="0.25" stroke-miterlimit="10"/>
<path fill-rule="evenodd" clip-rule="evenodd" d="M427.816 595.715V503.245L420.786 507.305V590.625L387.646 609.815V618.975L420.786 599.785V680.135L387.646 699.315V708.475L427.816 685.225V595.715Z" fill="#82584D" stroke="black" stroke-width="0.25" stroke-miterlimit="10"/>
<path fill-rule="evenodd" clip-rule="evenodd" d="M463.306 349.515V292.465L488.076 278.155V335.175L463.306 349.515Z" fill="#A9C2CF" stroke="black" stroke-width="0.25" stroke-miterlimit="10"/>
<path fill-rule="evenodd" clip-rule="evenodd" d="M483.745 280.665V332.035L463.306 343.865V349.515L488.076 335.175V278.155L483.745 280.665Z" fill="#8EA7B5" stroke="black" stroke-width="0.25" stroke-miterlimit="10"/>
<path fill-rule="evenodd" clip-rule="evenodd" d="M503.485 326.384V269.334L528.255 255.024V312.044L503.485 326.384Z" fill="#A9C2CF" stroke="black" stroke-width="0.25" stroke-miterlimit="10"/>
<path fill-rule="evenodd" clip-rule="evenodd" d="M523.916 257.534V308.904L503.485 320.734V326.384L528.255 312.044V255.024L523.916 257.534Z" fill="#8EA7B5" stroke="black" stroke-width="0.25" stroke-miterlimit="10"/>
<path fill-rule="evenodd" clip-rule="evenodd" d="M615.666 356.355V283.205L583.906 264.865V337.975L615.666 356.355Z" fill="#A9C2CF" stroke="black" stroke-width="0.25" stroke-miterlimit="10"/>
<path fill-rule="evenodd" clip-rule="evenodd" d="M589.465 268.075V333.955L615.666 349.115V356.355L583.906 337.975V264.865L589.465 268.075Z" fill="#8EA7B5" stroke="black" stroke-width="0.25" stroke-miterlimit="10"/>
<path fill-rule="evenodd" clip-rule="evenodd" d="M714.936 414.295V341.145L683.166 322.805V395.915L714.936 414.295Z" fill="#A9C2CF" stroke="black" stroke-width="0.25" stroke-miterlimit="10"/>
<path fill-rule="evenodd" clip-rule="evenodd" d="M688.725 326.015V391.885L714.936 407.055V414.295L683.166 395.915V322.805L688.725 326.015Z" fill="#8EA7B5" stroke="black" stroke-width="0.25" stroke-miterlimit="10"/>
<path fill-rule="evenodd" clip-rule="evenodd" d="M814.195 472.235V399.085L782.436 380.745V453.854L814.195 472.235Z" fill="#A9C2CF" stroke="black" stroke-width="0.25" stroke-miterlimit="10"/>
<path fill-rule="evenodd" clip-rule="evenodd" d="M787.995 383.955V449.825L814.195 464.995V472.235L782.436 453.854V380.745L787.995 383.955Z" fill="#8EA7B5" stroke="black" stroke-width="0.25" stroke-miterlimit="10"/>
<path fill-rule="evenodd" clip-rule="evenodd" d="M913.466 530.175V457.025L881.706 438.685V511.795L913.466 530.175Z" fill="#A9C2CF" stroke="black" stroke-width="0.25" stroke-miterlimit="10"/>
<path fill-rule="evenodd" clip-rule="evenodd" d="M887.256 441.895V507.765L913.466 522.935V530.175L881.706 511.795V438.685L887.256 441.895Z" fill="#8EA7B5" stroke="black" stroke-width="0.25" stroke-miterlimit="10"/>
<path fill-rule="evenodd" clip-rule="evenodd" d="M271.936 353.875L332.766 318.755L336.936 321.185L276.105 356.305V426.535L271.936 424.105V353.875Z" fill="#7698AA" stroke="black" stroke-width="0.25" stroke-miterlimit="10"/>
<mask id="mask1_5_359" style="mask-type:luminance" maskUnits="userSpaceOnUse" x="530" y="456" width="90" height="80">
<path d="M530.806 484.304L530.886 456.314L619.986 507.754L619.906 535.744L530.806 484.304Z" fill="white"/>
</mask>
<g mask="url(#mask1_5_359)">
<path d="M533.216 459.324L533.996 459.774C535.496 460.644 536.176 461.824 536.166 463.224C536.166 464.574 535.566 465.164 534.026 464.284L533.176 463.794V463.094C533.176 461.814 533.176 460.544 533.216 459.324ZM534.226 459.254L533.226 458.674L532.626 458.324L530.876 457.314V457.884L532.036 458.714C532.056 459.964 532.056 461.204 532.046 462.434V463.144C532.046 464.394 532.046 465.644 532.016 466.844L530.846 466.324V466.894L531.996 467.554L533.196 468.244L534.336 468.904V468.334L533.186 467.514C533.166 466.464 533.166 465.474 533.176 464.434L533.846 464.824C536.376 466.284 537.346 465.504 537.346 463.904C537.346 462.304 536.296 460.444 534.226 459.254Z" fill="#FF8700"/>
<path d="M541.776 466.224C541.106 465.834 540.396 466.124 539.976 467.034L539.836 465.254L539.646 464.994L537.946 464.874V465.374L538.946 466.084C538.976 466.674 538.976 467.124 538.976 467.914V468.584C538.976 469.234 538.966 470.184 538.946 470.894L538.026 470.554V471.044L541.016 472.774V472.284L539.976 471.464C539.966 470.744 539.966 469.804 539.966 469.164V468.094C540.196 467.404 540.526 466.984 541.026 466.834L541.186 467.084C541.406 467.424 541.646 467.694 541.936 467.864C542.436 468.154 542.656 467.904 542.656 467.234C542.506 466.854 542.136 466.434 541.766 466.224" fill="#FF8700"/>
<path d="M544.996 468.084L543.106 467.854V468.354L544.136 469.074C544.156 469.654 544.166 470.114 544.166 470.904V471.574C544.166 472.214 544.146 473.154 544.136 473.874L543.166 473.524V474.014L546.036 475.674V475.184L545.146 474.464C545.136 473.734 545.136 472.794 545.136 472.144V470.264L545.186 468.354L544.996 468.094M544.656 464.464C544.196 464.204 543.836 464.344 543.826 464.894C543.816 465.444 544.186 466.004 544.646 466.274C545.106 466.544 545.466 466.374 545.476 465.844C545.486 465.314 545.116 464.734 544.656 464.464Z" fill="#FF8700"/>
<path d="M551.116 471.624C550.336 471.174 549.466 471.224 548.866 471.634L548.766 470.414L548.576 470.154L546.876 470.034V470.534L547.876 471.244C547.906 471.834 547.906 472.284 547.906 473.074V473.744C547.906 474.394 547.896 475.334 547.876 476.044L546.926 475.694V476.184L549.796 477.844V477.354L548.906 476.634C548.896 475.904 548.896 474.964 548.896 474.314V472.244C549.556 471.994 550.046 472.014 550.646 472.364C551.396 472.794 551.696 473.394 551.686 474.734V475.924C551.686 476.594 551.676 477.524 551.656 478.224L550.706 477.874V478.364L553.576 480.024V479.534L552.686 478.814C552.676 478.094 552.676 477.164 552.676 476.494V475.184C552.676 473.294 552.176 472.234 551.096 471.614" fill="#FF8700"/>
<path d="M556.826 474.914C555.446 474.114 554.686 474.644 554.676 475.674C554.676 476.644 555.266 477.544 556.176 478.454L556.746 479.034C557.526 479.814 557.906 480.344 557.906 480.964C557.906 481.624 557.456 481.814 556.496 481.264C556.106 481.044 555.776 480.774 555.476 480.444L555.236 479.074L554.576 478.694L554.626 480.284C555.236 480.994 555.766 481.494 556.466 481.894C558.056 482.814 558.866 482.304 558.876 481.244C558.876 480.364 558.406 479.414 557.166 478.164L556.796 477.784C555.956 476.944 555.636 476.514 555.636 475.864C555.636 475.264 556.036 475.104 556.816 475.554C557.116 475.724 557.406 475.984 557.686 476.304L557.886 477.564L558.516 477.924L558.566 476.504C558.036 475.824 557.516 475.304 556.836 474.914" fill="#FF8700"/>
<path d="M567.116 478.024C564.686 476.624 562.916 477.734 562.906 480.604C562.906 483.524 564.586 486.584 567.096 488.034C567.966 488.534 568.826 488.844 569.616 488.794L569.676 486.754L568.906 486.314L568.656 487.825C568.146 487.825 567.616 487.625 567.136 487.345C565.406 486.345 564.196 484.145 564.206 481.345C564.206 478.555 565.576 477.834 567.256 478.804C567.656 479.034 568.096 479.404 568.556 479.964L568.786 481.744L569.546 482.184L569.506 480.075C568.656 479.025 567.776 478.404 567.106 478.014" fill="#FF8700"/>
<path d="M572.416 480.294L570.506 479.834V480.334L571.536 481.064L571.516 487.354C571.516 488.124 571.506 488.894 571.486 489.644L570.476 489.274V489.764L573.536 491.524V491.034L572.526 490.244C572.516 489.474 572.506 488.704 572.516 487.924L572.536 482.494L572.586 480.494L572.416 480.274" fill="#FF8700"/>
<path d="M576.366 492.434C575.796 492.104 575.356 491.554 575.356 490.784C575.356 490.374 575.486 489.904 576.606 490.044C576.876 490.084 577.336 490.174 577.786 490.294V492.474C577.036 492.654 576.796 492.684 576.366 492.444M576.876 486.494C575.636 485.774 574.716 485.924 574.466 486.864C574.496 487.244 574.686 487.574 575.026 487.764C575.366 487.954 575.546 487.834 575.666 487.484L575.926 486.674C576.196 486.754 576.426 486.864 576.616 486.974C577.436 487.444 577.796 487.994 577.786 489.404V489.744C577.276 489.584 576.736 489.464 576.346 489.394C574.676 489.134 574.306 489.564 574.306 490.364C574.306 491.554 575.056 492.594 575.976 493.124C576.696 493.544 577.116 493.404 577.806 493.024C577.906 493.764 578.316 494.434 578.906 494.774C579.326 495.014 579.666 495.014 579.966 494.654L579.726 494.194C579.586 494.304 579.446 494.354 579.236 494.234C578.946 494.064 578.766 493.724 578.776 493.084V490.054C578.786 488.254 578.176 487.214 576.886 486.474" fill="#FF8700"/>
<path d="M585.946 491.835L584.176 490.995V491.495L585.056 492.225L585.006 496.415C584.416 496.705 583.816 496.665 583.226 496.325C582.546 495.935 582.216 495.305 582.226 494.025V491.845L582.306 489.875L582.176 489.655L580.376 488.805V489.305L581.266 490.035L581.216 493.595C581.206 495.475 581.826 496.524 582.816 497.104C583.576 497.544 584.356 497.595 585.036 497.035L585.166 498.395L586.846 499.245V498.755L585.986 498.045V494.035L586.036 492.045L585.916 491.835" fill="#FF8700"/>
<path d="M590.156 494.154C588.786 493.364 588.016 493.884 588.006 494.914C588.006 495.884 588.596 496.785 589.516 497.705L590.086 498.285C590.866 499.065 591.246 499.595 591.246 500.215C591.246 500.875 590.796 501.065 589.836 500.505C589.456 500.285 589.126 500.015 588.826 499.695L588.586 498.325L587.926 497.945L587.966 499.525C588.586 500.235 589.116 500.734 589.806 501.134C591.406 502.054 592.216 501.545 592.226 500.485C592.226 499.605 591.756 498.654 590.516 497.404L590.146 497.025C589.296 496.175 588.986 495.754 588.986 495.104C588.986 494.504 589.386 494.345 590.156 494.795C590.456 494.975 590.756 495.225 591.036 495.555L591.236 496.805L591.856 497.164L591.916 495.745C591.376 495.055 590.856 494.534 590.176 494.154" fill="#FF8700"/>
<path d="M535.066 476.724C532.636 475.324 530.866 476.454 530.856 479.314C530.856 482.234 532.536 485.294 535.046 486.744C535.926 487.254 536.786 487.554 537.576 487.514L537.626 485.464L536.866 485.024L536.616 486.534C536.106 486.534 535.586 486.344 535.106 486.064C533.376 485.064 532.156 482.854 532.166 480.064C532.166 477.274 533.536 476.554 535.216 477.524C535.616 477.754 536.056 478.124 536.516 478.684L536.746 480.464L537.516 480.904L537.466 478.784C536.626 477.754 535.736 477.094 535.066 476.714" fill="black"/>
<path d="M541.536 489.834C540.426 489.194 539.816 487.854 539.826 485.934C539.836 484.014 540.446 483.324 541.556 483.964C542.666 484.604 543.276 486.014 543.266 487.924C543.266 489.844 542.626 490.464 541.536 489.844M541.556 483.314C540.126 482.484 538.716 482.904 538.706 485.284C538.706 487.654 540.106 489.654 541.536 490.484C542.966 491.314 544.376 490.944 544.386 488.574C544.386 486.204 542.956 484.134 541.556 483.324" fill="black"/>
<path d="M549.646 487.985C548.856 487.535 547.986 487.585 547.396 487.995L547.296 486.775L547.106 486.515L545.416 486.395V486.895L546.416 487.604C546.436 488.184 546.446 488.645 546.446 489.435V490.115C546.446 490.755 546.426 491.695 546.416 492.405L545.476 492.065V492.555L548.336 494.205V493.715L547.456 492.995C547.446 492.265 547.436 491.325 547.436 490.685V488.615C548.096 488.355 548.596 488.385 549.196 488.725C549.946 489.155 550.246 489.755 550.236 491.095V492.295C550.236 492.955 550.216 493.885 550.206 494.585L549.266 494.245V494.735L552.136 496.395V495.905L551.246 495.185C551.236 494.465 551.226 493.535 551.226 492.875V491.555C551.226 489.665 550.736 488.615 549.656 487.995" fill="black"/>
<path d="M555.346 491.274C553.966 490.474 553.196 491.004 553.186 492.034C553.186 493.004 553.776 493.904 554.696 494.824L555.266 495.404C556.046 496.184 556.426 496.714 556.426 497.334C556.426 497.994 555.976 498.184 555.016 497.624C554.636 497.404 554.306 497.134 554.006 496.814L553.766 495.444L553.106 495.064L553.146 496.644C553.766 497.354 554.296 497.854 554.996 498.264C556.586 499.184 557.396 498.674 557.406 497.614C557.406 496.734 556.936 495.784 555.696 494.534L555.326 494.154C554.476 493.304 554.166 492.884 554.166 492.234C554.166 491.634 554.566 491.474 555.336 491.924C555.636 492.104 555.936 492.354 556.216 492.684L556.416 493.934L557.036 494.294L557.096 492.874C556.556 492.184 556.036 491.664 555.366 491.284" fill="black"/>
<path d="M559.556 496.644C559.706 495.074 560.536 494.925 561.256 495.335C562.046 495.785 562.636 496.885 562.636 497.705C562.636 498.105 562.496 498.345 561.896 497.995L559.556 496.644ZM561.316 494.725C559.776 493.835 558.476 494.555 558.476 496.745C558.476 498.925 559.536 500.875 561.216 501.845C562.346 502.495 563.156 502.315 563.606 501.555L563.316 501.124C562.866 501.464 562.366 501.604 561.566 501.134C560.336 500.424 559.546 499.015 559.536 497.235L563.536 499.545C563.586 499.385 563.626 499.135 563.626 498.795C563.626 497.065 562.616 495.465 561.326 494.725" fill="black"/>
<path d="M568.516 498.874C567.836 498.484 567.136 498.764 566.706 499.684L566.566 497.904L566.376 497.644L564.686 497.524V498.024L565.676 498.724C565.706 499.314 565.706 499.764 565.706 500.554V501.234C565.706 501.874 565.696 502.824 565.676 503.534L564.756 503.194V503.684L567.746 505.414V504.924L566.706 504.104C566.696 503.384 566.696 502.444 566.696 501.814V500.734C566.926 500.044 567.256 499.624 567.756 499.474L567.916 499.724C568.136 500.064 568.376 500.334 568.666 500.504C569.166 500.794 569.386 500.544 569.386 499.874C569.236 499.494 568.866 499.074 568.506 498.874" fill="black"/>
<path d="M575.766 503.254L575.336 503.004L574.666 502.624L573.406 501.894L573.396 502.424L574.436 503.234L573.006 507.054L571.466 501.494L572.596 501.964V501.424L569.606 499.704V500.234L570.296 500.774L572.536 508.264L573.056 508.564L575.096 503.594L575.766 503.794V503.254Z" fill="black"/>
<path d="M578.326 510.785C577.756 510.455 577.316 509.905 577.316 509.135C577.316 508.725 577.436 508.245 578.566 508.405C578.836 508.425 579.296 508.515 579.736 508.635V510.815C578.996 510.995 578.746 511.025 578.326 510.775M578.846 504.835C577.606 504.115 576.676 504.255 576.436 505.205C576.466 505.585 576.656 505.915 576.996 506.105C577.336 506.295 577.516 506.175 577.636 505.825L577.886 505.015C578.156 505.095 578.386 505.205 578.586 505.325C579.406 505.795 579.756 506.345 579.746 507.755V508.105C579.236 507.945 578.706 507.825 578.316 507.755C576.636 507.485 576.276 507.925 576.276 508.725C576.276 509.915 577.026 510.955 577.936 511.475C578.656 511.895 579.086 511.765 579.766 511.385C579.866 512.125 580.286 512.795 580.876 513.135C581.296 513.375 581.636 513.375 581.936 513.015L581.686 512.545C581.556 512.665 581.416 512.715 581.196 512.585C580.916 512.425 580.736 512.085 580.736 511.435V508.405C580.746 506.605 580.126 505.565 578.846 504.825" fill="black"/>
<path d="M584.296 506.225L583.576 505.805L583.266 507.545L582.156 507.075V507.685L583.206 508.285V511.685C583.196 512.245 583.176 512.535 583.176 512.875C583.176 513.985 583.716 514.805 584.566 515.305C585.196 515.665 585.706 515.685 586.016 515.415L585.726 514.865C585.406 514.955 585.156 514.935 584.886 514.775C584.466 514.535 584.186 514.055 584.186 513.305V508.854L585.916 509.845V509.104L584.226 508.125L584.316 506.215" fill="black"/>
<path d="M589.446 517.494C588.346 516.854 587.736 515.515 587.746 513.595C587.746 511.685 588.366 510.984 589.466 511.614C590.546 512.244 591.186 513.665 591.176 515.575C591.176 517.495 590.536 518.114 589.446 517.494ZM589.466 510.974C588.036 510.144 586.626 510.574 586.626 512.944C586.626 515.314 588.016 517.304 589.446 518.134C590.856 518.944 592.286 518.594 592.296 516.224C592.296 513.854 590.876 511.794 589.466 510.974Z" fill="black"/>
<path d="M597.156 515.414C596.476 515.024 595.776 515.304 595.346 516.224L595.206 514.444L595.016 514.184L593.326 514.064V514.564L594.316 515.264C594.346 515.854 594.346 516.304 594.346 517.094V517.774C594.346 518.414 594.336 519.364 594.316 520.074L593.396 519.734V520.224L596.386 521.954V521.464L595.346 520.644C595.336 519.924 595.336 518.984 595.336 518.354V517.274C595.566 516.584 595.896 516.164 596.396 516.014L596.556 516.264C596.776 516.604 597.016 516.874 597.306 517.044C597.806 517.334 598.026 517.084 598.026 516.414C597.876 516.034 597.506 515.614 597.146 515.414" fill="black"/>
<path d="M600.366 517.264L598.486 517.034V517.534L599.506 518.254C599.536 518.844 599.536 519.294 599.536 520.084V520.764C599.536 521.404 599.526 522.344 599.506 523.054L598.546 522.704V523.194L601.406 524.844V524.354L600.516 523.634C600.506 522.904 600.506 521.964 600.506 521.324V519.434L600.556 517.524L600.366 517.264ZM600.026 513.644C599.566 513.384 599.206 513.524 599.196 514.074C599.186 514.624 599.556 515.184 600.016 515.454C600.476 515.724 600.836 515.554 600.846 515.024C600.846 514.474 600.496 513.914 600.026 513.644Z" fill="black"/>
<path d="M607.696 521.604L605.916 520.764V521.264L606.806 521.994L606.756 526.184C606.166 526.474 605.566 526.434 604.976 526.094C604.286 525.694 603.966 525.074 603.976 523.794V521.614L604.046 519.634L603.926 519.424L602.126 518.574V519.074L603.016 519.804L602.966 523.364C602.956 525.244 603.566 526.294 604.566 526.874C605.326 527.314 606.106 527.364 606.786 526.804L606.916 528.164L608.596 529.014V528.524L607.736 527.814V523.804L607.786 521.814L607.666 521.604" fill="black"/>
<path d="M617.436 527.124C616.626 526.654 615.796 526.634 615.166 527.154C614.956 526.094 614.476 525.414 613.696 524.964C612.916 524.514 612.086 524.584 611.496 525.004L611.396 523.784L611.206 523.524L609.516 523.404V523.904L610.506 524.604C610.536 525.194 610.536 525.644 610.536 526.434V527.114C610.536 527.754 610.526 528.694 610.506 529.404L609.566 529.064V529.554L612.426 531.204V530.714L611.536 529.994C611.526 529.264 611.526 528.324 611.526 527.684V525.604C612.176 525.344 612.646 525.364 613.226 525.694C613.976 526.124 614.276 526.724 614.266 528.064V529.264C614.266 529.924 614.256 530.854 614.236 531.554L613.286 531.204V531.694L616.156 533.354V532.864L615.266 532.144C615.256 531.424 615.256 530.494 615.256 529.834V528.514C615.256 528.244 615.256 528.004 615.236 527.764C615.906 527.474 616.406 527.524 616.946 527.834C617.686 528.264 618.006 528.834 618.006 530.174V531.414C618.006 532.074 617.986 533.004 617.976 533.704L617.036 533.364V533.854L619.906 535.514V535.024L619.016 534.304C619.006 533.584 618.996 532.654 618.996 531.994V530.514C618.996 528.744 618.426 527.684 617.426 527.114" fill="black"/>
</g>
<path d="M249.465 214.925L349.105 272.085L249.465 329.595L150.056 272.605L249.465 214.925Z" fill="#CDC5BA" stroke="black" stroke-width="0.25" stroke-miterlimit="10"/>
<path d="M1167.68 458.595L944.336 587.545L944.326 415.625L1167.68 286.685V458.595Z" fill="#D6CEC3" stroke="black" stroke-width="0.25" stroke-miterlimit="10"/>
</svg>
