<svg width="1366" height="876" viewBox="0 0 1366 876" fill="none" xmlns="http://www.w3.org/2000/svg">
<path d="M240.917 206.07L843.906 559.49V760.24L240.917 401.729V206.07Z" fill="#7FA6B8" stroke="black" stroke-width="0.25" stroke-miterlimit="10"/>
<path d="M1067.26 115.32V73.6194L783.547 237.56V279.259L1067.26 115.32Z" fill="#7FA6B8"/>
<path d="M619.866 632.419V441.739" stroke="#D1E3DA" stroke-width="0.25" stroke-miterlimit="10"/>
<path d="M595.247 617.26V426.589" stroke="#D1E3DA" stroke-width="0.25" stroke-miterlimit="10"/>
<path d="M570.626 603.109V412.43" stroke="#D1E3DA" stroke-width="0.25" stroke-miterlimit="10"/>
<path d="M546.006 587.96L546.016 397.279" stroke="#D1E3DA" stroke-width="0.25" stroke-miterlimit="10"/>
<path d="M521.386 573.799L521.396 383.129" stroke="#D1E3DA" stroke-width="0.25" stroke-miterlimit="10"/>
<path d="M496.767 559.649L496.777 368.969" stroke="#D1E3DA" stroke-width="0.25" stroke-miterlimit="10"/>
<path d="M472.146 545.5L472.156 354.82" stroke="#D1E3DA" stroke-width="0.25" stroke-miterlimit="10"/>
<path d="M447.526 530.339L447.536 339.669" stroke="#D1E3DA" stroke-width="0.25" stroke-miterlimit="10"/>
<path d="M421.117 510.399V319.719" stroke="#D1E3DA" stroke-width="0.25" stroke-miterlimit="10"/>
<path d="M396.497 495.239V304.57" stroke="#D1E3DA" stroke-width="0.25" stroke-miterlimit="10"/>
<path d="M371.877 481.089L371.887 290.409" stroke="#D1E3DA" stroke-width="0.25" stroke-miterlimit="10"/>
<path d="M347.257 465.94L347.267 275.259" stroke="#D1E3DA" stroke-width="0.25" stroke-miterlimit="10"/>
<path d="M322.637 451.779L322.647 261.109" stroke="#D1E3DA" stroke-width="0.25" stroke-miterlimit="10"/>
<path d="M298.017 437.629L298.027 246.95" stroke="#D1E3DA" stroke-width="0.25" stroke-miterlimit="10"/>
<path d="M273.396 423.479L273.406 232.799" stroke="#D1E3DA" stroke-width="0.25" stroke-miterlimit="10"/>
<path d="M248.787 408.32V217.649" stroke="#D1E3DA" stroke-width="0.25" stroke-miterlimit="10"/>
<path d="M397.447 344.379L620.707 473.339" stroke="#D1E3DA" stroke-width="0.25" stroke-miterlimit="10"/>
<path d="M397.447 372.959L620.707 501.909" stroke="#D1E3DA" stroke-width="0.25" stroke-miterlimit="10"/>
<path d="M397.447 401.529L620.707 530.489" stroke="#D1E3DA" stroke-width="0.25" stroke-miterlimit="10"/>
<path d="M397.447 430.109L620.707 559.069" stroke="#D1E3DA" stroke-width="0.25" stroke-miterlimit="10"/>
<path d="M397.447 458.69L620.707 587.639" stroke="#D1E3DA" stroke-width="0.25" stroke-miterlimit="10"/>
<path d="M397.447 487.259L620.707 616.22" stroke="#D1E3DA" stroke-width="0.25" stroke-miterlimit="10"/>
<path d="M240.917 253.779L397.327 344.119" stroke="#D1E3DA" stroke-width="0.25" stroke-miterlimit="10"/>
<path d="M223.547 272.32L397.327 372.7" stroke="#D1E3DA" stroke-width="0.25" stroke-miterlimit="10"/>
<path d="M174.067 272.32L397.327 401.279" stroke="#D1E3DA" stroke-width="0.25" stroke-miterlimit="10"/>
<path d="M174.067 300.899L397.327 429.859" stroke="#D1E3DA" stroke-width="0.25" stroke-miterlimit="10"/>
<path d="M174.067 329.479L397.327 458.43" stroke="#D1E3DA" stroke-width="0.25" stroke-miterlimit="10"/>
<path d="M174.067 358.049L397.327 487.009" stroke="#D1E3DA" stroke-width="0.25" stroke-miterlimit="10"/>
<path d="M843.906 760.24V559.49L1067.26 430.549V631.119L843.906 760.24Z" fill="#7FA6B8" stroke="black" stroke-width="0.25" stroke-miterlimit="10"/>
<path d="M1067.26 473.589L843.987 602.549" stroke="#D1E3DA" stroke-width="0.25" stroke-miterlimit="10"/>
<path d="M1067.26 502.169L843.987 631.119" stroke="#D1E3DA" stroke-width="0.25" stroke-miterlimit="10"/>
<path d="M1067.26 100.409L814.237 246.549" stroke="#D1E3DA" stroke-width="0.25" stroke-miterlimit="10"/>
<path d="M1067.26 530.739L843.987 659.7" stroke="#D1E3DA" stroke-width="0.25" stroke-miterlimit="10"/>
<path d="M1067.26 559.319L843.987 688.279" stroke="#D1E3DA" stroke-width="0.25" stroke-miterlimit="10"/>
<path d="M1067.26 587.899L843.987 716.849" stroke="#D1E3DA" stroke-width="0.25" stroke-miterlimit="10"/>
<path d="M1067.26 616.47L843.987 745.43" stroke="#D1E3DA" stroke-width="0.25" stroke-miterlimit="10"/>
<path d="M868.527 747.019L868.517 556.349" stroke="#D1E3DA" stroke-width="0.25" stroke-miterlimit="10"/>
<path d="M893.146 731.869L893.136 541.19" stroke="#D1E3DA" stroke-width="0.25" stroke-miterlimit="10"/>
<path d="M917.767 717.72L917.757 527.039" stroke="#D1E3DA" stroke-width="0.25" stroke-miterlimit="10"/>
<path d="M942.376 702.569V511.889" stroke="#D1E3DA" stroke-width="0.25" stroke-miterlimit="10"/>
<path d="M966.997 688.409V497.729" stroke="#D1E3DA" stroke-width="0.25" stroke-miterlimit="10"/>
<path d="M991.616 674.26V483.579" stroke="#D1E3DA" stroke-width="0.25" stroke-miterlimit="10"/>
<path d="M1016.24 660.109L1016.23 469.43" stroke="#D1E3DA" stroke-width="0.25" stroke-miterlimit="10"/>
<path d="M1040.86 644.95L1040.85 454.279" stroke="#D1E3DA" stroke-width="0.25" stroke-miterlimit="10"/>
<path d="M827.396 402.19L827.386 211.519" stroke="#D1E3DA" stroke-width="0.25" stroke-miterlimit="10"/>
<path d="M852.017 387.039L852.007 196.359" stroke="#D1E3DA" stroke-width="0.25" stroke-miterlimit="10"/>
<path d="M876.626 372.889V182.209" stroke="#D1E3DA" stroke-width="0.25" stroke-miterlimit="10"/>
<path d="M901.247 357.729V167.06" stroke="#D1E3DA" stroke-width="0.25" stroke-miterlimit="10"/>
<path d="M925.866 343.579V152.899" stroke="#D1E3DA" stroke-width="0.25" stroke-miterlimit="10"/>
<path d="M950.487 329.43V138.749" stroke="#D1E3DA" stroke-width="0.25" stroke-miterlimit="10"/>
<path d="M975.106 315.279L975.096 124.599" stroke="#D1E3DA" stroke-width="0.25" stroke-miterlimit="10"/>
<path d="M999.727 300.119L999.717 109.44" stroke="#D1E3DA" stroke-width="0.25" stroke-miterlimit="10"/>
<path d="M1025.55 285.129L1025.54 94.4495" stroke="#D1E3DA" stroke-width="0.25" stroke-miterlimit="10"/>
<path d="M1050.17 269.969L1050.16 79.2995" stroke="#D1E3DA" stroke-width="0.25" stroke-miterlimit="10"/>
<path d="M620.646 473.589L843.906 602.549" stroke="#D1E3DA" stroke-width="0.25" stroke-miterlimit="10"/>
<path d="M620.646 502.169L843.906 631.119" stroke="#D1E3DA" stroke-width="0.25" stroke-miterlimit="10"/>
<path d="M620.646 530.739L843.906 659.7" stroke="#D1E3DA" stroke-width="0.25" stroke-miterlimit="10"/>
<path d="M620.646 559.319L843.906 688.279" stroke="#D1E3DA" stroke-width="0.25" stroke-miterlimit="10"/>
<path d="M620.646 587.899L843.906 716.849" stroke="#D1E3DA" stroke-width="0.25" stroke-miterlimit="10"/>
<path d="M620.646 616.47L843.906 745.43" stroke="#D1E3DA" stroke-width="0.25" stroke-miterlimit="10"/>
<path d="M819.507 745.51L819.517 554.829" stroke="#D1E3DA" stroke-width="0.25" stroke-miterlimit="10"/>
<path d="M794.896 730.359V539.68" stroke="#D1E3DA" stroke-width="0.25" stroke-miterlimit="10"/>
<path d="M770.277 716.2V525.529" stroke="#D1E3DA" stroke-width="0.25" stroke-miterlimit="10"/>
<path d="M745.656 701.049V510.369" stroke="#D1E3DA" stroke-width="0.25" stroke-miterlimit="10"/>
<path d="M721.037 686.899V496.219" stroke="#D1E3DA" stroke-width="0.25" stroke-miterlimit="10"/>
<path d="M696.417 672.74L696.427 482.07" stroke="#D1E3DA" stroke-width="0.25" stroke-miterlimit="10"/>
<path d="M671.797 658.589L671.807 467.909" stroke="#D1E3DA" stroke-width="0.25" stroke-miterlimit="10"/>
<path d="M647.177 643.44L647.187 452.759" stroke="#D1E3DA" stroke-width="0.25" stroke-miterlimit="10"/>
<path d="M1323.8 225.139L1340.24 215.639C1340.24 215.639 1363.89 226.789 1365.06 252.999C1366.22 279.209 1365.06 459.19 1365.06 459.19L1067.26 631.109V373.329L1287.48 246.19" fill="#D8D8D6"/>
<path d="M1323.8 225.139L1340.24 215.639C1340.24 215.639 1363.89 226.789 1365.06 252.999C1366.22 279.209 1365.06 459.19 1365.06 459.19L1067.26 631.109V373.329L1287.48 246.19" stroke="black" stroke-width="0.25" stroke-miterlimit="10"/>
<path fill-rule="evenodd" clip-rule="evenodd" d="M1279.07 250.68C1313.15 254.41 1303.66 307.819 1303.89 369.519C1304.03 407.429 1303.67 454.409 1303.67 494.359L1340.47 473.399C1340.47 433.459 1340.95 385.779 1340.81 347.869C1340.59 286.169 1350.07 232.759 1315.99 229.029L1279.07 250.68Z" fill="#C3C1C2" stroke="#8E8A95" stroke-width="0.25" stroke-miterlimit="10"/>
<path fill-rule="evenodd" clip-rule="evenodd" d="M1215.68 287.289C1249.76 291.019 1240.27 344.429 1240.5 406.129C1240.64 444.039 1240.28 491.019 1240.28 530.969L1277.25 509.889C1277.25 469.949 1277.56 422.379 1277.42 384.479C1277.2 322.779 1286.68 269.369 1252.6 265.639L1215.68 287.289Z" fill="#C3C1C2" stroke="#8E8A95" stroke-width="0.25" stroke-miterlimit="10"/>
<path fill-rule="evenodd" clip-rule="evenodd" d="M1152.29 323.909C1186.37 327.639 1176.88 381.049 1177.11 442.749C1177.25 480.659 1176.89 527.639 1176.89 567.589L1213.84 546.51C1213.84 506.57 1214.17 459.009 1214.04 421.099C1213.82 359.399 1223.3 305.989 1189.22 302.259L1152.3 323.909H1152.29Z" fill="#C3C1C2" stroke="#8E8A95" stroke-width="0.25" stroke-miterlimit="10"/>
<path fill-rule="evenodd" clip-rule="evenodd" d="M1088.9 360.519C1122.98 364.249 1113.49 417.659 1113.72 479.359C1113.86 517.269 1113.5 564.25 1113.5 604.2L1150.5 583.069C1150.5 543.129 1150.78 495.619 1150.64 457.709C1150.42 396.009 1159.9 342.599 1125.82 338.869L1088.9 360.519Z" fill="#C3C1C2" stroke="#8E8A95" stroke-width="0.25" stroke-miterlimit="10"/>
<path d="M1139.88 99.9695L1340.24 215.639L1067.26 373.339L843.906 244.3L1093.9 99.9795C1108.13 91.7695 1125.65 91.7695 1139.88 99.9795V99.9695Z" fill="#E7E5E3" stroke="black" stroke-width="0.25" stroke-miterlimit="10"/>
<path d="M843.906 244.299L1067.26 373.339V416.609L843.906 288.2V244.299Z" fill="#C2BCB7" stroke="black" stroke-width="0.25" stroke-miterlimit="10"/>
<path d="M753.447 585.23L771.376 575.119C771.376 575.119 795.636 591.339 796.326 607.059C797.026 622.779 796.326 762.21 796.326 762.21L597.797 875.75L598.177 675.389L734.497 596.48L753.437 585.24L753.447 585.23Z" fill="#D8D8D6" stroke="black" stroke-width="0.25" stroke-miterlimit="10"/>
<path fill-rule="evenodd" clip-rule="evenodd" d="M698.937 617.049C725.437 619.949 718.067 661.49 718.237 709.47C718.347 738.95 718.067 775.489 718.067 806.559L746.797 790.169C746.797 759.099 747.057 722.119 746.947 692.629C746.777 644.639 754.146 603.1 727.646 600.21L698.937 617.049Z" fill="#C3C1C2" stroke="#8E8A95" stroke-width="0.25" stroke-miterlimit="10"/>
<path fill-rule="evenodd" clip-rule="evenodd" d="M649.646 645.519C676.146 648.419 668.777 689.96 668.947 737.94C669.057 767.42 668.777 803.959 668.777 835.029L697.547 818.599C697.547 787.529 697.766 750.579 697.656 721.099C697.486 673.109 704.856 631.57 678.356 628.68L649.646 645.519Z" fill="#C3C1C2" stroke="#8E8A95" stroke-width="0.25" stroke-miterlimit="10"/>
<path d="M149.047 616.799L363.217 494.589L360.447 337.279L149.266 459.2L149.047 616.799Z" fill="#D8D8D6" stroke="black" stroke-width="0.25" stroke-miterlimit="10"/>
<path d="M447.047 731.69L198.886 588.419V377.759L447.047 524.299V731.69Z" fill="#7FA6B8" stroke="black" stroke-width="0.25" stroke-miterlimit="10"/>
<path d="M12.9666 339.899L169.307 251.69C182.917 244.01 199.587 244.1 213.107 251.94L360.437 337.28L186.097 437.93L12.9565 339.889L12.9666 339.899Z" fill="#E7E5E3" stroke="black" stroke-width="0.25" stroke-miterlimit="10"/>
<path d="M540.116 441.269L365.257 540.97L598.177 675.379L771.376 575.109L540.116 441.269Z" fill="#E7E5E3" stroke="black" stroke-width="0.25" stroke-miterlimit="10"/>
<path d="M0.146537 530.829L149.047 616.789V416.609L21.3766 342.55L17.5666 340.339C12.9666 337.669 6.20664 343.29 3.12664 346.81C-0.323361 350.74 0.146537 358.82 0.146537 361.55V530.839V530.829Z" fill="#C8C0B9" stroke="black" stroke-width="0.25" stroke-miterlimit="10"/>
<path d="M655.997 308.469L819.366 215.259L817.247 95.2695L656.177 188.269L655.997 308.469Z" fill="#D8D8D6" stroke="black" stroke-width="0.25" stroke-miterlimit="10"/>
<path d="M504.937 123.94L671.457 29.9895C681.837 24.1295 694.546 24.1995 704.866 30.1795L817.247 95.2695L633.567 201.32L504.937 123.94Z" fill="#E7E5E3" stroke="black" stroke-width="0.25" stroke-miterlimit="10"/>
<path fill-rule="evenodd" clip-rule="evenodd" d="M104.546 390.859C78.0465 393.759 85.4166 435.299 85.2466 483.279C85.1366 512.759 85.4165 549.299 85.4165 580.369L56.6465 563.94C56.6465 532.87 56.4265 495.92 56.5365 466.44C56.7065 418.45 49.3365 376.909 75.8365 374.019L104.546 390.859Z" fill="#C3C1C2" stroke="#8E8A95" stroke-width="0.25" stroke-miterlimit="10"/>
<path d="M166.097 413.019L389.367 541.98" stroke="#D1E3DA" stroke-width="0.25" stroke-miterlimit="10"/>
<path d="M166.097 441.599L389.367 570.559" stroke="#D1E3DA" stroke-width="0.25" stroke-miterlimit="10"/>
<path d="M166.097 470.18L389.367 599.129" stroke="#D1E3DA" stroke-width="0.25" stroke-miterlimit="10"/>
<path d="M166.097 498.749L389.367 627.71" stroke="#D1E3DA" stroke-width="0.25" stroke-miterlimit="10"/>
<path d="M166.097 527.329L389.367 656.289" stroke="#D1E3DA" stroke-width="0.25" stroke-miterlimit="10"/>
<path d="M166.097 555.909L389.367 684.869" stroke="#D1E3DA" stroke-width="0.25" stroke-miterlimit="10"/>
<path d="M363.896 684.95V494.269" stroke="#D1E3DA" stroke-width="0.25" stroke-miterlimit="10"/>
<path d="M339.276 669.789V479.119" stroke="#D1E3DA" stroke-width="0.25" stroke-miterlimit="10"/>
<path d="M314.656 655.639L314.667 464.959" stroke="#D1E3DA" stroke-width="0.25" stroke-miterlimit="10"/>
<path d="M290.037 640.49L290.047 449.81" stroke="#D1E3DA" stroke-width="0.25" stroke-miterlimit="10"/>
<path d="M265.417 626.339L265.427 435.659" stroke="#D1E3DA" stroke-width="0.25" stroke-miterlimit="10"/>
<path d="M240.796 612.18L240.806 421.499" stroke="#D1E3DA" stroke-width="0.25" stroke-miterlimit="10"/>
<path d="M216.187 598.029V407.349" stroke="#D1E3DA" stroke-width="0.25" stroke-miterlimit="10"/>
<path d="M191.567 582.879V392.2" stroke="#D1E3DA" stroke-width="0.25" stroke-miterlimit="10"/>
<path d="M597.797 875.74L598.177 675.379L365.257 540.97V741.49L597.797 875.74Z" fill="#C2BCB7" stroke="black" stroke-width="0.25" stroke-miterlimit="10"/>
<path d="M365.257 689.879L597.797 824.129V875.74L365.257 741.49V689.879Z" fill="#D8D8D6"/>
<path d="M376.376 702.109L580.636 820.039V859.51L376.376 741.579V702.109Z" fill="#7FA6B8"/>
<path d="M376.656 711.69L542.726 807.619" stroke="#D1E3DA" stroke-width="0.25" stroke-miterlimit="10"/>
<path d="M376.376 734.099L542.726 830.19" stroke="#D1E3DA" stroke-width="0.25" stroke-miterlimit="10"/>
<path d="M542.716 807.539L580.736 829.5" stroke="#D1E3DA" stroke-width="0.25" stroke-miterlimit="10"/>
<path d="M542.716 830.109L580.636 852.019" stroke="#D1E3DA" stroke-width="0.25" stroke-miterlimit="10"/>
<path d="M522.616 826.01V786.539" stroke="#D1E3DA" stroke-width="0.25" stroke-miterlimit="10"/>
<path d="M503.167 814.779V775.309" stroke="#D1E3DA" stroke-width="0.25" stroke-miterlimit="10"/>
<path d="M483.727 803.559V764.079" stroke="#D1E3DA" stroke-width="0.25" stroke-miterlimit="10"/>
<path d="M464.276 792.329V752.859" stroke="#D1E3DA" stroke-width="0.25" stroke-miterlimit="10"/>
<path d="M444.826 780.809L444.836 741.629" stroke="#D1E3DA" stroke-width="0.25" stroke-miterlimit="10"/>
<path d="M425.386 769.879V730.409" stroke="#D1E3DA" stroke-width="0.25" stroke-miterlimit="10"/>
<path d="M405.937 758.649V719.18" stroke="#D1E3DA" stroke-width="0.25" stroke-miterlimit="10"/>
<path d="M386.497 747.43V707.95" stroke="#D1E3DA" stroke-width="0.25" stroke-miterlimit="10"/>
<path d="M542.716 837.619V798.139" stroke="#D1E3DA" stroke-width="0.25" stroke-miterlimit="10"/>
<path d="M562.167 849.24V809.769" stroke="#D1E3DA" stroke-width="0.25" stroke-miterlimit="10"/>
<path d="M251.766 594.579L230.766 606.579L291.177 641.45L311.317 629.95L251.766 594.579Z" fill="#D8D8D6" stroke="black" stroke-width="0.25" stroke-miterlimit="10"/>
<path d="M230.766 610.089V606.579L291.177 641.45V645.7L230.766 610.089Z" fill="#8B8E8F" stroke="black" stroke-width="0.25" stroke-miterlimit="10"/>
<path d="M225.097 612.559L291.177 651.45V655.26L225.097 616.24V612.559Z" fill="#8B8E8F" stroke="black" stroke-width="0.25" stroke-miterlimit="10"/>
<path d="M218.987 623.019V618.98L291.177 660.97V664.7L218.987 623.019Z" fill="#8B8E8F" stroke="black" stroke-width="0.25" stroke-miterlimit="10"/>
<path d="M284.957 666.98L213.437 625.399V628.849L282.197 669.139C282.757 668.129 283.677 667.32 284.957 666.98Z" fill="#8B8E8F" stroke="black" stroke-width="0.25" stroke-miterlimit="10"/>
<path d="M277.737 672.51L207.617 631.629V634.96L274.656 674.329C274.776 674.239 277.647 672.57 277.737 672.51Z" fill="#8B8E8F" stroke="black" stroke-width="0.25" stroke-miterlimit="10"/>
<path d="M269.327 677.46L202.026 637.769V641.45L266.237 679.23C268.267 678.07 266.987 678.81 269.337 677.46H269.327Z" fill="#8B8E8F" stroke="black" stroke-width="0.25" stroke-miterlimit="10"/>
<path d="M225.097 612.559L230.766 610.089L291.177 645.7V651.45L225.097 612.559Z" fill="#D8D8D6" stroke="black" stroke-width="0.25" stroke-miterlimit="10"/>
<path d="M218.987 618.98L225.097 616.24L291.177 655.26V660.97L218.987 618.98Z" fill="#D8D8D6" stroke="black" stroke-width="0.25" stroke-miterlimit="10"/>
<path d="M287.187 662.399L218.987 623.029L213.447 625.409L285.047 667.039C284.927 665.249 285.647 663.399 287.187 662.399Z" fill="#D8D8D6" stroke="black" stroke-width="0.25" stroke-miterlimit="10"/>
<path d="M281.097 668.5L213.447 628.849L207.737 631.7L277.567 672.409C277.867 670.599 279.047 668.96 281.097 668.49V668.5Z" fill="#D8D8D6" stroke="black" stroke-width="0.25" stroke-miterlimit="10"/>
<path d="M272.896 674.829C273.086 674.829 273.277 674.839 273.447 674.859C273.667 674.789 273.896 674.72 274.146 674.69C274.306 674.57 274.456 674.439 274.636 674.339L207.727 635.039L202.016 637.779L268.757 677.129C269.517 675.799 270.896 674.839 272.886 674.839L272.896 674.829Z" fill="#D8D8D6" stroke="black" stroke-width="0.25" stroke-miterlimit="10"/>
<path d="M311.317 629.95L291.177 641.45V646.809L287.057 649.019L286.977 652.93L281.786 655.5V659.279L276.526 662.079L276.567 665.839L271.477 668.859V672.47L265.937 675.45L266.237 679.23L311.317 653.45V629.95Z" fill="#8B8E8F" stroke="black" stroke-width="0.25" stroke-miterlimit="10"/>
<path d="M317.636 543.389L317.167 710.5L314.257 708.819L314.727 541.71L317.636 543.389Z" fill="black"/>
<path d="M314.726 541.71L314.256 708.819L311.356 710.5L311.836 543.389L314.726 541.71Z" fill="black"/>
<path d="M314.747 545.279L314.276 712.389L311.007 710.5L311.477 543.389L314.747 545.279Z" fill="black"/>
<path d="M314.746 545.069L314.266 712.18L311.356 710.5L311.836 543.389L314.746 545.069Z" fill="#898989"/>
<path d="M314.717 541.51L317.987 543.399L314.747 545.279L311.477 543.389L314.717 541.51ZM314.747 545.069L317.636 543.389L314.727 541.71L311.837 543.389L314.747 545.069Z" fill="black"/>
<path d="M317.636 543.389L314.746 545.069L311.836 543.389L314.726 541.71L317.636 543.389Z" fill="#DCDCDC"/>
<path d="M317.986 543.399L317.516 710.5L314.276 712.389L314.746 545.279L317.986 543.399Z" fill="black"/>
<path d="M317.637 543.389L317.167 710.5L314.267 712.18L314.747 545.069L317.637 543.389Z" fill="#C5C5C5"/>
<path d="M154.406 449.269L153.927 616.379L151.016 614.7L151.487 447.589L154.406 449.269Z" fill="black"/>
<path d="M151.487 447.589L151.016 614.7L148.127 616.379L148.597 449.269L151.487 447.589Z" fill="black"/>
<path d="M151.507 451.159L151.036 618.269L147.766 616.379L148.247 449.269L151.507 451.159Z" fill="black"/>
<path d="M151.507 450.95L151.036 618.059L148.127 616.379L148.597 449.269L151.507 450.95Z" fill="#898989"/>
<path d="M151.487 447.389L154.757 449.279L151.516 451.159L148.247 449.269L151.487 447.389ZM151.507 450.95L154.396 449.269L151.487 447.589L148.597 449.269L151.507 450.95Z" fill="black"/>
<path d="M154.406 449.269L151.507 450.95L148.597 449.269L151.487 447.589L154.406 449.269Z" fill="#DCDCDC"/>
<path d="M154.757 449.279L154.276 616.379L151.036 618.269L151.507 451.159L154.757 449.279Z" fill="black"/>
<path d="M154.406 449.269L153.927 616.379L151.036 618.059L151.507 450.95L154.406 449.269Z" fill="#C5C5C5"/>
<path d="M201.117 424.419L200.646 591.519L197.737 589.839L198.207 422.729L201.117 424.419Z" fill="black"/>
<path d="M198.207 422.729L197.737 589.839L194.847 591.519L195.317 424.419L198.207 422.729Z" fill="black"/>
<path d="M198.227 426.299L197.757 593.409L194.487 591.519L194.957 424.419L198.227 426.299Z" fill="black"/>
<path d="M198.227 426.099L197.757 593.2L194.847 591.519L195.317 424.419L198.227 426.099Z" fill="#898989"/>
<path d="M198.197 422.529L201.467 424.419L198.227 426.299L194.957 424.409L198.197 422.529ZM198.227 426.099L201.117 424.419L198.207 422.739L195.317 424.419L198.227 426.099Z" fill="black"/>
<path d="M201.117 424.419L198.227 426.099L195.317 424.419L198.207 422.729L201.117 424.419Z" fill="#DCDCDC"/>
<path d="M201.467 424.419L200.997 591.529L197.757 593.409L198.227 426.299L201.467 424.419Z" fill="black"/>
<path d="M201.117 424.419L200.646 591.519L197.757 593.2L198.227 426.099L201.117 424.419Z" fill="#C5C5C5"/>
<path d="M363.587 516.419L363.117 683.529L360.207 681.849L360.677 514.739L363.587 516.419Z" fill="black"/>
<path d="M360.677 514.739L360.207 681.849L357.307 683.529L357.787 516.419L360.677 514.739Z" fill="black"/>
<path d="M360.697 518.31L360.227 685.419L356.957 683.529L357.427 516.419L360.697 518.31Z" fill="black"/>
<path d="M360.697 518.109L360.217 685.21L357.307 683.529L357.787 516.419L360.697 518.109Z" fill="#898989"/>
<path d="M360.667 514.539L363.937 516.43L360.697 518.31L357.427 516.419L360.667 514.539ZM360.697 518.109L363.587 516.43L360.677 514.749L357.786 516.43L360.697 518.109Z" fill="black"/>
<path d="M363.587 516.419L360.697 518.109L357.787 516.419L360.677 514.739L363.587 516.419Z" fill="#DCDCDC"/>
<path d="M363.937 516.43L363.467 683.539L360.227 685.419L360.697 518.31L363.937 516.43Z" fill="black"/>
<path d="M363.587 516.419L363.117 683.529L360.217 685.21L360.697 518.109L363.587 516.419Z" fill="#C5C5C5"/>
<path d="M743.447 507.769L828.067 578.539L828.336 568.93L747.307 502.869L743.447 507.769Z" fill="#AFC4C0" stroke="black" stroke-width="0.25" stroke-miterlimit="10"/>
<path d="M1100.81 411.339L828.336 568.93L747.307 502.869L991.616 364.849L1100.81 411.339Z" fill="#C7D9D5" stroke="black" stroke-width="0.25" stroke-miterlimit="10"/>
<path d="M1100.81 421.229L828.156 578.639L828.336 568.93L1100.81 411.339V421.229Z" fill="#AFC4C0" stroke="black" stroke-width="0.25" stroke-miterlimit="10"/>
<path opacity="0.44" d="M760.636 513.739L841.356 463.389L870.947 464.739L1011.95 373.82L1003.7 369.739L868.227 452.879L839.086 453.779L754.356 508.619L760.636 513.739Z" fill="#7F969B"/>
<path d="M661.297 485.359L720.646 511.31L837.576 440.969L869.317 438.369L1030.33 337.599L1031.49 352.669L871.927 453.31L840.497 455.19L722.567 528.359L661.297 500.049V485.359Z" fill="#AFC4C0" stroke="black" stroke-width="0.25" stroke-miterlimit="10"/>
<path d="M670.187 489.529L938.086 312.709L1030.33 337.599L869.317 438.369L837.576 440.969L720.646 511.31L670.187 489.529Z" fill="#C7D9D5" stroke="black" stroke-width="0.25" stroke-miterlimit="10"/>
<path opacity="0.44" d="M679.187 493.409L793.917 421.839L823.517 423.2L978.106 323.509L969.636 321.229L820.787 411.339L791.656 412.239L670.187 489.529L679.187 493.409Z" fill="#7F969B"/>
<path d="M602.616 449.529L666.297 477.369L790.086 400.119L819.667 398.93L970.287 306.989L969.586 322.279L821.606 413.089L792.636 413.709L666.547 491.779L602.596 464.269L602.616 449.529Z" fill="#AFC4C0" stroke="black" stroke-width="0.25" stroke-miterlimit="10"/>
<path d="M609.826 452.989L879.846 282.739L970.287 306.989L819.667 398.93L790.086 400.119L666.297 477.369L609.826 452.989Z" fill="#C7D9D5" stroke="black" stroke-width="0.25" stroke-miterlimit="10"/>
<path opacity="0.44" d="M617.366 455.979L744.987 378.129H776.116L913.557 291.7L905.086 289.509L775.537 366.18L743.267 368.229L606.447 451.2L617.366 455.979Z" fill="#7F969B"/>
<path d="M546.307 414.389L607.116 440.969L740.417 359.989L772.346 357.19L913.557 270.159L911.697 285.469L773.017 370.379L741.336 372.43L607.376 455.389L545.336 428.7L546.307 414.389Z" fill="#AFC4C0" stroke="black" stroke-width="0.25" stroke-miterlimit="10"/>
<path d="M551.336 416.279L808.447 250.32L913.557 270.159L772.346 357.19L740.417 359.989L607.116 440.969L551.336 416.279Z" fill="#C7D9D5" stroke="black" stroke-width="0.25" stroke-miterlimit="10"/>
<path opacity="0.44" d="M560.346 420.299L684.717 342.839L716.346 340.139L850.257 257.799L842.156 254.889L714.727 330.859L683.037 332.909L549.586 415.539L560.346 420.299Z" fill="#7F969B"/>
<path d="M496.477 378.539L750.567 211.659L843.906 244.299L715.797 318.419L683.866 321.209L550.567 402.19L496.477 378.539Z" fill="#C7D9D5" stroke="black" stroke-width="0.25" stroke-miterlimit="10"/>
<path d="M496.477 378.539L550.567 402.19L683.866 321.209L715.797 318.419L843.906 244.299V255.639L716.477 331.599L684.787 333.659L550.826 416.609L496.477 393.229V378.539Z" fill="#AFC4C0" stroke="black" stroke-width="0.25" stroke-miterlimit="10"/>
<path opacity="0.44" d="M507.616 383.129L631.987 305.659L663.606 302.959L797.517 220.619L789.417 217.719L661.987 293.68L630.297 295.739L496.846 378.359L507.616 383.129Z" fill="#7F969B"/>
<path d="M438.477 335.249L493.596 364.849L625.086 286.999L659.326 282.739L783.547 209.45V223.879L656.247 300.089L624.846 303.019L493.876 381.279L438.477 350.979V335.249Z" fill="#AFC4C0" stroke="black" stroke-width="0.25" stroke-miterlimit="10"/>
<path d="M437.296 334.81L670.186 201.32L783.547 209.45L659.326 282.739L625.086 286.999L493.596 364.849L437.296 334.81Z" fill="#C7D9D5" stroke="black" stroke-width="0.25" stroke-miterlimit="10"/>
<path d="M783.547 221.999L1081.23 50.1395V66.1194L783.547 237.56V221.999Z" fill="#AFC4C0" stroke="black" stroke-width="0.25" stroke-miterlimit="10"/>
<path d="M670.187 201.32L943.167 73.6194L1081.23 50.1395L783.547 221.999L670.187 201.32Z" fill="#C7D9D5" stroke="black" stroke-width="0.25" stroke-miterlimit="10"/>
<path d="M858.567 0.159485L943.167 73.6194L670.187 201.32L620.557 172.659L858.567 0.159485Z" fill="#C7D9D5" stroke="black" stroke-width="0.25" stroke-miterlimit="10"/>
<path fill-rule="evenodd" clip-rule="evenodd" d="M489.227 58.0695L216.127 215.649L371.886 290.409L593.437 167.68L489.227 58.0695Z" fill="#C7D9D5" stroke="black" stroke-width="0.25" stroke-miterlimit="10"/>
<path fill-rule="evenodd" clip-rule="evenodd" d="M216.127 225.539L388.497 305.289L375.107 291.959L216.127 215.649V225.539Z" fill="#AFC4C0" stroke="black" stroke-width="0.25" stroke-miterlimit="10"/>
<path d="M388.497 305.289V288.2L327.807 237.509V252.529L388.497 305.289Z" fill="#AFC4C0" stroke="black" stroke-width="0.25" stroke-miterlimit="10"/>
<path d="M593.437 167.68L521.297 123.94L327.807 237.509L388.497 288.2L593.437 167.68Z" fill="#C7D9D5" stroke="black" stroke-width="0.25" stroke-miterlimit="10"/>
<path d="M388.497 305.289V288.2L438.477 335.249V351.119L388.497 305.289Z" fill="#AFC4C0" stroke="black" stroke-width="0.25" stroke-miterlimit="10"/>
<path d="M670.187 201.32L602.596 162.289L388.497 288.2L438.477 335.249L670.187 201.32Z" fill="#C7D9D5" stroke="black" stroke-width="0.25" stroke-miterlimit="10"/>
<path d="M315.367 588.339L198.677 540.419L197.977 548.839L315.367 595.75V588.339Z" fill="#AFC4C0" stroke="black" stroke-width="0.25" stroke-miterlimit="10"/>
<path d="M526.377 409.999V419.739L315.367 595.75V588.339L526.377 409.999Z" fill="#AFC4C0" stroke="black" stroke-width="0.25" stroke-miterlimit="10"/>
<path d="M430.317 377.759L526.376 409.999L315.367 588.339L198.677 540.419L177.757 524.299L430.317 377.759Z" fill="#C7D9D5" stroke="black" stroke-width="0.25" stroke-miterlimit="10"/>
<path d="M177.757 524.299L94.7865 427.769L388.497 345.639L430.317 377.759L177.757 524.299Z" fill="#C7D9D5" stroke="black" stroke-width="0.25" stroke-miterlimit="10"/>
<path d="M177.757 524.299V532.829L197.977 548.839L198.677 540.419L177.757 524.299Z" fill="#AFC4C0" stroke="black" stroke-width="0.25" stroke-miterlimit="10"/>
<path d="M177.757 532.829L89.3566 431.57L94.7865 427.769L177.757 524.299V532.829Z" fill="#AFC4C0" stroke="black" stroke-width="0.25" stroke-miterlimit="10"/>
<path d="M198.677 540.419L430.317 377.759" stroke="black" stroke-width="0.25" stroke-miterlimit="10"/>
<mask id="mask0_1_374" style="mask-type:luminance" maskUnits="userSpaceOnUse" x="386" y="592" width="192" height="119">
<path d="M386.276 599.96L386.296 592.619L577.297 702.889L577.276 710.23L386.276 599.96Z" fill="white"/>
</mask>
<g mask="url(#mask0_1_374)">
<path d="M396.326 598.589L395.656 598.2L395.056 597.849L394.026 597.25V597.75L394.886 598.369L393.586 602.22L392.206 596.819L393.196 597.269V596.769L392.016 596.089L391.306 595.68L390.196 595.039V595.539L391.116 596.18L389.676 599.93L388.486 594.649L389.366 595.059V594.559L386.306 592.789V593.289L387.066 593.809L388.936 601.359L389.656 601.779L391.266 597.549L392.916 603.659L393.646 604.079L395.476 598.72L396.326 599.079V598.579" fill="#D48900"/>
<path d="M399.986 600.69L396.816 598.859V599.359L397.696 599.96C397.706 600.86 397.706 601.759 397.706 602.639V603.099C397.706 603.999 397.706 604.9 397.676 605.76L396.796 605.339V605.839L397.666 606.339L399.096 607.169L399.966 607.68V607.18L399.076 606.569C399.066 605.669 399.066 604.769 399.066 603.879V603.43C399.066 602.53 399.066 601.639 399.096 600.769L399.986 601.19V600.69Z" fill="#D48900"/>
<path d="M404.016 603.019L400.806 601.169V601.669L401.686 602.269C401.696 603.159 401.696 604.06 401.696 604.95V605.519C401.696 606.319 401.696 607.199 401.666 608.069L400.786 607.649V608.149L401.656 608.649L402.376 609.059L406.126 611.23L406.236 609.269L405.496 608.839L405.196 610.129L403.076 608.899C403.056 607.999 403.066 607.119 403.066 606.369V605.72C403.066 604.83 403.066 603.939 403.096 603.059L404.026 603.5V603" fill="#D48900"/>
<path d="M410.066 606.519L406.856 604.669V605.169L407.746 605.779C407.756 606.669 407.756 607.57 407.756 608.46V609.029C407.756 609.829 407.756 610.709 407.726 611.579L406.836 611.159V611.659L407.706 612.159L408.416 612.569L412.176 614.74L412.286 612.769L411.546 612.339L411.246 613.629L409.126 612.399C409.106 611.499 409.116 610.619 409.116 609.869V609.22C409.116 608.33 409.116 607.439 409.146 606.559L410.076 607V606.5" fill="#D48900"/>
<path d="M418.226 611.23L417.246 610.669L415.226 609.5L414.506 609.089L412.926 608.18V608.68L413.806 609.279C413.816 610.179 413.816 611.08 413.816 611.96V612.419C413.816 613.319 413.816 614.219 413.786 615.079L412.906 614.659V615.159L413.776 615.659L414.496 616.069L418.426 618.339L418.506 616.539L417.776 616.119L417.546 617.279L415.206 615.93C415.186 615.03 415.196 614.129 415.196 613.169L416.556 613.96L416.686 614.94L417.226 615.25V612.869L416.686 612.559L416.546 613.399L415.186 612.619C415.186 611.759 415.186 610.899 415.216 610.069L417.356 611.299L417.576 612.71L418.306 613.129L418.236 611.24" fill="#D48900"/>
<path d="M427.856 616.779L427.006 616.289L426.136 615.779L425.506 615.419L423.556 619.549L421.516 613.119L420.636 612.609H420.626L419.176 611.769V612.269L420.116 612.919L420.096 618.669L419.116 618.23V618.73L420.096 619.299L420.706 619.649L421.566 620.149V619.649L420.706 619.019V616.059L420.666 613.96L422.866 620.899L423.526 621.279L425.626 616.839L425.606 619.319C425.606 620.119 425.606 620.999 425.586 621.869L424.756 621.49V621.99L425.576 622.46L426.996 623.279L427.866 623.779V623.279L426.986 622.68C426.976 621.78 426.976 620.89 426.976 620V619.539C426.976 618.649 426.976 617.749 427.006 616.879L427.866 617.289V616.789" fill="#D48900"/>
<path d="M431.266 622.69L428.687 621.2V622.01L431.266 623.5V622.69Z" fill="#D48900"/>
<path d="M433.606 624.399L434.586 622.039L435.536 625.519L433.606 624.409M435.426 621.129L434.566 620.629L432.356 625.76L431.486 625.389V625.889L432.136 626.269L432.696 626.589L433.826 627.24V626.74L432.906 626.079L433.416 624.849L435.706 626.169L436.206 628.019L435.276 627.599V628.079L438.316 629.839V629.359L437.596 628.849L435.416 621.129" fill="#D48900"/>
<path d="M442.036 624.97L438.816 623.109V623.609L439.706 624.22C439.716 625.11 439.716 626.009 439.716 626.899V627.47C439.716 628.27 439.716 629.149 439.686 630.019L438.796 629.599V630.099L439.666 630.609L440.386 631.019L444.136 633.19L444.246 631.22L443.516 630.799L443.206 632.079L441.086 630.849C441.066 629.949 441.076 629.069 441.076 628.319V627.669C441.076 626.779 441.076 625.89 441.106 625.01L442.036 625.45V624.95" fill="#D48900"/>
<path d="M450.186 629.68L449.206 629.109L447.186 627.94L446.466 627.529L444.886 626.619V627.119L445.766 627.72C445.786 628.62 445.776 629.519 445.776 630.399V630.859C445.776 631.759 445.776 632.659 445.746 633.519L444.866 633.099V633.599L445.736 634.099L446.456 634.51L450.386 636.779L450.466 634.98L449.736 634.559L449.506 635.72L447.166 634.369C447.146 633.469 447.156 632.569 447.156 631.609L448.516 632.399L448.646 633.379L449.186 633.69V631.309L448.646 631L448.506 631.839L447.146 631.059C447.146 630.199 447.146 629.34 447.176 628.51L449.316 629.74L449.536 631.149L450.266 631.569L450.206 629.68" fill="#D48900"/>
<path d="M457.206 633.73L456.726 633.46L456.036 633.059L454.906 632.399V632.899L455.676 633.44L454.426 634.76L453.226 632.019L454.016 632.389V631.889L450.896 630.089V630.589L451.726 631.159L453.536 635.289L451.716 636.97L450.806 636.539V637.039L451.316 637.339L452.016 637.74L453.136 638.379V637.889L452.386 637.369L453.816 635.94L455.136 638.95L454.276 638.539L454.266 639.039L457.476 640.889V640.389L456.656 639.829L454.716 635.409L456.346 633.829L457.206 634.23V633.73Z" fill="#D48900"/>
<path d="M459.757 639.5L460.737 637.139L461.677 640.609L459.747 639.5M461.586 636.23L460.727 635.73L458.516 640.859L457.646 640.48V640.98L458.307 641.359L458.867 641.68L459.997 642.329V641.829L459.077 641.169L459.587 639.94L461.876 641.26L462.376 643.109L461.457 642.7V643.18L464.497 644.94V644.46L463.777 643.95L461.596 636.23" fill="#D48900"/>
<path d="M471.896 642.22L469.247 640.69V641.18L470.406 641.98L470.396 646.119L466.937 639.349L464.957 638.21V638.71L465.697 639.21L465.817 639.46L465.807 645.069L464.906 644.68L464.896 645.18L465.807 645.7L466.406 646.039L467.557 646.71V646.21L466.406 645.409L466.417 640.629L470.366 648.379L470.987 648.74V647.299L471.007 642.329L471.896 642.71V642.22Z" fill="#D48900"/>
<path d="M474.846 644.47L475.507 644.849C476.877 645.639 477.697 647.139 477.687 649.059C477.677 650.979 476.857 651.53 475.427 650.71L474.826 650.359C474.806 649.439 474.817 648.519 474.817 647.539V647.169C474.817 646.259 474.816 645.35 474.846 644.47ZM475.677 644.399L474.856 643.93L474.136 643.519L472.557 642.609V643.109L473.437 643.71C473.457 644.61 473.447 645.509 473.447 646.389V646.769C473.447 647.739 473.447 648.64 473.417 649.51L472.537 649.089V649.589L473.406 650.089L474.126 650.5L475.457 651.269C477.627 652.519 479.146 652.139 479.156 649.899C479.166 647.659 477.797 645.619 475.677 644.389" fill="#D48900"/>
<path d="M485.036 649.799L484.056 649.23L482.036 648.059L481.326 647.649L479.736 646.73V647.23L480.626 647.839C480.636 648.739 480.636 649.639 480.636 650.519V650.98C480.636 651.88 480.636 652.779 480.606 653.639L479.716 653.22V653.72L480.586 654.23L481.306 654.639L485.236 656.909L485.316 655.109L484.586 654.69L484.356 655.849L482.016 654.5C481.996 653.6 482.006 652.7 482.006 651.74L483.376 652.529L483.496 653.5L484.036 653.809V651.43L483.496 651.119L483.366 651.96L482.006 651.169C482.006 650.309 482.006 649.449 482.036 648.619L484.176 649.849L484.396 651.26L485.126 651.68L485.066 649.789" fill="#D48900"/>
<path d="M488.307 652.24L488.987 652.629C489.967 653.189 490.427 653.909 490.427 654.779C490.427 655.539 489.986 655.899 488.896 655.269L488.287 654.919C488.287 653.969 488.287 653.1 488.317 652.25M489.207 652.21L488.317 651.7L487.616 651.289L486.037 650.379V650.879L486.917 651.48C486.927 652.38 486.927 653.279 486.927 654.159V654.619C486.927 655.519 486.926 656.419 486.896 657.279L486.017 656.859V657.359L486.886 657.859L488.307 658.68L489.187 659.19V658.69L488.297 658.079C488.287 657.219 488.287 656.35 488.287 655.44L488.737 655.7C489.487 656.13 489.817 656.559 489.967 657.419L490.277 659.069C490.387 659.789 490.797 660.24 491.567 660.68C491.967 660.91 492.177 660.999 492.527 661.109V660.609L491.717 660.049L491.396 658.49C491.196 657.47 490.837 656.799 489.947 656.139C491.247 656.669 491.777 656.23 491.777 655.47C491.777 654.34 490.847 653.13 489.217 652.18" fill="#D48900"/>
<path d="M497.997 657.11C496.527 656.26 495.507 656.43 495.507 657.67C495.507 658.79 496.226 659.83 497.386 660.99L497.807 661.42C498.577 662.18 498.917 662.659 498.917 663.279C498.917 663.969 498.387 664.11 497.507 663.61C497.087 663.36 496.767 663.109 496.437 662.769L496.227 661.38L495.427 660.92L495.356 662.41C495.896 663.06 496.727 663.75 497.517 664.21C499.137 665.15 500.136 664.9 500.136 663.66C500.136 662.63 499.597 661.72 498.237 660.36L497.787 659.91C497.087 659.22 496.707 658.659 496.707 658.049C496.707 657.369 497.267 657.29 497.977 657.7C498.267 657.87 498.507 658.059 498.757 658.319L498.967 659.66L499.767 660.12L499.846 658.74C499.366 658.12 498.717 657.54 497.987 657.12" fill="#D48900"/>
<path d="M503.156 660.809L503.606 661.069C504.696 661.699 505.236 662.559 505.236 663.549C505.236 664.539 504.756 664.919 503.646 664.279L503.136 663.99V663.519C503.136 662.609 503.136 661.699 503.156 660.809ZM503.716 660.589L503.166 660.269L502.456 659.859L500.866 658.94V659.44L501.756 660.049C501.766 660.949 501.766 661.85 501.766 662.73V663.19C501.766 664.09 501.766 664.989 501.736 665.849L500.846 665.43V665.93L501.716 666.44L503.136 667.26L504.086 667.809V667.309L503.126 666.649C503.126 665.909 503.126 665.199 503.126 664.519L503.556 664.769C505.776 666.049 506.566 665.519 506.566 664.329C506.566 663.079 505.686 661.729 503.716 660.589Z" fill="#D48900"/>
<path d="M510.517 671.119C509.257 670.389 508.737 668.65 508.737 666.98C508.737 665.31 509.267 664.169 510.537 664.899C511.807 665.629 512.317 667.379 512.317 669.039C512.317 670.699 511.787 671.839 510.517 671.109M510.537 664.339C508.867 663.369 507.247 663.749 507.247 666.119C507.247 668.489 508.837 670.709 510.517 671.679C512.197 672.649 513.797 672.269 513.807 669.899C513.817 667.529 512.217 665.299 510.547 664.329" fill="#D48900"/>
<path d="M516.707 668.639L517.386 669.029C518.356 669.589 518.827 670.309 518.817 671.169C518.817 671.929 518.387 672.289 517.297 671.659L516.677 671.299C516.677 670.349 516.677 669.479 516.707 668.629M517.616 668.609L516.727 668.099L516.027 667.7L514.437 666.779V667.279L515.326 667.889C515.336 668.789 515.336 669.689 515.336 670.569V671.029C515.336 671.929 515.337 672.83 515.307 673.69L514.417 673.269V673.769L515.287 674.279L516.697 675.089L517.586 675.599V675.099L516.687 674.48C516.677 673.62 516.677 672.749 516.677 671.839L517.126 672.099C517.876 672.529 518.196 672.949 518.356 673.819L518.656 675.46C518.766 676.18 519.177 676.629 519.957 677.079C520.357 677.309 520.567 677.39 520.917 677.51V677.01L520.106 676.45L519.787 674.889C519.587 673.859 519.226 673.199 518.336 672.539C519.626 673.069 520.167 672.629 520.167 671.869C520.167 670.739 519.236 669.529 517.606 668.579" fill="#D48900"/>
<path d="M526.886 673.96L525.906 673.399L520.916 670.519L520.846 672.409L521.586 672.839L521.806 671.609L523.196 672.409C523.216 673.319 523.206 674.229 523.206 675.119V675.579C523.206 676.479 523.206 677.37 523.176 678.23L522.186 677.76V678.26L523.166 678.819L524.596 679.649L525.576 680.21V679.71L524.586 679.039C524.576 678.139 524.576 677.249 524.576 676.359V675.909C524.576 674.999 524.576 674.1 524.606 673.22L525.996 674.019L526.206 675.5L526.936 675.919L526.886 673.96Z" fill="#D48900"/>
<path d="M531.076 676.209C529.066 675.049 527.436 675.479 527.426 677.779C527.416 680.079 528.946 682.329 531.026 683.529C531.846 684.009 532.586 684.25 533.196 684.26L533.236 682.709L532.516 682.289L532.266 683.429C531.906 683.389 531.536 683.259 531.186 683.049C529.906 682.309 528.916 680.729 528.926 678.629C528.936 676.529 530.006 676.129 531.276 676.869C531.576 677.039 531.876 677.289 532.196 677.639L532.446 679.079L533.166 679.5L533.136 677.889C532.466 677.129 531.776 676.589 531.086 676.189" fill="#D48900"/>
<path d="M539.326 681.139L538.346 680.579L536.326 679.409L535.606 679L534.026 678.089V678.589L534.906 679.19C534.916 680.09 534.916 680.989 534.916 681.869V682.329C534.916 683.229 534.916 684.13 534.886 684.99L534.006 684.569V685.069L534.876 685.569L535.596 685.98L539.526 688.25L539.606 686.45L538.876 686.029L538.646 687.19L536.306 685.839C536.286 684.939 536.296 684.039 536.296 683.079L537.656 683.869L537.786 684.849L538.326 685.159V682.779L537.786 682.47L537.646 683.309L536.286 682.529C536.286 681.669 536.286 680.81 536.316 679.98L538.456 681.21L538.676 682.619L539.406 683.039L539.336 681.149" fill="#D48900"/>
<path d="M547.246 685.72L544.606 684.19L544.596 684.69L545.756 685.49L545.746 689.629L542.296 682.859L540.306 681.71V682.21L541.046 682.72L541.166 682.97L541.156 688.579L540.256 688.19V688.69L541.156 689.2L541.756 689.549L542.906 690.22V689.72L541.756 688.909L541.766 684.139L545.716 691.879L546.336 692.24L546.346 690.799L546.356 685.829L547.246 686.22V685.72Z" fill="#D48900"/>
<path d="M553.846 689.529L552.866 688.97L547.876 686.089L547.816 687.98L548.546 688.399L548.766 687.169L550.156 687.97C550.176 688.88 550.166 689.79 550.166 690.68V691.139C550.166 692.039 550.166 692.929 550.136 693.799L549.146 693.329V693.829L550.126 694.389L551.556 695.22L552.536 695.779V695.279L551.546 694.609C551.536 693.709 551.536 692.82 551.536 691.93V691.48C551.536 690.57 551.536 689.669 551.566 688.789L552.956 689.589L553.166 691.069L553.896 691.49L553.846 689.529Z" fill="#D48900"/>
<path d="M556.797 691.779L557.477 692.169C558.457 692.729 558.917 693.449 558.917 694.319C558.917 695.079 558.476 695.439 557.396 694.809L556.777 694.45C556.777 693.5 556.777 692.629 556.807 691.779M557.697 691.75L556.807 691.24L556.106 690.839L554.517 689.919V690.419L555.406 691.029C555.416 691.929 555.417 692.83 555.417 693.71V694.169C555.417 695.069 555.416 695.969 555.386 696.829L554.497 696.409V696.909L555.366 697.419L556.777 698.23L557.667 698.74V698.24L556.767 697.619C556.757 696.759 556.757 695.89 556.757 694.98L557.207 695.24C557.957 695.67 558.277 696.09 558.427 696.96L558.737 698.609C558.847 699.329 559.257 699.78 560.037 700.23C560.437 700.46 560.647 700.539 560.997 700.659V700.159L560.187 699.599L559.866 698.039C559.666 697.009 559.306 696.35 558.406 695.69C559.706 696.22 560.237 695.779 560.237 695.019C560.237 693.889 559.307 692.68 557.677 691.73" fill="#D48900"/>
<path d="M568.047 697.73L567.156 697.21L566.547 696.859L565.527 696.269V696.769L566.537 697.47V700.779C566.527 702.519 565.936 702.83 564.856 702.21C563.776 701.59 563.227 700.7 563.237 698.99V698.169C563.237 697.299 563.237 696.419 563.267 695.569L564.247 696.029V695.529L561.057 693.69V694.19L561.876 694.75C561.896 695.64 561.886 696.519 561.886 697.389V698.529C561.886 700.529 562.957 701.959 564.497 702.849C566.037 703.739 567.136 703.489 567.146 701.269V697.799L568.047 698.22V697.72" fill="#D48900"/>
<path d="M577.276 703.059L576.416 702.569L575.546 702.069L574.916 701.71L572.966 705.839L570.936 699.409L570.046 698.899H570.036L568.596 698.059V698.559L569.526 699.21L569.506 704.96L568.526 704.529V705.029L569.506 705.589L570.116 705.94L570.986 706.44V705.94L570.116 705.309V702.349L570.076 700.25L572.276 707.19L572.936 707.569L575.046 703.119L575.026 705.619C575.026 706.419 575.026 707.299 574.996 708.169L574.156 707.779V708.279L574.976 708.76L576.386 709.569L577.256 710.079V709.579L576.366 708.97C576.356 708.07 576.356 707.179 576.356 706.289V705.829C576.356 704.939 576.356 704.039 576.386 703.169L577.256 703.579V703.079" fill="#D48900"/>
</g>
<mask id="mask1_1_374" style="mask-type:luminance" maskUnits="userSpaceOnUse" x="382" y="628" width="22" height="38">
<path d="M382.336 652.98L382.406 628.97L403.296 641.029L403.236 665.039L382.336 652.98Z" fill="white"/>
</mask>
<g mask="url(#mask1_1_374)">
<path d="M392.856 635.21C387.196 631.94 382.566 634.579 382.546 641.079C382.526 647.579 387.126 655.539 392.786 658.809C398.446 662.079 403.066 659.45 403.086 652.94C403.106 646.43 398.516 638.48 392.856 635.21Z" fill="#7FA6B8"/>
<path d="M392.786 658.809C387.126 655.539 382.526 647.589 382.546 641.079C382.566 634.569 387.186 631.939 392.856 635.209C398.516 638.479 403.106 646.429 403.086 652.939C403.066 659.449 398.446 662.079 392.786 658.809ZM392.856 634.999C387.086 631.669 382.386 634.349 382.366 640.979C382.346 647.609 387.016 655.689 392.786 659.019C398.546 662.339 403.246 659.669 403.266 653.049C403.286 646.429 398.616 638.329 392.856 635.009" fill="black"/>
</g>
<mask id="mask2_1_374" style="mask-type:luminance" maskUnits="userSpaceOnUse" x="382" y="631" width="19" height="33">
<path d="M382.396 653L382.457 631.359L400.427 641.73L400.367 663.369L382.396 653Z" fill="white"/>
</mask>
<g mask="url(#mask2_1_374)">
<path d="M385.976 634.329C383.826 635.329 382.626 637.739 382.616 641.099C382.596 647.609 387.186 655.549 392.846 658.819C395.296 660.239 397.616 660.589 399.466 659.859C397.856 660.039 396.036 659.57 394.146 658.48C388.376 655.15 383.706 647.06 383.726 640.44C383.726 637.73 384.526 635.599 385.976 634.329Z" fill="#E3ECE9"/>
<path d="M392.846 658.819C387.186 655.549 382.596 647.599 382.616 641.099C382.616 637.749 383.836 635.329 385.976 634.329C384.526 635.599 383.736 637.73 383.726 640.44C383.706 647.06 388.376 655.15 394.146 658.48C396.036 659.57 397.856 660.039 399.466 659.859C397.606 660.599 395.296 660.239 392.846 658.819ZM386.686 633.809C383.986 634.539 382.436 637.17 382.426 641C382.406 647.62 387.076 655.709 392.836 659.029C395.696 660.679 398.366 660.92 400.366 659.69L400.256 659.48C398.466 659.97 396.346 659.549 394.136 658.279C388.476 655.009 383.876 647.059 383.896 640.549C383.896 637.479 384.936 635.169 386.796 634.019L386.686 633.809Z" fill="black"/>
</g>
<mask id="mask3_1_374" style="mask-type:luminance" maskUnits="userSpaceOnUse" x="417" y="651" width="22" height="37">
<path d="M417.876 675.529L417.946 651.519L438.846 663.589L438.776 687.599L417.876 675.529Z" fill="white"/>
</mask>
<g mask="url(#mask3_1_374)">
<path d="M428.396 657.759C422.736 654.489 418.106 657.119 418.086 663.629C418.066 670.139 422.666 678.099 428.326 681.369C433.986 684.639 438.616 681.999 438.636 675.499C438.656 668.999 434.056 661.039 428.396 657.769" fill="#7FA6B8"/>
<path d="M428.326 681.359C422.666 678.089 418.066 670.129 418.086 663.619C418.106 657.109 422.726 654.479 428.396 657.749C434.056 661.019 438.656 668.969 438.636 675.479C438.616 681.989 433.996 684.619 428.326 681.349M428.396 657.559C422.626 654.229 417.926 656.909 417.906 663.529C417.886 670.149 422.556 678.249 428.326 681.569C434.096 684.889 438.786 682.219 438.806 675.589C438.826 668.959 434.156 660.879 428.396 657.559Z" fill="black"/>
</g>
<mask id="mask4_1_374" style="mask-type:luminance" maskUnits="userSpaceOnUse" x="417" y="653" width="19" height="33">
<path d="M417.937 675.549L417.997 653.909L435.967 664.279L435.906 685.919L417.937 675.549Z" fill="white"/>
</mask>
<g mask="url(#mask4_1_374)">
<path d="M421.516 656.879C419.366 657.879 418.166 660.289 418.156 663.649C418.136 670.159 422.726 678.109 428.386 681.379C430.836 682.799 433.156 683.149 435.006 682.419C433.396 682.599 431.576 682.129 429.686 681.039C423.916 677.709 419.246 669.62 419.266 663C419.266 660.3 420.066 658.169 421.516 656.889" fill="#E3ECE9"/>
<path d="M428.386 681.369C422.726 678.099 418.136 670.149 418.156 663.639C418.156 660.289 419.376 657.879 421.516 656.869C420.066 658.149 419.276 660.28 419.266 662.98C419.246 669.6 423.916 677.699 429.686 681.019C431.576 682.109 433.396 682.579 435.006 682.399C433.146 683.139 430.836 682.779 428.386 681.359M422.226 656.349C419.536 657.089 417.976 659.719 417.966 663.539C417.946 670.159 422.616 678.259 428.376 681.579C431.236 683.229 433.906 683.47 435.906 682.24L435.796 682.019C434.006 682.509 431.886 682.099 429.676 680.829C424.016 677.559 419.416 669.599 419.436 663.089C419.436 660.029 420.476 657.719 422.336 656.569L422.226 656.349Z" fill="black"/>
</g>
<mask id="mask5_1_374" style="mask-type:luminance" maskUnits="userSpaceOnUse" x="453" y="674" width="22" height="37">
<path d="M453.417 698.079L453.487 674.069L474.386 686.139L474.317 710.139L453.417 698.079Z" fill="white"/>
</mask>
<g mask="url(#mask5_1_374)">
<path d="M463.936 680.309C458.276 677.039 453.647 679.68 453.627 686.18C453.607 692.68 458.206 700.649 463.866 703.919C469.526 707.189 474.156 704.549 474.176 698.049C474.196 691.539 469.596 683.579 463.936 680.309Z" fill="#7FA6B8"/>
<path d="M463.866 703.919C458.206 700.649 453.606 692.689 453.626 686.179C453.646 679.669 458.266 677.039 463.936 680.309C469.596 683.579 474.196 691.539 474.176 698.049C474.156 704.559 469.536 707.189 463.866 703.919ZM463.936 680.109C458.176 676.789 453.466 679.459 453.446 686.079C453.426 692.699 458.106 700.789 463.866 704.119C469.626 707.439 474.326 704.769 474.346 698.149C474.366 691.529 469.696 683.439 463.936 680.119" fill="black"/>
</g>
<mask id="mask6_1_374" style="mask-type:luminance" maskUnits="userSpaceOnUse" x="453" y="676" width="19" height="33">
<path d="M453.477 698.099L453.536 676.46L471.507 686.829L471.447 708.47L453.477 698.099Z" fill="white"/>
</mask>
<g mask="url(#mask6_1_374)">
<path d="M457.056 679.43C454.916 680.43 453.706 682.84 453.696 686.2C453.676 692.71 458.266 700.66 463.926 703.93C466.376 705.35 468.696 705.7 470.546 704.97C468.936 705.15 467.116 704.669 465.226 703.579C459.456 700.249 454.786 692.159 454.806 685.539C454.806 682.829 455.606 680.7 457.056 679.43Z" fill="#E3ECE9"/>
<path d="M463.926 703.93C458.266 700.66 453.676 692.71 453.696 686.2C453.696 682.85 454.926 680.43 457.056 679.43C455.606 680.7 454.816 682.829 454.806 685.539C454.786 692.159 459.457 700.249 465.227 703.579C467.117 704.669 468.937 705.15 470.547 704.97C468.687 705.7 466.376 705.35 463.926 703.93ZM457.776 678.899C455.086 679.639 453.526 682.259 453.516 686.089C453.496 692.709 458.166 700.799 463.926 704.119C466.786 705.769 469.456 706.009 471.456 704.789L471.346 704.569C469.556 705.059 467.437 704.649 465.227 703.379C459.567 700.109 454.967 692.149 454.987 685.639C454.987 682.579 456.026 680.269 457.886 679.119L457.776 678.899Z" fill="black"/>
</g>
<mask id="mask7_1_374" style="mask-type:luminance" maskUnits="userSpaceOnUse" x="488" y="696" width="22" height="37">
<path d="M488.957 720.629L489.027 696.619L509.927 708.68L509.856 732.7L488.957 720.629Z" fill="white"/>
</mask>
<g mask="url(#mask7_1_374)">
<path d="M499.477 702.859C493.817 699.589 489.187 702.23 489.167 708.73C489.147 715.23 493.747 723.19 499.407 726.46C505.067 729.73 509.697 727.099 509.717 720.589C509.737 714.079 505.137 706.119 499.477 702.849" fill="#7FA6B8"/>
<path d="M499.407 726.459C493.747 723.189 489.147 715.239 489.167 708.729C489.187 702.219 493.807 699.589 499.477 702.859C505.147 706.129 509.737 714.089 509.717 720.599C509.697 727.109 505.077 729.739 499.407 726.469M499.477 702.649C493.717 699.329 489.007 701.999 488.987 708.629C488.967 715.259 493.647 723.339 499.407 726.669C505.167 729.999 509.867 727.319 509.887 720.699C509.907 714.079 505.237 705.979 499.477 702.659" fill="black"/>
</g>
<mask id="mask8_1_374" style="mask-type:luminance" maskUnits="userSpaceOnUse" x="489" y="699" width="19" height="33">
<path d="M489.017 720.649L489.076 699.01L507.047 709.379L506.987 731.019L489.017 720.649Z" fill="white"/>
</mask>
<g mask="url(#mask8_1_374)">
<path d="M492.597 701.98C490.457 702.98 489.247 705.39 489.237 708.75C489.217 715.26 493.807 723.2 499.477 726.48C501.927 727.9 504.247 728.25 506.097 727.51C504.487 727.69 502.667 727.219 500.777 726.129C495.007 722.799 490.337 714.709 490.357 708.089C490.357 705.379 491.157 703.25 492.607 701.98" fill="#E3ECE9"/>
<path d="M499.467 726.48C493.797 723.21 489.207 715.26 489.227 708.75C489.227 705.39 490.456 702.98 492.586 701.98C491.136 703.25 490.346 705.379 490.336 708.089C490.316 714.709 494.987 722.799 500.757 726.129C502.647 727.219 504.466 727.69 506.076 727.51C504.226 728.25 501.917 727.89 499.457 726.48M493.317 701.45C490.627 702.19 489.067 704.819 489.057 708.649C489.037 715.269 493.707 723.36 499.477 726.69C502.327 728.34 505.007 728.569 507.007 727.349L506.897 727.129C505.107 727.619 502.987 727.21 500.777 725.94C495.117 722.67 490.517 714.72 490.537 708.21C490.537 705.14 491.577 702.83 493.437 701.68L493.326 701.46" fill="black"/>
</g>
<mask id="mask9_1_374" style="mask-type:luminance" maskUnits="userSpaceOnUse" x="524" y="719" width="22" height="37">
<path d="M524.497 743.19L524.567 719.169L545.467 731.24L545.396 755.25L524.497 743.19Z" fill="white"/>
</mask>
<g mask="url(#mask9_1_374)">
<path d="M535.017 725.41C529.357 722.14 524.727 724.779 524.707 731.279C524.687 737.779 529.287 745.749 534.947 749.019C540.607 752.289 545.237 749.65 545.257 743.15C545.277 736.65 540.677 728.68 535.017 725.41Z" fill="#7FA6B8"/>
<path d="M534.957 749.01C529.297 745.74 524.697 737.779 524.717 731.269C524.737 724.759 529.357 722.129 535.027 725.399C540.687 728.669 545.287 736.629 545.267 743.139C545.247 749.649 540.627 752.28 534.957 749.01ZM535.017 725.209C529.257 721.889 524.547 724.559 524.527 731.179C524.507 737.799 529.187 745.899 534.947 749.219C540.707 752.539 545.407 749.869 545.427 743.239C545.447 736.609 540.777 728.529 535.017 725.209Z" fill="black"/>
</g>
<mask id="mask10_1_374" style="mask-type:luminance" maskUnits="userSpaceOnUse" x="524" y="721" width="19" height="33">
<path d="M524.557 743.2L524.616 721.559L542.586 731.93L542.527 753.579L524.557 743.2Z" fill="white"/>
</mask>
<g mask="url(#mask10_1_374)">
<path d="M528.137 724.529C525.997 725.539 524.787 727.939 524.777 731.299C524.757 737.809 529.357 745.769 535.017 749.039C537.467 750.459 539.787 750.809 541.637 750.069C540.027 750.249 538.207 749.78 536.317 748.69C530.557 745.37 525.877 737.269 525.897 730.649C525.897 727.949 526.697 725.809 528.147 724.539" fill="#E3ECE9"/>
<path d="M535.017 749.029C529.357 745.759 524.757 737.799 524.777 731.289C524.777 727.939 525.997 725.529 528.137 724.519C526.687 725.789 525.897 727.929 525.887 730.629C525.867 737.249 530.547 745.349 536.307 748.669C538.197 749.759 540.017 750.229 541.627 750.049C539.777 750.779 537.467 750.429 535.007 749.019M528.857 724C526.167 724.74 524.606 727.36 524.596 731.19C524.576 737.81 529.247 745.91 535.017 749.23C537.867 750.88 540.547 751.109 542.547 749.889L542.437 749.669C540.647 750.159 538.527 749.75 536.317 748.48C530.657 745.21 526.056 737.25 526.076 730.74C526.076 727.68 527.117 725.37 528.977 724.22L528.867 724" fill="black"/>
</g>
<mask id="mask11_1_374" style="mask-type:luminance" maskUnits="userSpaceOnUse" x="560" y="741" width="22" height="37">
<path d="M560.046 765.73L560.116 741.72L581.006 753.779L580.936 777.789L560.046 765.73Z" fill="white"/>
</mask>
<g mask="url(#mask11_1_374)">
<path d="M570.556 747.96C564.896 744.69 560.266 747.329 560.246 753.829C560.226 760.329 564.826 768.289 570.486 771.559C576.146 774.829 580.776 772.2 580.796 765.69C580.816 759.18 576.216 751.22 570.556 747.95" fill="#7FA6B8"/>
<path d="M570.496 771.559C564.836 768.289 560.236 760.339 560.256 753.829C560.276 747.319 564.896 744.689 570.566 747.959C576.226 751.229 580.826 759.189 580.806 765.699C580.786 772.209 576.166 774.839 570.496 771.569M570.566 747.749C564.806 744.429 560.106 747.099 560.086 753.729C560.066 760.359 564.736 768.439 570.496 771.759C576.256 775.079 580.956 772.409 580.976 765.789C580.996 759.169 576.326 751.069 570.566 747.749Z" fill="black"/>
</g>
<mask id="mask12_1_374" style="mask-type:luminance" maskUnits="userSpaceOnUse" x="560" y="744" width="19" height="33">
<path d="M560.096 765.75L560.166 744.109L578.126 754.49L578.066 776.119L560.096 765.75Z" fill="white"/>
</mask>
<g mask="url(#mask12_1_374)">
<path d="M563.676 747.079C561.536 748.079 560.326 750.489 560.316 753.849C560.296 760.359 564.896 768.319 570.556 771.589C573.006 773.009 575.326 773.359 577.176 772.619C575.566 772.799 573.746 772.33 571.856 771.24C566.096 767.92 561.416 759.82 561.436 753.2C561.436 750.49 562.236 748.359 563.686 747.089" fill="#E3ECE9"/>
<path d="M570.556 771.579C564.896 768.309 560.296 760.349 560.316 753.839C560.316 750.489 561.546 748.069 563.676 747.069C562.226 748.339 561.436 750.47 561.426 753.18C561.406 759.8 566.086 767.89 571.846 771.22C573.736 772.31 575.556 772.779 577.166 772.599C575.316 773.339 573.006 772.989 570.546 771.569M564.396 746.559C561.706 747.299 560.146 749.92 560.136 753.75C560.116 760.37 564.786 768.459 570.556 771.789C573.406 773.439 576.086 773.67 578.086 772.45L577.976 772.24C576.186 772.73 574.066 772.309 571.856 771.039C566.196 767.769 561.596 759.819 561.616 753.309C561.616 750.239 562.656 747.929 564.516 746.779L564.406 746.569" fill="black"/>
</g>
</svg>
