<svg width="1256" height="963" viewBox="0 0 1256 963" fill="none" xmlns="http://www.w3.org/2000/svg">
<path d="M1001.76 330.344L715.791 495.454L830.18 561.504L1001.76 462.434V330.344Z" fill="#CCCCCC" stroke="black" stroke-width="0.25" stroke-miterlimit="10"/>
<path d="M772.981 198.264V264.574V330.584L601.401 429.414L487.011 363.374L772.981 198.264Z" fill="#CCCCCC" stroke="black" stroke-width="0.25" stroke-miterlimit="10"/>
<path d="M315.36 264.574L429.811 198.504L486.95 231.284L544.2 198.264L429.811 132.214L258.23 231.284L315.36 264.574Z" fill="#CCCCCC" stroke="black" stroke-width="0.25" stroke-miterlimit="10"/>
<path d="M830.181 693.584L1254.83 487.494V713.134L830.181 958.304V693.584Z" fill="#94493D" stroke="black" stroke-width="0.25" stroke-miterlimit="10"/>
<path d="M830.181 693.584V958.304L944.511 892.294V627.574L830.181 693.584Z" fill="#84ACB2" stroke="black" stroke-width="0.25" stroke-miterlimit="10"/>
<path d="M29.6202 231.184L801.46 676.804V941.524L0.730225 479.214L0.280273 248.124" fill="#B95D4C"/>
<path d="M29.6202 231.184L801.46 676.804V941.524L0.730225 479.214L0.280273 248.124" stroke="black" stroke-width="0.25" stroke-miterlimit="10"/>
<path d="M601.4 561.504V826.214L830.18 958.304V693.584L601.4 561.504Z" fill="#8FB7C1" stroke="black" stroke-width="0.25" stroke-miterlimit="10"/>
<path d="M201.15 330.414V595.134L601.4 826.214V561.504L201.15 330.414Z" fill="#FFF2E9" stroke="black" stroke-width="0.25" stroke-miterlimit="10"/>
<path d="M629.99 578.014V841.744" stroke="#C8DCE2" stroke-miterlimit="10"/>
<path d="M658.591 594.924V858.654" stroke="#C8DCE2" stroke-miterlimit="10"/>
<path d="M687.19 611.834V875.564" stroke="#C8DCE2" stroke-miterlimit="10"/>
<path d="M715.791 628.744V892.474" stroke="#C8DCE2" stroke-miterlimit="10"/>
<path d="M744.38 645.644V909.384" stroke="#C8DCE2" stroke-miterlimit="10"/>
<path d="M772.98 662.554V926.294" stroke="#C8DCE2" stroke-miterlimit="10"/>
<path d="M801.581 679.464V943.204" stroke="#C8DCE2" stroke-miterlimit="10"/>
<path d="M829.291 766.514L600.511 634.194" stroke="#C8DCE2" stroke-miterlimit="10"/>
<path d="M828.931 831.104L601.721 699.684" stroke="#C8DCE2" stroke-miterlimit="10"/>
<path d="M601.401 694.484L214.721 470.604V383.034L601.401 606.344V694.484Z" fill="#8FB7C1" stroke="black" stroke-width="0.25" stroke-miterlimit="10"/>
<path opacity="0.25" d="M615.88 614.674V627.884L201.15 387.704V375.874L615.88 614.674Z" fill="#48686D"/>
<path d="M828.65 898.394L599.87 766.064" stroke="#C8DCE2" stroke-miterlimit="10"/>
<path d="M858.78 677.464V941.204" stroke="#C8DCE2" stroke-miterlimit="10"/>
<path d="M887.37 661.054V924.784" stroke="#C8DCE2" stroke-miterlimit="10"/>
<path d="M915.971 645.644V909.384" stroke="#C8DCE2" stroke-miterlimit="10"/>
<path d="M944.511 693.734L830.181 759.904" stroke="#C8DCE2" stroke-miterlimit="10"/>
<path d="M830.181 826.024L944.511 759.854" stroke="#C8DCE2" stroke-miterlimit="10"/>
<path d="M830.181 892.145L944.511 825.974" stroke="#C8DCE2" stroke-miterlimit="10"/>
<path d="M214.2 465.344V470.154L601.21 694.224L601.2 688.864L214.2 465.344Z" fill="#EAEAEA"/>
<path d="M601.4 561.504V826.214" stroke="black" stroke-width="0.25" stroke-miterlimit="10"/>
<path d="M544.28 802.754V561.504L553.79 567.244V807.934L544.28 802.754Z" fill="#E8DED2" stroke="black" stroke-width="0.25" stroke-miterlimit="10"/>
<path d="M553.79 808.044L557.85 805.004V569.594L553.79 567.244V807.984" fill="#FFF2E9"/>
<path d="M553.79 808.044L557.85 805.004V569.594L553.79 567.244V807.984" stroke="black" stroke-width="0.25" stroke-miterlimit="10"/>
<path d="M487.17 769.684V528.424L496.68 534.174V774.864L487.17 769.684Z" fill="#E8DED2" stroke="black" stroke-width="0.25" stroke-miterlimit="10"/>
<path d="M496.68 774.964L500.74 771.934V536.514L496.68 534.174V774.904" fill="#FFF2E9"/>
<path d="M496.68 774.964L500.74 771.934V536.514L496.68 534.174V774.904" stroke="black" stroke-width="0.25" stroke-miterlimit="10"/>
<path d="M430.061 736.584V495.324L439.571 501.074V741.764L430.061 736.584Z" fill="#E8DED2" stroke="black" stroke-width="0.25" stroke-miterlimit="10"/>
<path d="M439.571 741.864L443.63 738.834V503.414L439.571 501.074V741.804" fill="#FFF2E9"/>
<path d="M439.571 741.864L443.63 738.834V503.414L439.571 501.074V741.804" stroke="black" stroke-width="0.25" stroke-miterlimit="10"/>
<path d="M372.95 703.994V462.734L382.46 468.484V709.174L372.95 703.994Z" fill="#E8DED2" stroke="black" stroke-width="0.25" stroke-miterlimit="10"/>
<path d="M382.46 709.274L386.52 706.244V470.824L382.46 468.484V709.214" fill="#FFF2E9"/>
<path d="M382.46 709.274L386.52 706.244V470.824L382.46 468.484V709.214" stroke="black" stroke-width="0.25" stroke-miterlimit="10"/>
<path opacity="0.25" d="M704.21 665.874V679.254L615.88 627.884V614.674L704.21 665.874Z" fill="#48686D"/>
<path d="M315.841 670.404V429.144L325.341 434.894V675.584L315.841 670.404Z" fill="#E8DED2" stroke="black" stroke-width="0.25" stroke-miterlimit="10"/>
<path d="M325.341 675.684L329.401 672.654V437.234L325.341 434.894V675.624" fill="#FFF2E9"/>
<path d="M325.341 675.684L329.401 672.654V437.234L325.341 434.894V675.624" stroke="black" stroke-width="0.25" stroke-miterlimit="10"/>
<path d="M258.721 638.114V396.854L268.231 402.604V643.294L258.721 638.114Z" fill="#E8DED2" stroke="black" stroke-width="0.25" stroke-miterlimit="10"/>
<path d="M268.231 643.404L272.291 640.364V404.944L268.231 402.604V643.334" fill="#FFF2E9"/>
<path d="M268.231 643.404L272.291 640.364V404.944L268.231 402.604V643.334" stroke="black" stroke-width="0.25" stroke-miterlimit="10"/>
<path d="M601.331 833.994V596.924L611.521 602.484V839.544L601.331 833.994Z" fill="#E8DED2" stroke="black" stroke-width="0.25" stroke-miterlimit="10"/>
<path d="M611.521 839.654L615.88 836.404V614.674L611.521 612.304V839.594" fill="#FFF2E9"/>
<path d="M611.521 839.654L615.88 836.404V614.674L611.521 612.304V839.594" stroke="black" stroke-width="0.25" stroke-miterlimit="10"/>
<path d="M651.38 862.674V624.274L661.49 629.854V868.254L651.38 862.674Z" fill="#E8DED2" stroke="black" stroke-width="0.25" stroke-miterlimit="10"/>
<path d="M661.49 868.374L665.801 865.094V642.124L661.49 639.744V868.304" fill="#FFF2E9"/>
<path d="M661.49 868.374L665.801 865.094V642.124L661.49 639.744V868.304" stroke="black" stroke-width="0.25" stroke-miterlimit="10"/>
<path d="M704.21 893.444V656.734L714.321 662.284V898.994L704.21 893.444Z" fill="#E8DED2" stroke="black" stroke-width="0.25" stroke-miterlimit="10"/>
<path d="M714.321 899.104L718.63 895.854V674.464L714.321 672.094V899.034" fill="#FFF2E9"/>
<path d="M714.321 899.104L718.63 895.854V674.464L714.321 672.094V899.034" stroke="black" stroke-width="0.25" stroke-miterlimit="10"/>
<path d="M764.25 927.854V692.244L774.36 697.764V933.374L764.25 927.854Z" fill="#E8DED2" stroke="black" stroke-width="0.25" stroke-miterlimit="10"/>
<path d="M774.36 933.484L778.67 930.224V708.464L774.36 706.094V933.414" fill="#FFF2E9"/>
<path d="M774.36 933.484L778.67 930.224V708.464L774.36 706.094V933.414" stroke="black" stroke-width="0.25" stroke-miterlimit="10"/>
<path d="M955.19 893.885V620.804L945.091 627.204V900.274L955.19 893.885Z" fill="#E8DED2" stroke="black" stroke-width="0.25" stroke-miterlimit="10"/>
<path d="M945.091 900.404L940.771 896.654V641.254L945.091 638.524V900.334" fill="#FFF2E9"/>
<path d="M945.091 900.404L940.771 896.654V641.254L945.091 638.524V900.334" stroke="black" stroke-width="0.25" stroke-miterlimit="10"/>
<path d="M815.761 955.614V682.664L825.861 689.054V962.004L815.761 955.614Z" fill="#E8DED2" stroke="black" stroke-width="0.25" stroke-miterlimit="10"/>
<path d="M825.861 962.084L834.641 956.864L835.021 703.774L825.861 701.734V962.004" fill="#FFF2E9"/>
<path d="M825.861 962.084L834.641 956.864L835.021 703.774L825.861 701.734V962.004" stroke="black" stroke-width="0.25" stroke-miterlimit="10"/>
<path d="M825.86 724.104L1254.83 476.454V487.494L825.86 736.474V724.104Z" fill="#E6DED2" stroke="black" stroke-width="0.25" stroke-miterlimit="10"/>
<path opacity="0.25" d="M815.761 729.824V743.174L778.841 721.794V709.274L815.761 729.824Z" fill="#48686D"/>
<path opacity="0.25" d="M764.341 700.464L764.25 713.954L718.63 687.534V675.014L764.341 700.464Z" fill="#48686D" stroke="black" stroke-width="0.25" stroke-miterlimit="10"/>
<path opacity="0.25" d="M835.021 731.074V743.784L940.66 682.664L940.771 669.834L835.021 731.074Z" fill="#48686D"/>
<path d="M17.3301 332.154L36.8701 343.434V304.394L17.3301 293.114V332.154Z" fill="#8FB7C1"/>
<path opacity="0.54" d="M19.9301 330.654L36.8701 340.434V343.434L17.3301 332.154V293.114L19.9301 294.624V330.654Z" fill="#48686D"/>
<path d="M54.6504 353.734L74.1903 365.014V325.984L54.6504 314.704V353.734Z" fill="#8FB7C1"/>
<path opacity="0.54" d="M57.2504 352.244L74.1903 362.014V365.014L54.6504 353.734V314.704L57.2504 316.204V352.244Z" fill="#48686D"/>
<path d="M91.9707 375.324L111.511 386.604V347.564L91.9707 336.284V375.324Z" fill="#8FB7C1"/>
<path opacity="0.54" d="M94.5707 373.824L111.511 383.604V386.604L91.9707 375.324V336.284L94.5707 337.794V373.824Z" fill="#48686D"/>
<path d="M129.28 396.904L148.82 408.194V369.154L129.28 357.874V396.904Z" fill="#8FB7C1"/>
<path opacity="0.54" d="M131.89 395.414L148.82 405.194V408.194L129.28 396.904V357.874L131.89 359.374V395.414Z" fill="#48686D"/>
<path d="M166.601 418.494L186.141 429.774V390.744L166.601 379.454V418.494Z" fill="#8FB7C1"/>
<path opacity="0.54" d="M169.201 416.994L186.141 426.774V429.774L166.601 418.494V379.454L169.201 380.964V416.994Z" fill="#48686D"/>
<path d="M17.3301 396.904L36.8701 408.194V369.154L17.3301 357.874V396.904Z" fill="#8FB7C1"/>
<path opacity="0.54" d="M19.9301 395.414L36.8701 405.194V408.194L17.3301 396.904V357.874L19.9301 359.374V395.414Z" fill="#48686D"/>
<path d="M54.6504 418.494L74.1903 429.774V390.744L54.6504 379.454V418.494Z" fill="#8FB7C1"/>
<path opacity="0.54" d="M57.2504 416.994L74.1903 426.774V429.774L54.6504 418.494V379.454L57.2504 380.964V416.994Z" fill="#48686D"/>
<path d="M91.9707 440.084L111.511 451.364V412.324L91.9707 401.044V440.084Z" fill="#8FB7C1"/>
<path opacity="0.54" d="M94.5707 438.584L111.511 448.364V451.364L91.9707 440.084V401.044L94.5707 402.544V438.584Z" fill="#48686D"/>
<path d="M129.28 461.664L148.82 472.944V433.914L129.28 422.634V461.664Z" fill="#8FB7C1"/>
<path opacity="0.54" d="M131.89 460.164L148.82 469.944V472.944L129.28 461.664V422.634L131.89 424.134V460.164Z" fill="#48686D"/>
<path d="M166.601 483.254L186.141 494.534V455.494L166.601 444.214V483.254Z" fill="#8FB7C1"/>
<path opacity="0.54" d="M169.201 481.754L186.141 491.534V494.534L166.601 483.254V444.214L169.201 445.724V481.754Z" fill="#48686D"/>
<path d="M17.3301 461.664L36.8701 472.944V433.914L17.3301 422.634V461.664Z" fill="#8FB7C1"/>
<path opacity="0.54" d="M19.9301 460.164L36.8701 469.944V472.944L17.3301 461.664V422.634L19.9301 424.134V460.164Z" fill="#48686D"/>
<path d="M54.6504 483.254L74.1903 494.534V455.494L54.6504 444.214V483.254Z" fill="#8FB7C1"/>
<path opacity="0.54" d="M57.2504 481.754L74.1903 491.534V494.534L54.6504 483.254V444.214L57.2504 445.724V481.754Z" fill="#48686D"/>
<path d="M91.9707 504.834L111.511 516.114V477.084L91.9707 465.804V504.834Z" fill="#8FB7C1"/>
<path opacity="0.54" d="M94.5707 503.344L111.511 513.114V516.114L91.9707 504.834V465.804L94.5707 467.304V503.344Z" fill="#48686D"/>
<path d="M129.28 526.424L148.82 537.704V498.664L129.28 487.384V526.424Z" fill="#8FB7C1"/>
<path opacity="0.54" d="M131.89 524.924L148.82 534.704V537.704L129.28 526.424V487.384L131.89 488.894V524.924Z" fill="#48686D"/>
<path d="M166.601 548.004L186.141 559.284V520.254L166.601 508.974V548.004Z" fill="#8FB7C1"/>
<path opacity="0.54" d="M169.201 546.514L186.141 556.284V559.284L166.601 548.004V508.974L169.201 510.474V546.514Z" fill="#48686D"/>
<path d="M1011.53 701.614L991.99 712.894V673.864L1011.53 662.584V701.614Z" fill="#8FB7C1"/>
<path opacity="0.54" d="M1008.93 700.114L991.99 709.894V712.894L1011.53 701.614V662.584L1008.93 664.084V700.114Z" fill="#48686D"/>
<path d="M1054.79 676.454L1035.26 687.734V648.704L1054.79 637.424V676.454Z" fill="#8FB7C1"/>
<path opacity="0.54" d="M1052.19 674.964L1035.26 684.734V687.734L1054.79 676.454V637.424L1052.19 638.924V674.964Z" fill="#48686D"/>
<path d="M1098.06 651.294L1078.52 662.584V623.544L1098.06 612.264V651.294Z" fill="#8FB7C1"/>
<path opacity="0.54" d="M1095.45 649.804L1078.52 659.584V662.584L1098.06 651.294V612.264L1095.45 613.764V649.804Z" fill="#48686D"/>
<path d="M1141.32 626.144L1121.78 637.424V598.384L1141.32 587.104V626.144Z" fill="#8FB7C1"/>
<path opacity="0.54" d="M1138.71 624.644L1121.78 634.424V637.424L1141.32 626.144V587.104L1138.71 588.614V624.644Z" fill="#48686D"/>
<path d="M1184.58 600.984L1165.04 612.264V573.224L1184.58 561.944V600.984Z" fill="#8FB7C1"/>
<path opacity="0.54" d="M1181.98 599.484L1165.04 609.264V612.264L1184.58 600.984V561.944L1181.98 563.454V599.484Z" fill="#48686D"/>
<path d="M1227.84 575.824L1208.3 587.104V548.074L1227.84 536.794V575.824Z" fill="#8FB7C1"/>
<path opacity="0.54" d="M1225.24 574.324L1208.3 584.104V587.104L1227.84 575.824V536.794L1225.24 538.294V574.324Z" fill="#48686D"/>
<path d="M1011.53 764.514L991.99 775.794V736.754L1011.53 725.474V764.514Z" fill="#8FB7C1"/>
<path opacity="0.54" d="M1008.93 763.014L991.99 772.794V775.794L1011.53 764.514V725.474L1008.93 726.974V763.014Z" fill="#48686D"/>
<path d="M1054.79 739.354L1035.26 750.634V711.594L1054.79 700.314V739.354Z" fill="#8FB7C1"/>
<path opacity="0.54" d="M1052.19 737.854L1035.26 747.634V750.634L1054.79 739.354V700.314L1052.19 701.824V737.854Z" fill="#48686D"/>
<path d="M1098.06 714.194L1078.52 725.474V686.444L1098.06 675.164V714.194Z" fill="#8FB7C1"/>
<path opacity="0.54" d="M1095.45 712.694L1078.52 722.474V725.474L1098.06 714.194V675.164L1095.45 676.664V712.694Z" fill="#48686D"/>
<path d="M1141.32 689.034L1121.78 700.314V661.284L1141.32 650.004V689.034Z" fill="#8FB7C1"/>
<path opacity="0.54" d="M1138.71 687.544L1121.78 697.314V700.314L1141.32 689.034V650.004L1138.71 651.504V687.544Z" fill="#48686D"/>
<path d="M1184.58 663.875L1165.04 675.164V636.125L1184.58 624.844V663.875Z" fill="#8FB7C1"/>
<path opacity="0.54" d="M1181.98 662.385L1165.04 672.164V675.164L1184.58 663.875V624.844L1181.98 626.344V662.385Z" fill="#48686D"/>
<path d="M1227.84 638.724L1208.3 650.004V610.964L1227.84 599.684V638.724Z" fill="#8FB7C1"/>
<path opacity="0.54" d="M1225.24 637.224L1208.3 647.004V650.004L1227.84 638.724V599.684L1225.24 601.184V637.224Z" fill="#48686D"/>
<path d="M1011.53 827.404L991.99 838.684V799.654L1011.53 788.374V827.404Z" fill="#8FB7C1"/>
<path opacity="0.54" d="M1008.93 825.914L991.99 835.684V838.684L1011.53 827.404V788.374L1008.93 789.874V825.914Z" fill="#48686D"/>
<path d="M1054.79 802.244L1035.26 813.524V774.494L1054.79 763.214V802.244Z" fill="#8FB7C1"/>
<path opacity="0.54" d="M1052.19 800.754L1035.26 810.524V813.524L1054.79 802.244V763.214L1052.19 764.714V800.754Z" fill="#48686D"/>
<path d="M1098.06 777.094L1078.52 788.375V749.334L1098.06 738.054V777.094Z" fill="#8FB7C1"/>
<path opacity="0.54" d="M1095.45 775.594L1078.52 785.375V788.375L1098.06 777.094V738.054L1095.45 739.554V775.594Z" fill="#48686D"/>
<path d="M1141.32 751.934L1121.78 763.214V724.174L1141.32 712.894V751.934Z" fill="#8FB7C1"/>
<path opacity="0.54" d="M1138.71 750.434L1121.78 760.214V763.214L1141.32 751.934V712.894L1138.71 714.404V750.434Z" fill="#48686D"/>
<path d="M1184.58 726.774L1165.04 738.054V699.024L1184.58 687.734V726.774Z" fill="#8FB7C1"/>
<path opacity="0.54" d="M1181.98 725.274L1165.04 735.054V738.054L1184.58 726.774V687.734L1181.98 689.244V725.274Z" fill="#48686D"/>
<path d="M1227.84 701.614L1208.3 712.894V673.864L1227.84 662.584V701.614Z" fill="#8FB7C1"/>
<path opacity="0.54" d="M1225.24 700.114L1208.3 709.894V712.894L1227.84 701.614V662.584L1225.24 664.084V700.114Z" fill="#48686D"/>
<path d="M210.66 609.994L214.72 606.954V371.534L210.66 369.194V609.924" fill="#FFF2E9"/>
<path d="M210.66 609.994L214.72 606.954V371.534L210.66 369.194V609.924" stroke="black" stroke-width="0.25" stroke-miterlimit="10"/>
<path d="M201.15 604.704V363.444L210.66 369.194V609.884L201.15 604.704Z" fill="#E8DED2" stroke="black" stroke-width="0.25" stroke-miterlimit="10"/>
<path d="M1116.15 396.394L1058.95 429.414L830.17 561.504L715.78 495.464L944.56 363.374L1001.76 330.354L887.37 264.314L830.17 297.334L601.39 429.424L487 363.384L715.78 231.294L772.98 198.274L429.81 0.144287L372.61 33.1641L315.41 66.1841L258.21 99.2041L201.01 132.224L143.81 165.244L86.61 198.264L0.25 248.124L825.83 724.104L1197.07 509.434L1254.79 476.444L1116.12 396.384L1116.15 396.394ZM258.23 231.284L429.82 132.224L544.21 198.264L372.62 297.324L258.23 231.284Z" fill="#E8DED2" stroke="black" stroke-width="0.25" stroke-miterlimit="10"/>
<path d="M201.15 363.444V375.874L825.86 736.474V724.104L201.15 363.444Z" fill="#E8DED2" stroke="black" stroke-width="0.25" stroke-miterlimit="10"/>
<path d="M30.3906 249.234L430.751 18.0842L744.38 198.394L459.781 365.014L601.721 447.784L887.341 282.814L971.681 330.344L687.191 496.314L831.12 579.454L1117.1 414.344L1227.84 478.244L827.261 709.274L30.3906 249.234Z" fill="#DDD3C7" stroke="black" stroke-width="0.25" stroke-miterlimit="10"/>
</svg>
