<svg width="1604" height="1069" viewBox="0 0 1604 1069" fill="none" xmlns="http://www.w3.org/2000/svg">
<path d="M458.1 329.974L457.81 197.854L571.85 263.694V396.064L458.1 329.974Z" fill="#E6DDD6" stroke="black" stroke-width="0.25" stroke-miterlimit="10"/>
<path d="M1030.92 757.604L571.84 1021.96V791.574L1030.03 528.694L1030.92 757.604Z" fill="#C1B8B2" stroke="black" stroke-width="0.25" stroke-miterlimit="10"/>
<path d="M571.85 1022.21V791.814L0.25 462.564V691.814L571.85 1022.21Z" fill="#E6DDD6" stroke="black" stroke-width="0.25" stroke-miterlimit="10"/>
<path d="M286.97 495.944L344.17 463.004L400.65 495.615L457.81 462.314L343.42 396.404L228.91 462.414L286.97 495.944Z" fill="#C8C0B9" stroke="black" stroke-width="0.25" stroke-miterlimit="10"/>
<path d="M744.38 230.674L801.57 197.644L858.77 230.534L916.08 197.544L801.69 131.624L687.18 197.644L744.38 230.674Z" fill="#C8C0B9" stroke="black" stroke-width="0.25" stroke-miterlimit="10"/>
<path d="M973.66 363.274L1030.86 330.244L1088.05 363.134L1145.37 330.144L1030.98 264.224L916.47 330.244L973.66 363.274Z" fill="#C8C0B9" stroke="black" stroke-width="0.25" stroke-miterlimit="10"/>
<path d="M1030.92 757.604L1145.37 690.784V462.184L1030.92 528.804V757.604Z" fill="#C1B8B2" stroke="black" stroke-width="0.25" stroke-miterlimit="10"/>
<path d="M1431.84 296.824L1603.63 197.854V460.234L1202.56 690.794V428.764L1431.84 296.824Z" fill="#A85142" stroke="black" stroke-width="0.25" stroke-miterlimit="10"/>
<path d="M1202.56 462.184H1145.37V690.794H1202.56V462.184Z" fill="#B95D4C" stroke="black" stroke-width="0.25" stroke-miterlimit="10"/>
<path d="M1202.56 462.184L1235.48 410.094L1145.37 462.174L1202.56 462.184Z" fill="#D9D1CA" stroke="black" stroke-width="0.25" stroke-miterlimit="10"/>
<path d="M1489.29 131.624L1258.83 264.064L801.62 0.144287L458.07 198.224L1030.02 528.684L1155.27 456.444L1223.79 416.924L1603.62 197.844L1489.28 131.624H1489.29ZM687.18 197.644L801.69 131.624L916.08 197.534L801.63 264.064L687.18 197.634V197.644ZM1030.19 396.444L915.74 330.094L1030.25 264.074L1144.64 329.984L1030.19 396.444Z" fill="#D9D1CA" stroke="black" stroke-width="0.25" stroke-miterlimit="10"/>
<path d="M1145.37 674.444L571.84 1005.56L0.25 675.144V691.814L571.85 1022.21L1145.37 690.784V674.444Z" fill="#60605F" stroke="black" stroke-width="0.25" stroke-miterlimit="10"/>
<path d="M592.62 816.094V882.365L617.75 867.854L617.72 801.544L592.62 816.094Z" fill="#8FB7C1" stroke="black" stroke-width="0.25" stroke-miterlimit="10"/>
<path opacity="0.62" d="M612.5 865.744L592.74 877.154V882.154L617.61 867.774L617.59 801.774L612.59 804.644C612.59 804.644 612.68 865.924 612.5 865.744Z" fill="#48686D"/>
<path d="M638.9 789.324V855.594L664.03 841.084L664 774.774L638.9 789.324Z" fill="#8FB7C1" stroke="black" stroke-width="0.25" stroke-miterlimit="10"/>
<path opacity="0.62" d="M658.78 838.974L639.02 850.384V855.384L663.89 841.004L663.87 775.004L658.87 777.874C658.87 777.874 658.96 839.154 658.78 838.974Z" fill="#48686D"/>
<path d="M685.17 762.654V828.924L710.31 814.414L710.28 748.094L685.17 762.654Z" fill="#8FB7C1" stroke="black" stroke-width="0.25" stroke-miterlimit="10"/>
<path opacity="0.62" d="M705.06 812.304L685.3 823.714V828.714L710.17 814.334L710.15 748.334L705.15 751.204C705.15 751.204 705.24 812.484 705.06 812.304Z" fill="#48686D"/>
<path d="M1011.1 577.004V643.274L1036.23 628.764L1036.2 562.444L1011.1 577.004Z" fill="#8FB7C1" stroke="black" stroke-width="0.25" stroke-miterlimit="10"/>
<path opacity="0.62" d="M1030.98 626.654L1011.22 638.064V643.064L1036.09 628.684L1036.07 562.684L1031.07 565.554C1031.07 565.554 1031.16 626.834 1030.98 626.654Z" fill="#48686D"/>
<path d="M1057.37 550.234V616.504L1082.51 601.994L1082.48 535.684L1057.37 550.234Z" fill="#8FB7C1" stroke="black" stroke-width="0.25" stroke-miterlimit="10"/>
<path opacity="0.62" d="M1077.26 599.884L1057.5 611.294V616.294L1082.37 601.914L1082.35 535.914L1077.35 538.784C1077.35 538.784 1077.44 600.064 1077.26 599.884Z" fill="#48686D"/>
<path d="M1103.65 523.554V589.834L1128.78 575.314L1128.75 509.004L1103.65 523.554Z" fill="#8FB7C1" stroke="black" stroke-width="0.25" stroke-miterlimit="10"/>
<path opacity="0.62" d="M1123.53 573.214L1103.77 584.624V589.624L1128.64 575.244L1128.62 509.244L1123.62 512.115C1123.62 512.115 1123.71 573.394 1123.53 573.214Z" fill="#48686D"/>
<path d="M1011.1 664.914V731.194L1036.23 716.674L1036.2 650.365L1011.1 664.914Z" fill="#8FB7C1" stroke="black" stroke-width="0.25" stroke-miterlimit="10"/>
<path opacity="0.62" d="M1030.98 714.574L1011.22 725.984V730.984L1036.09 716.604L1036.07 650.604L1031.07 653.474C1031.07 653.474 1031.16 714.754 1030.98 714.574Z" fill="#48686D"/>
<path d="M1057.37 638.154V704.424L1082.51 689.914L1082.48 623.594L1057.37 638.154Z" fill="#8FB7C1" stroke="black" stroke-width="0.25" stroke-miterlimit="10"/>
<path opacity="0.62" d="M1077.26 687.804L1057.5 699.214V704.214L1082.37 689.834L1082.35 623.834L1077.35 626.704C1077.35 626.704 1077.44 687.984 1077.26 687.804Z" fill="#48686D"/>
<path d="M1103.65 611.474V677.744L1128.78 663.234L1128.75 596.924L1103.65 611.474Z" fill="#8FB7C1" stroke="black" stroke-width="0.25" stroke-miterlimit="10"/>
<path opacity="0.62" d="M1123.53 661.124L1103.77 672.534V677.534L1128.64 663.154L1128.62 597.154L1123.62 600.024C1123.62 600.024 1123.71 661.304 1123.53 661.124Z" fill="#48686D"/>
<path d="M592.62 909.944V976.214L617.75 961.704L617.72 895.394L592.62 909.944Z" fill="#8FB7C1" stroke="black" stroke-width="0.25" stroke-miterlimit="10"/>
<path opacity="0.62" d="M612.5 959.594L592.74 971.004V976.004L617.61 961.624L617.59 895.624L612.59 898.494C612.59 898.494 612.68 959.774 612.5 959.594Z" fill="#48686D"/>
<path d="M638.9 883.174V949.454L664.03 934.934L664 868.624L638.9 883.174Z" fill="#8FB7C1" stroke="black" stroke-width="0.25" stroke-miterlimit="10"/>
<path opacity="0.62" d="M658.78 932.834L639.02 944.244V949.244L663.89 934.865L663.87 868.865L658.87 871.734C658.87 871.734 658.96 933.014 658.78 932.834Z" fill="#48686D"/>
<path d="M685.17 856.504V922.774L710.31 908.264L710.28 841.954L685.17 856.504Z" fill="#8FB7C1" stroke="black" stroke-width="0.25" stroke-miterlimit="10"/>
<path opacity="0.62" d="M705.06 906.154L685.3 917.564V922.564L710.17 908.184L710.15 842.184L705.15 845.054C705.15 845.054 705.24 906.334 705.06 906.154Z" fill="#48686D"/>
<path d="M551.25 814.854V881.134L526.12 866.615L526.15 800.304L551.25 814.854Z" fill="#8FB7C1" stroke="black" stroke-width="0.25" stroke-miterlimit="10"/>
<path opacity="0.62" d="M531.37 864.514L551.13 875.924V880.924L526.26 866.544L526.28 800.544L531.28 803.414C531.28 803.414 531.19 864.694 531.37 864.514Z" fill="#48686D"/>
<path d="M504.98 788.094V854.365L479.85 839.854L479.88 773.534L504.98 788.094Z" fill="#8FB7C1" stroke="black" stroke-width="0.25" stroke-miterlimit="10"/>
<path opacity="0.62" d="M485.1 837.744L504.86 849.154V854.154L479.99 839.774L480.01 773.774L485.01 776.644C485.01 776.644 484.92 837.924 485.1 837.744Z" fill="#48686D"/>
<path d="M458.7 761.414V827.684L433.57 813.174L433.6 746.865L458.7 761.414Z" fill="#8FB7C1" stroke="black" stroke-width="0.25" stroke-miterlimit="10"/>
<path opacity="0.62" d="M438.82 811.064L458.58 822.474V827.474L433.71 813.094L433.73 747.094L438.73 749.964C438.73 749.964 438.64 811.244 438.82 811.064Z" fill="#48686D"/>
<path d="M412.42 734.534V800.804L387.29 786.294L387.32 719.984L412.42 734.534Z" fill="#8FB7C1" stroke="black" stroke-width="0.25" stroke-miterlimit="10"/>
<path opacity="0.62" d="M392.54 784.184L412.3 795.594V800.594L387.43 786.214L387.45 720.214L392.45 723.084C392.45 723.084 392.36 784.364 392.54 784.184Z" fill="#48686D"/>
<path d="M366.15 707.764V774.034L341.02 759.524L341.04 693.214L366.15 707.764Z" fill="#8FB7C1" stroke="black" stroke-width="0.25" stroke-miterlimit="10"/>
<path opacity="0.62" d="M346.26 757.414L366.02 768.824V773.824L341.15 759.444L341.17 693.444L346.17 696.314C346.17 696.314 346.08 757.594 346.26 757.414Z" fill="#48686D"/>
<path d="M319.87 681.094V747.365L294.74 732.854L294.77 666.534L319.87 681.094Z" fill="#8FB7C1" stroke="black" stroke-width="0.25" stroke-miterlimit="10"/>
<path opacity="0.62" d="M299.99 730.744L319.75 742.154V747.154L294.88 732.774L294.9 666.774L299.9 669.644C299.9 669.644 299.81 730.924 299.99 730.744Z" fill="#48686D"/>
<path d="M273.59 654.204V720.474L248.46 705.964L248.49 639.654L273.59 654.204Z" fill="#8FB7C1" stroke="black" stroke-width="0.25" stroke-miterlimit="10"/>
<path opacity="0.62" d="M253.71 703.854L273.47 715.264V720.264L248.6 705.884L248.62 639.884L253.62 642.754C253.62 642.754 253.53 704.034 253.71 703.854Z" fill="#48686D"/>
<path d="M227.31 627.434V693.714L202.18 679.194L202.21 612.884L227.31 627.434Z" fill="#8FB7C1" stroke="black" stroke-width="0.25" stroke-miterlimit="10"/>
<path opacity="0.62" d="M207.43 677.094L227.19 688.504V693.504L202.32 679.124L202.34 613.124L207.34 615.994C207.34 615.994 207.25 677.274 207.43 677.094Z" fill="#48686D"/>
<path d="M181.04 600.764V667.034L155.91 652.524L155.94 586.214L181.04 600.764Z" fill="#8FB7C1" stroke="black" stroke-width="0.25" stroke-miterlimit="10"/>
<path opacity="0.62" d="M161.16 650.414L180.92 661.824V666.824L156.05 652.444L156.07 586.444L161.07 589.314C161.07 589.314 160.98 650.594 161.16 650.414Z" fill="#48686D"/>
<path d="M134.76 573.884V640.154L109.63 625.644L109.66 559.334L134.76 573.884Z" fill="#8FB7C1" stroke="black" stroke-width="0.25" stroke-miterlimit="10"/>
<path opacity="0.62" d="M114.88 623.534L134.64 634.944V639.944L109.77 625.564L109.79 559.564L114.79 562.434C114.79 562.434 114.7 623.714 114.88 623.534Z" fill="#48686D"/>
<path d="M88.4801 547.115V613.384L63.3501 598.874L63.3801 532.564L88.4801 547.115Z" fill="#8FB7C1" stroke="black" stroke-width="0.25" stroke-miterlimit="10"/>
<path opacity="0.62" d="M68.6002 596.764L88.3602 608.174V613.174L63.4902 598.794L63.5103 532.794L68.5103 535.664C68.5103 535.664 68.4202 596.944 68.6002 596.764Z" fill="#48686D"/>
<path d="M42.2098 520.444V586.714L17.0698 572.204L17.0999 505.884L42.2098 520.444Z" fill="#8FB7C1" stroke="black" stroke-width="0.25" stroke-miterlimit="10"/>
<path opacity="0.62" d="M22.3199 570.094L42.08 581.504V586.504L17.21 572.124L17.23 506.124L22.23 508.994C22.23 508.994 22.1399 570.274 22.3199 570.094Z" fill="#48686D"/>
<path d="M500.61 247.214V313.494L475.48 298.974L475.5 232.664L500.61 247.214Z" fill="#8FB7C1" stroke="black" stroke-width="0.25" stroke-miterlimit="10"/>
<path opacity="0.62" d="M480.73 296.874L500.49 308.284V313.284L475.62 298.904L475.64 232.904L480.64 235.774C480.64 235.774 480.55 297.054 480.73 296.874Z" fill="#48686D"/>
<path d="M551.25 911.354V977.624L526.12 963.115L526.15 896.804L551.25 911.354Z" fill="#8FB7C1" stroke="black" stroke-width="0.25" stroke-miterlimit="10"/>
<path opacity="0.62" d="M531.37 961.004L551.13 972.414V977.414L526.26 963.034L526.28 897.034L531.28 899.904C531.28 899.904 531.19 961.184 531.37 961.004Z" fill="#48686D"/>
<path d="M504.98 884.584V950.854L479.85 936.344L479.88 870.034L504.98 884.584Z" fill="#8FB7C1" stroke="black" stroke-width="0.25" stroke-miterlimit="10"/>
<path opacity="0.62" d="M485.1 934.234L504.86 945.644V950.644L479.99 936.264L480.01 870.264L485.01 873.134C485.01 873.134 484.92 934.414 485.1 934.234Z" fill="#48686D"/>
<path d="M458.7 857.914V924.184L433.57 909.674L433.6 843.365L458.7 857.914Z" fill="#8FB7C1" stroke="black" stroke-width="0.25" stroke-miterlimit="10"/>
<path opacity="0.62" d="M438.82 907.564L458.58 918.974V923.974L433.71 909.594L433.73 843.594L438.73 846.464C438.73 846.464 438.64 907.744 438.82 907.564Z" fill="#48686D"/>
<path d="M412.42 831.034V897.304L387.29 882.794L387.32 816.474L412.42 831.034Z" fill="#8FB7C1" stroke="black" stroke-width="0.25" stroke-miterlimit="10"/>
<path opacity="0.62" d="M392.54 880.684L412.3 892.094V897.094L387.43 882.714L387.45 816.714L392.45 819.584C392.45 819.584 392.36 880.864 392.54 880.684Z" fill="#48686D"/>
<path d="M366.15 804.264V870.534L341.02 856.024L341.04 789.704L366.15 804.264Z" fill="#8FB7C1" stroke="black" stroke-width="0.25" stroke-miterlimit="10"/>
<path opacity="0.62" d="M346.26 853.914L366.02 865.324V870.324L341.15 855.944L341.17 789.944L346.17 792.814C346.17 792.814 346.08 854.094 346.26 853.914Z" fill="#48686D"/>
<path d="M319.87 777.584V843.865L294.74 829.344L294.77 763.034L319.87 777.584Z" fill="#8FB7C1" stroke="black" stroke-width="0.25" stroke-miterlimit="10"/>
<path opacity="0.62" d="M299.99 827.244L319.75 838.654V843.654L294.88 829.274L294.9 763.274L299.9 766.144C299.9 766.144 299.81 827.424 299.99 827.244Z" fill="#48686D"/>
<path d="M273.59 750.704V816.974L248.46 802.464L248.49 736.154L273.59 750.704Z" fill="#8FB7C1" stroke="black" stroke-width="0.25" stroke-miterlimit="10"/>
<path opacity="0.62" d="M253.71 800.354L273.47 811.764V816.764L248.6 802.384L248.62 736.384L253.62 739.254C253.62 739.254 253.53 800.534 253.71 800.354Z" fill="#48686D"/>
<path d="M227.31 723.934V790.204L202.18 775.694L202.21 709.384L227.31 723.934Z" fill="#8FB7C1" stroke="black" stroke-width="0.25" stroke-miterlimit="10"/>
<path opacity="0.62" d="M207.43 773.584L227.19 784.994V789.994L202.32 775.615L202.34 709.615L207.34 712.484C207.34 712.484 207.25 773.764 207.43 773.584Z" fill="#48686D"/>
<path d="M181.04 697.264V763.534L155.91 749.024L155.94 682.714L181.04 697.264Z" fill="#8FB7C1" stroke="black" stroke-width="0.25" stroke-miterlimit="10"/>
<path opacity="0.62" d="M161.16 746.914L180.92 758.324V763.324L156.05 748.944L156.07 682.944L161.07 685.814C161.07 685.814 160.98 747.094 161.16 746.914Z" fill="#48686D"/>
<path d="M134.76 670.374V736.654L109.63 722.134L109.66 655.824L134.76 670.374Z" fill="#8FB7C1" stroke="black" stroke-width="0.25" stroke-miterlimit="10"/>
<path opacity="0.62" d="M114.88 720.034L134.64 731.444V736.444L109.77 722.064L109.79 656.064L114.79 658.934C114.79 658.934 114.7 720.214 114.88 720.034Z" fill="#48686D"/>
<path d="M401.77 297.624L516.16 231.504L1030.92 528.804L916.52 594.414" fill="#C8C0B9"/>
<path d="M401.77 297.624L516.16 231.504L1030.92 528.804L916.52 594.414" stroke="black" stroke-width="0.25" stroke-miterlimit="10"/>
<path d="M88.4801 643.615V709.884L63.3501 695.374L63.3801 629.054L88.4801 643.615Z" fill="#8FB7C1" stroke="black" stroke-width="0.25" stroke-miterlimit="10"/>
<path opacity="0.62" d="M68.6002 693.264L88.3602 704.674V709.674L63.4902 695.294L63.5103 629.294L68.5103 632.164C68.5103 632.164 68.4202 693.444 68.6002 693.264Z" fill="#48686D"/>
<path d="M42.2098 616.934V683.204L17.0698 668.694L17.0999 602.384L42.2098 616.934Z" fill="#8FB7C1" stroke="black" stroke-width="0.25" stroke-miterlimit="10"/>
<path opacity="0.62" d="M22.3199 666.584L42.08 677.994V682.994L17.21 668.615L17.23 602.615L22.23 605.484C22.23 605.484 22.1399 666.764 22.3199 666.584Z" fill="#48686D"/>
<path d="M515.75 628.274L572.81 595.004L629.02 627.654L686.65 594.484L572.27 528.574L457.75 594.594L515.75 628.274Z" fill="#C1B8B2" stroke="black" stroke-width="0.25" stroke-miterlimit="10"/>
<path d="M343.42 264.424L0.25 462.544L571.85 793.274L915.37 594.184L343.42 264.424ZM229.21 462.534L343.42 396.394L458.08 462.534L343.43 528.574L229.22 462.534H229.21ZM457.81 594.504L571.85 528.564L686.59 594.504L571.85 660.744L457.81 594.504Z" fill="#D9D1CA" stroke="black" stroke-width="0.25" stroke-miterlimit="10"/>
<path d="M1217.8 457.254L1246.39 440.744V473.844L1217.8 490.084V457.254Z" fill="#8FB7C1" stroke="black" stroke-width="0.25" stroke-miterlimit="10"/>
<path opacity="0.54" d="M1240.15 444.354L1246.39 440.744V473.844L1217.8 490.084V484.014L1240.15 471.115V444.354Z" fill="#48686D"/>
<path d="M1217.8 511.994L1246.39 495.484V528.584L1217.8 544.824V511.994Z" fill="#8FB7C1" stroke="black" stroke-width="0.25" stroke-miterlimit="10"/>
<path opacity="0.54" d="M1240.15 499.094L1246.39 495.484V528.584L1217.8 544.824V538.754L1240.15 525.844V499.094Z" fill="#48686D"/>
<path d="M1188.26 475.734L1159.66 475.824V508.924L1188.26 508.934V475.734Z" fill="#8FB7C1" stroke="black" stroke-width="0.25" stroke-miterlimit="10"/>
<path opacity="0.54" d="M1165.81 475.804L1159.66 475.824V508.924L1188.26 508.934V503.654L1165.9 503.644L1165.81 475.804Z" fill="#48686D"/>
<path d="M1188.26 528.224L1159.65 528.314V561.414L1188.25 561.424L1188.26 528.224Z" fill="#8FB7C1" stroke="black" stroke-width="0.25" stroke-miterlimit="10"/>
<path opacity="0.54" d="M1165.81 528.294L1159.65 528.314V561.414L1188.25 561.424V556.144L1165.89 556.134L1165.81 528.294Z" fill="#48686D"/>
<path d="M1188.26 579.814L1159.65 579.894V612.994L1188.25 613.004L1188.26 579.814Z" fill="#8FB7C1" stroke="black" stroke-width="0.25" stroke-miterlimit="10"/>
<path opacity="0.54" d="M1165.8 579.884L1159.65 579.894V612.994L1188.25 613.004V607.724H1165.89L1165.8 579.884Z" fill="#48686D"/>
<path d="M1188.26 630.744L1159.65 630.834V663.934L1188.25 663.944L1188.26 630.744Z" fill="#8FB7C1" stroke="black" stroke-width="0.25" stroke-miterlimit="10"/>
<path opacity="0.54" d="M1165.8 630.814L1159.65 630.834V663.934L1188.25 663.944V658.664L1165.89 658.654L1165.8 630.814Z" fill="#48686D"/>
<path d="M1217.8 566.724L1246.39 550.214V583.314L1217.8 599.554V566.724Z" fill="#8FB7C1" stroke="black" stroke-width="0.25" stroke-miterlimit="10"/>
<path opacity="0.54" d="M1240.15 553.824L1246.39 550.214V583.314L1217.8 599.554V593.484L1240.15 580.584V553.824Z" fill="#48686D"/>
<path d="M1217.8 621.464L1246.39 604.954V638.054L1217.8 654.294V621.464Z" fill="#8FB7C1" stroke="black" stroke-width="0.25" stroke-miterlimit="10"/>
<path opacity="0.54" d="M1240.15 608.564L1246.39 604.954V638.054L1217.8 654.294V648.224L1240.15 635.314V608.564Z" fill="#48686D"/>
<path d="M1267.42 428.314L1296.01 411.804V444.904L1267.42 461.144V428.314Z" fill="#8FB7C1" stroke="black" stroke-width="0.25" stroke-miterlimit="10"/>
<path opacity="0.54" d="M1289.77 415.414L1296.01 411.804V444.904L1267.42 461.144V455.074L1289.77 442.174V415.414Z" fill="#48686D"/>
<path d="M1267.42 483.044L1296.01 466.544V499.634L1267.42 515.884V483.044Z" fill="#8FB7C1" stroke="black" stroke-width="0.25" stroke-miterlimit="10"/>
<path opacity="0.54" d="M1289.77 470.144L1296.01 466.544V499.634L1267.42 515.884V509.804L1289.77 496.904V470.144Z" fill="#48686D"/>
<path d="M1267.42 537.784L1296.01 521.274V554.374L1267.42 570.615V537.784Z" fill="#8FB7C1" stroke="black" stroke-width="0.25" stroke-miterlimit="10"/>
<path opacity="0.54" d="M1289.77 524.884L1296.01 521.274V554.374L1267.42 570.615V564.544L1289.77 551.644V524.884Z" fill="#48686D"/>
<path d="M1267.42 592.524L1296.01 576.014V609.115L1267.42 625.354V592.524Z" fill="#8FB7C1" stroke="black" stroke-width="0.25" stroke-miterlimit="10"/>
<path opacity="0.54" d="M1289.77 579.615L1296.01 576.014V609.115L1267.42 625.354V619.274L1289.77 606.374V579.615Z" fill="#48686D"/>
<path d="M1317.03 399.374L1345.63 382.865V415.964L1317.03 432.204V399.374Z" fill="#8FB7C1" stroke="black" stroke-width="0.25" stroke-miterlimit="10"/>
<path opacity="0.54" d="M1339.38 386.464L1345.63 382.865V415.964L1317.03 432.204V426.124L1339.38 413.224V386.464Z" fill="#48686D"/>
<path d="M1317.03 454.104L1345.63 437.594V470.694L1317.03 486.934V454.104Z" fill="#8FB7C1" stroke="black" stroke-width="0.25" stroke-miterlimit="10"/>
<path opacity="0.54" d="M1339.38 441.204L1345.63 437.594V470.694L1317.03 486.934V480.865L1339.38 467.964V441.204Z" fill="#48686D"/>
<path d="M1317.03 508.844L1345.63 492.334V525.434L1317.03 541.674V508.844Z" fill="#8FB7C1" stroke="black" stroke-width="0.25" stroke-miterlimit="10"/>
<path opacity="0.54" d="M1339.38 495.934L1345.63 492.334V525.434L1317.03 541.674V535.604L1339.38 522.694V495.934Z" fill="#48686D"/>
<path d="M1317.03 563.574L1345.63 547.064V580.164L1317.03 596.404V563.574Z" fill="#8FB7C1" stroke="black" stroke-width="0.25" stroke-miterlimit="10"/>
<path opacity="0.54" d="M1339.38 550.674L1345.63 547.064V580.164L1317.03 596.404V590.334L1339.38 577.434V550.674Z" fill="#48686D"/>
<path d="M1366.65 370.424L1395.24 353.914V387.014L1366.65 403.254V370.424Z" fill="#8FB7C1" stroke="black" stroke-width="0.25" stroke-miterlimit="10"/>
<path opacity="0.54" d="M1389 357.524L1395.24 353.914V387.014L1366.65 403.254V397.184L1389 384.284V357.524Z" fill="#48686D"/>
<path d="M1366.65 425.164L1395.24 408.654V441.754L1366.65 457.994V425.164Z" fill="#8FB7C1" stroke="black" stroke-width="0.25" stroke-miterlimit="10"/>
<path opacity="0.54" d="M1389 412.264L1395.24 408.654V441.754L1366.65 457.994V451.924L1389 439.014V412.264Z" fill="#48686D"/>
<path d="M1366.65 479.894L1395.24 463.394V496.484L1366.65 512.734V479.894Z" fill="#8FB7C1" stroke="black" stroke-width="0.25" stroke-miterlimit="10"/>
<path opacity="0.54" d="M1389 466.994L1395.24 463.394V496.484L1366.65 512.734V506.654L1389 493.754V466.994Z" fill="#48686D"/>
<path d="M1366.65 534.634L1395.24 518.124V551.224L1366.65 567.464V534.634Z" fill="#8FB7C1" stroke="black" stroke-width="0.25" stroke-miterlimit="10"/>
<path opacity="0.54" d="M1389 521.734L1395.24 518.124V551.224L1366.65 567.464V561.394L1389 548.494V521.734Z" fill="#48686D"/>
<path d="M1416.27 341.484L1444.86 324.974V358.074L1416.27 374.314V341.484Z" fill="#8FB7C1" stroke="black" stroke-width="0.25" stroke-miterlimit="10"/>
<path opacity="0.54" d="M1438.62 328.584L1444.86 324.974V358.074L1416.27 374.314V368.244L1438.62 355.344V328.584Z" fill="#48686D"/>
<path d="M1416.27 396.214L1444.86 379.714V412.804L1416.27 429.054V396.214Z" fill="#8FB7C1" stroke="black" stroke-width="0.25" stroke-miterlimit="10"/>
<path opacity="0.54" d="M1438.62 383.314L1444.86 379.714V412.804L1416.27 429.054V422.974L1438.62 410.074V383.314Z" fill="#48686D"/>
<path d="M1416.27 450.954L1444.86 434.444V467.544L1416.27 483.784V450.954Z" fill="#8FB7C1" stroke="black" stroke-width="0.25" stroke-miterlimit="10"/>
<path opacity="0.54" d="M1438.62 438.054L1444.86 434.444V467.544L1416.27 483.784V477.714L1438.62 464.814V438.054Z" fill="#48686D"/>
<path d="M1416.27 505.694L1444.86 489.184V522.284L1416.27 538.524V505.694Z" fill="#8FB7C1" stroke="black" stroke-width="0.25" stroke-miterlimit="10"/>
<path opacity="0.54" d="M1438.62 492.784L1444.86 489.184V522.284L1416.27 538.524V532.444L1438.62 519.544V492.784Z" fill="#48686D"/>
<path d="M1465.89 312.544L1494.48 296.034V329.134L1465.89 345.374V312.544Z" fill="#8FB7C1" stroke="black" stroke-width="0.25" stroke-miterlimit="10"/>
<path opacity="0.54" d="M1488.23 299.634L1494.48 296.034V329.134L1465.89 345.374V339.294L1488.23 326.394V299.634Z" fill="#48686D"/>
<path d="M1465.89 367.274L1494.48 350.764V383.865L1465.89 400.104V367.274Z" fill="#8FB7C1" stroke="black" stroke-width="0.25" stroke-miterlimit="10"/>
<path opacity="0.54" d="M1488.23 354.374L1494.48 350.764V383.865L1465.89 400.104V394.034L1488.23 381.134V354.374Z" fill="#48686D"/>
<path d="M1465.89 422.014L1494.48 405.504V438.604L1465.89 454.844V422.014Z" fill="#8FB7C1" stroke="black" stroke-width="0.25" stroke-miterlimit="10"/>
<path opacity="0.54" d="M1488.23 409.104L1494.48 405.504V438.604L1465.89 454.844V448.774L1488.23 435.865V409.104Z" fill="#48686D"/>
<path d="M1465.89 476.744L1494.48 460.234V493.334L1465.89 509.574V476.744Z" fill="#8FB7C1" stroke="black" stroke-width="0.25" stroke-miterlimit="10"/>
<path opacity="0.54" d="M1488.23 463.844L1494.48 460.234V493.334L1465.89 509.574V503.504L1488.23 490.604V463.844Z" fill="#48686D"/>
<path d="M1515.5 283.594L1544.1 267.084V300.184L1515.5 316.424V283.594Z" fill="#8FB7C1" stroke="black" stroke-width="0.25" stroke-miterlimit="10"/>
<path opacity="0.54" d="M1537.85 270.694L1544.1 267.084V300.184L1515.5 316.424V310.354L1537.85 297.454V270.694Z" fill="#48686D"/>
<path d="M1515.5 338.334L1544.1 321.824V354.924L1515.5 371.164V338.334Z" fill="#8FB7C1" stroke="black" stroke-width="0.25" stroke-miterlimit="10"/>
<path opacity="0.54" d="M1537.85 325.434L1544.1 321.824V354.924L1515.5 371.164V365.094L1537.85 352.194V325.434Z" fill="#48686D"/>
<path d="M1515.5 393.064L1544.1 376.564V409.654L1515.5 425.904V393.064Z" fill="#8FB7C1" stroke="black" stroke-width="0.25" stroke-miterlimit="10"/>
<path opacity="0.54" d="M1537.85 380.164L1544.1 376.564V409.654L1515.5 425.904V419.824L1537.85 406.924V380.164Z" fill="#48686D"/>
<path d="M1515.5 447.804L1544.1 431.294V464.394L1515.5 480.634V447.804Z" fill="#8FB7C1" stroke="black" stroke-width="0.25" stroke-miterlimit="10"/>
<path opacity="0.54" d="M1537.85 434.904L1544.1 431.294V464.394L1515.5 480.634V474.564L1537.85 461.664V434.904Z" fill="#48686D"/>
<path d="M1565.12 254.654L1593.71 238.144V271.244L1565.12 287.484V254.654Z" fill="#8FB7C1" stroke="black" stroke-width="0.25" stroke-miterlimit="10"/>
<path opacity="0.54" d="M1587.47 241.754L1593.71 238.144V271.244L1565.12 287.484V281.414L1587.47 268.514V241.754Z" fill="#48686D"/>
<path d="M1565.12 309.394L1593.71 292.884V325.984L1565.12 342.224V309.394Z" fill="#8FB7C1" stroke="black" stroke-width="0.25" stroke-miterlimit="10"/>
<path opacity="0.54" d="M1587.47 296.484L1593.71 292.884V325.984L1565.12 342.224V336.144L1587.47 323.244V296.484Z" fill="#48686D"/>
<path d="M1565.12 364.124L1593.71 347.615V380.714L1565.12 396.954V364.124Z" fill="#8FB7C1" stroke="black" stroke-width="0.25" stroke-miterlimit="10"/>
<path opacity="0.54" d="M1587.47 351.224L1593.71 347.615V380.714L1565.12 396.954V390.884L1587.47 377.984V351.224Z" fill="#48686D"/>
<path d="M1565.12 418.865L1593.71 402.354V435.454L1565.12 451.694V418.865Z" fill="#8FB7C1" stroke="black" stroke-width="0.25" stroke-miterlimit="10"/>
<path opacity="0.54" d="M1587.47 405.954L1593.71 402.354V435.454L1565.12 451.694V445.615L1587.47 432.714V405.954Z" fill="#48686D"/>
<path d="M344.58 273.484L17.21 462.564L571.84 782.034L898.4 593.034L344.58 273.494V273.484ZM209.32 461.954L345.46 383.354L480.69 462.444L345.46 540.464L209.32 461.954ZM436.71 594.354L572.85 515.754L708.08 594.844L572.85 672.865L436.71 594.354Z" fill="#D9D1CA" stroke="black" stroke-width="0.25" stroke-miterlimit="10"/>
<path d="M803.24 9.95435L475.87 199.034L1030.5 518.504L1584.93 196.954L1490.67 142.664L1260.01 273.504L803.24 9.95435ZM667.98 198.424L804.12 119.824L939.35 198.914L804.12 276.934L667.98 198.424ZM895.37 330.824L1031.51 252.224L1166.74 331.314L1031.51 409.334L895.37 330.824Z" fill="#D9D1CA" stroke="black" stroke-width="0.25" stroke-miterlimit="10"/>
<path d="M1068.43 602.384L894.64 699.524L868.48 1068.67L1039.81 969.324L1039.71 840.544L1068.43 621.024V602.384Z" fill="#965B32" stroke="black" stroke-width="0.25" stroke-miterlimit="10"/>
<path d="M957.5 682.744L982.54 668.174V1002.53L957.5 1017.14V682.744Z" fill="#D9D1CA" stroke="black" stroke-width="0.25" stroke-miterlimit="10"/>
<path d="M1012.82 652.954L1023.66 646.724V816.414L1012.82 822.674V652.954Z" fill="#D9D1CA" stroke="black" stroke-width="0.25" stroke-miterlimit="10"/>
<path opacity="0.55" d="M918.46 692.874V707.804L901.73 698.144L899.99 712.384L918.46 723.044L1066.46 637.944L1069.94 609.554L918.46 692.874Z" fill="#6B3418" stroke="black" stroke-width="0.25" stroke-miterlimit="10"/>
<path d="M868.48 1068.67L696.82 969.214L726.04 582.684L902.45 684.544L868.48 1068.67Z" fill="#6B3418" stroke="black" stroke-width="0.25" stroke-miterlimit="10"/>
<path d="M918.02 528.464L1088.22 430.204V609.654L918.02 707.384V528.464Z" fill="#965B32" stroke="black" stroke-width="0.25" stroke-miterlimit="10"/>
<path d="M1088.22 430.204L856.96 296.954L686.59 395.504L918.02 528.464L1088.22 430.204Z" fill="#9B7762" stroke="black" stroke-width="0.25" stroke-miterlimit="10"/>
<path d="M686.59 395.504V573.774L918.02 707.384V528.464L686.59 395.504Z" fill="#6B3418" stroke="black" stroke-width="0.25" stroke-miterlimit="10"/>
<path d="M1071.75 429.014L859.46 306.694L703.07 397.154L915.51 519.214L1071.75 429.014Z" fill="#7A5B4B" stroke="black" stroke-width="0.25" stroke-miterlimit="10"/>
<path d="M982.54 576.094L1005.99 562.444L1007.58 655.964L982.54 670.334V576.094Z" fill="#D9D1CA" stroke="black" stroke-width="0.25" stroke-miterlimit="10"/>
</svg>
