<?xml version="1.0" encoding="UTF-8"?>
<svg xmlns="http://www.w3.org/2000/svg" xmlns:xlink="http://www.w3.org/1999/xlink" viewBox="0 0 3774.03 4350.52">
  <defs>
    <style>
      .cls-1, .cls-2, .cls-3, .cls-4 {
        fill: none;
      }

      .cls-5, .cls-6, .cls-7, .cls-8, .cls-9, .cls-10, .cls-11, .cls-12, .cls-13, .cls-14, .cls-15, .cls-16, .cls-17, .cls-18, .cls-19, .cls-20, .cls-21, .cls-22, .cls-23, .cls-2, .cls-24, .cls-3, .cls-25, .cls-26, .cls-27, .cls-28, .cls-29, .cls-30, .cls-31, .cls-32, .cls-33, .cls-4, .cls-34, .cls-35 {
        stroke-miterlimit: 10;
      }

      .cls-5, .cls-6, .cls-7, .cls-8, .cls-9, .cls-10, .cls-11, .cls-12, .cls-13, .cls-14, .cls-15, .cls-16, .cls-17, .cls-18, .cls-19, .cls-20, .cls-21, .cls-22, .cls-23, .cls-2, .cls-24, .cls-3, .cls-25, .cls-26, .cls-27, .cls-28, .cls-29, .cls-30, .cls-31, .cls-32, .cls-33, .cls-34, .cls-35 {
        stroke-width: .25px;
      }

      .cls-5, .cls-6, .cls-7, .cls-8, .cls-9, .cls-10, .cls-12, .cls-13, .cls-14, .cls-15, .cls-16, .cls-17, .cls-18, .cls-19, .cls-20, .cls-21, .cls-22, .cls-23, .cls-24, .cls-3, .cls-25, .cls-26, .cls-27, .cls-28, .cls-29, .cls-30, .cls-31, .cls-32, .cls-33, .cls-34, .cls-35 {
        stroke: #000;
      }

      .cls-5, .cls-20 {
        fill: #afc4c0;
      }

      .cls-36 {
        fill: #7f969b;
        opacity: .44;
      }

      .cls-36, .cls-37, .cls-32, .cls-38, .cls-39, .cls-40, .cls-35 {
        isolation: isolate;
      }

      .cls-6 {
        fill: #9b7762;
      }

      .cls-41 {
        fill: #eaeaea;
      }

      .cls-7 {
        fill: #965b32;
      }

      .cls-42, .cls-33 {
        fill: #7fa6b8;
      }

      .cls-8 {
        fill: #ccc;
      }

      .cls-9 {
        fill: #e6ded2;
      }

      .cls-10 {
        fill: #94493d;
      }

      .cls-11 {
        fill: #c3c1c2;
        stroke: #8e8a95;
      }

      .cls-11, .cls-18, .cls-20 {
        fill-rule: evenodd;
      }

      .cls-12, .cls-18 {
        fill: #c7d9d5;
      }

      .cls-13 {
        fill: #ddd3c7;
      }

      .cls-14 {
        fill: #e6ddd6;
      }

      .cls-15 {
        fill: #e7e5e3;
      }

      .cls-43, .cls-29 {
        fill: #d8d8d6;
      }

      .cls-16 {
        fill: #c8c0b9;
      }

      .cls-17 {
        fill: #c1b8b2;
      }

      .cls-19 {
        fill: #8b8e8f;
      }

      .cls-44 {
        fill: #d48900;
      }

      .cls-45 {
        clip-path: url(#clippath-11);
      }

      .cls-46 {
        clip-path: url(#clippath-10);
      }

      .cls-47 {
        clip-path: url(#clippath-12);
      }

      .cls-48 {
        clip-path: url(#clippath-1);
      }

      .cls-49 {
        clip-path: url(#clippath-3);
      }

      .cls-50 {
        clip-path: url(#clippath-4);
      }

      .cls-51 {
        clip-path: url(#clippath-2);
      }

      .cls-52 {
        clip-path: url(#clippath-7);
      }

      .cls-53 {
        clip-path: url(#clippath-6);
      }

      .cls-54 {
        clip-path: url(#clippath-9);
      }

      .cls-55 {
        clip-path: url(#clippath-8);
      }

      .cls-56 {
        clip-path: url(#clippath-5);
      }

      .cls-21 {
        fill: #d9d1ca;
      }

      .cls-22, .cls-35 {
        fill: #6b3418;
      }

      .cls-57 {
        fill: #e3ece9;
      }

      .cls-23 {
        fill: #84acb2;
      }

      .cls-58 {
        fill: #c5c5c5;
      }

      .cls-2 {
        stroke: #d1e3da;
      }

      .cls-24 {
        fill: #e8ded2;
      }

      .cls-25 {
        fill: #fff2e9;
      }

      .cls-26 {
        fill: #60605f;
      }

      .cls-27 {
        fill: #7a5b4b;
      }

      .cls-28 {
        fill: #b95d4c;
      }

      .cls-59, .cls-30 {
        fill: #8fb7c1;
      }

      .cls-31 {
        fill: #a85142;
      }

      .cls-32, .cls-38 {
        opacity: .25;
      }

      .cls-32, .cls-38, .cls-39, .cls-40 {
        fill: #48686d;
      }

      .cls-60 {
        fill: #dcdcdc;
      }

      .cls-61 {
        clip-path: url(#clippath);
      }

      .cls-39 {
        opacity: .62;
      }

      .cls-40 {
        opacity: .54;
      }

      .cls-62 {
        fill: #898989;
      }

      .cls-4 {
        stroke: #c8dce2;
      }

      .cls-34 {
        fill: #c2bcb7;
      }

      .cls-35 {
        opacity: .55;
      }
    </style>
    <clipPath id="clippath">
      <polygon class="cls-1" points="2306.49 2531.23 2306.5 2527.49 2403.62 2583.56 2403.61 2587.29 2306.49 2531.23"/>
    </clipPath>
    <clipPath id="clippath-1">
      <polygon class="cls-1" points="2304.49 2558.18 2304.53 2545.98 2315.15 2552.11 2315.12 2564.32 2304.49 2558.18"/>
    </clipPath>
    <clipPath id="clippath-2">
      <polygon class="cls-1" points="2304.52 2558.19 2304.55 2547.19 2313.69 2552.46 2313.66 2563.47 2304.52 2558.19"/>
    </clipPath>
    <clipPath id="clippath-3">
      <polygon class="cls-1" points="2322.56 2569.65 2322.6 2557.44 2333.22 2563.58 2333.19 2575.79 2322.56 2569.65"/>
    </clipPath>
    <clipPath id="clippath-4">
      <polygon class="cls-1" points="2322.59 2569.66 2322.62 2558.66 2331.76 2563.93 2331.73 2574.93 2322.59 2569.66"/>
    </clipPath>
    <clipPath id="clippath-5">
      <polygon class="cls-1" points="2340.63 2581.12 2340.67 2568.91 2351.29 2575.05 2351.26 2587.25 2340.63 2581.12"/>
    </clipPath>
    <clipPath id="clippath-6">
      <polygon class="cls-1" points="2340.66 2581.13 2340.69 2570.12 2349.83 2575.4 2349.8 2586.4 2340.66 2581.13"/>
    </clipPath>
    <clipPath id="clippath-7">
      <polygon class="cls-1" points="2358.7 2592.58 2358.74 2580.37 2369.37 2586.51 2369.33 2598.72 2358.7 2592.58"/>
    </clipPath>
    <clipPath id="clippath-8">
      <polygon class="cls-1" points="2358.73 2592.59 2358.76 2581.59 2367.9 2586.86 2367.87 2597.87 2358.73 2592.59"/>
    </clipPath>
    <clipPath id="clippath-9">
      <polygon class="cls-1" points="2376.77 2604.05 2376.81 2591.84 2387.44 2597.98 2387.4 2610.19 2376.77 2604.05"/>
    </clipPath>
    <clipPath id="clippath-10">
      <polygon class="cls-1" points="2376.8 2604.06 2376.83 2593.06 2385.97 2598.33 2385.94 2609.34 2376.8 2604.06"/>
    </clipPath>
    <clipPath id="clippath-11">
      <polygon class="cls-1" points="2394.85 2615.51 2394.89 2603.31 2405.51 2609.44 2405.47 2621.65 2394.85 2615.51"/>
    </clipPath>
    <clipPath id="clippath-12">
      <polygon class="cls-1" points="2394.88 2615.52 2394.91 2604.52 2404.04 2609.8 2404.01 2620.8 2394.88 2615.52"/>
    </clipPath>
  </defs>
  <g id="Layer_3" data-name="Layer 3">
    <g>
      <g id="big_windows" data-name="big windows">
        <polygon class="cls-33" points="2232.58 2330.95 2539.18 2510.65 2539.18 2612.72 2232.58 2430.43 2232.58 2330.95"/>
        <polygon class="cls-42" points="2652.75 2284.8 2652.75 2263.6 2508.49 2346.96 2508.49 2368.16 2652.75 2284.8"/>
        <g>
          <line class="cls-2" x1="2425.27" y1="2547.73" x2="2425.27" y2="2450.78"/>
          <line class="cls-2" x1="2412.75" y1="2540.02" x2="2412.75" y2="2443.07"/>
          <line class="cls-2" x1="2400.23" y1="2532.83" x2="2400.23" y2="2435.87"/>
          <line class="cls-2" x1="2387.71" y1="2525.12" x2="2387.72" y2="2428.17"/>
          <line class="cls-2" x1="2375.19" y1="2517.92" x2="2375.2" y2="2420.98"/>
          <line class="cls-2" x1="2362.67" y1="2510.73" x2="2362.68" y2="2413.78"/>
          <line class="cls-2" x1="2350.16" y1="2503.53" x2="2350.16" y2="2406.58"/>
          <line class="cls-2" x1="2337.64" y1="2495.83" x2="2337.64" y2="2398.88"/>
        </g>
        <g>
          <line class="cls-2" x1="2324.21" y1="2485.69" x2="2324.21" y2="2388.73"/>
          <line class="cls-2" x1="2311.69" y1="2477.98" x2="2311.69" y2="2381.03"/>
          <line class="cls-2" x1="2299.17" y1="2470.78" x2="2299.18" y2="2373.83"/>
          <line class="cls-2" x1="2286.65" y1="2463.08" x2="2286.66" y2="2366.13"/>
          <line class="cls-2" x1="2274.14" y1="2455.88" x2="2274.14" y2="2358.93"/>
          <line class="cls-2" x1="2261.62" y1="2448.69" x2="2261.62" y2="2351.73"/>
          <line class="cls-2" x1="2249.1" y1="2441.49" x2="2249.1" y2="2344.54"/>
          <line class="cls-2" x1="2236.58" y1="2433.78" x2="2236.58" y2="2336.83"/>
        </g>
        <g>
          <line class="cls-2" x1="2312.17" y1="2401.27" x2="2425.69" y2="2466.84"/>
          <line class="cls-2" x1="2312.17" y1="2415.8" x2="2425.69" y2="2481.37"/>
          <line class="cls-2" x1="2312.17" y1="2430.33" x2="2425.69" y2="2495.9"/>
          <line class="cls-2" x1="2312.17" y1="2444.86" x2="2425.69" y2="2510.43"/>
          <line class="cls-2" x1="2312.17" y1="2459.39" x2="2425.69" y2="2524.96"/>
          <line class="cls-2" x1="2312.17" y1="2473.92" x2="2425.69" y2="2539.49"/>
        </g>
        <g>
          <line class="cls-2" x1="2232.58" y1="2355.2" x2="2312.11" y2="2401.14"/>
          <line class="cls-2" x1="2223.75" y1="2364.63" x2="2312.11" y2="2415.67"/>
          <line class="cls-2" x1="2198.59" y1="2364.63" x2="2312.11" y2="2430.2"/>
          <line class="cls-2" x1="2198.59" y1="2379.16" x2="2312.11" y2="2444.74"/>
          <line class="cls-2" x1="2198.59" y1="2393.7" x2="2312.11" y2="2459.26"/>
          <line class="cls-2" x1="2198.59" y1="2408.22" x2="2312.11" y2="2473.79"/>
        </g>
        <polygon class="cls-33" points="2539.18 2612.72 2539.18 2510.65 2652.75 2445.09 2652.75 2547.07 2539.18 2612.72"/>
        <g>
          <line class="cls-2" x1="2652.75" y1="2466.97" x2="2539.22" y2="2532.54"/>
          <line class="cls-2" x1="2652.75" y1="2481.5" x2="2539.22" y2="2547.07"/>
          <line class="cls-2" x1="2652.75" y1="2277.22" x2="2524.1" y2="2351.53"/>
          <line class="cls-2" x1="2652.75" y1="2496.03" x2="2539.22" y2="2561.6"/>
          <line class="cls-2" x1="2652.75" y1="2510.56" x2="2539.22" y2="2576.13"/>
          <line class="cls-2" x1="2652.75" y1="2525.09" x2="2539.22" y2="2590.66"/>
          <line class="cls-2" x1="2652.75" y1="2539.62" x2="2539.22" y2="2605.19"/>
        </g>
        <g>
          <line class="cls-2" x1="2551.7" y1="2606" x2="2551.7" y2="2509.05"/>
          <line class="cls-2" x1="2564.22" y1="2598.3" x2="2564.21" y2="2501.34"/>
          <line class="cls-2" x1="2576.74" y1="2591.1" x2="2576.73" y2="2494.15"/>
          <line class="cls-2" x1="2589.25" y1="2583.4" x2="2589.25" y2="2486.45"/>
          <line class="cls-2" x1="2601.77" y1="2576.2" x2="2601.77" y2="2479.25"/>
          <line class="cls-2" x1="2614.29" y1="2569" x2="2614.29" y2="2472.05"/>
          <line class="cls-2" x1="2626.81" y1="2561.81" x2="2626.8" y2="2464.86"/>
          <line class="cls-2" x1="2639.33" y1="2554.1" x2="2639.32" y2="2457.15"/>
        </g>
        <g>
          <line class="cls-2" x1="2530.79" y1="2430.67" x2="2530.78" y2="2333.72"/>
          <line class="cls-2" x1="2543.31" y1="2422.96" x2="2543.3" y2="2326.01"/>
          <line class="cls-2" x1="2555.82" y1="2415.77" x2="2555.82" y2="2318.81"/>
          <line class="cls-2" x1="2568.34" y1="2408.06" x2="2568.34" y2="2311.11"/>
          <line class="cls-2" x1="2580.86" y1="2400.87" x2="2580.86" y2="2303.91"/>
          <line class="cls-2" x1="2593.38" y1="2393.67" x2="2593.38" y2="2296.72"/>
          <line class="cls-2" x1="2605.89" y1="2386.48" x2="2605.89" y2="2289.52"/>
          <line class="cls-2" x1="2618.41" y1="2378.77" x2="2618.41" y2="2281.81"/>
        </g>
        <g>
          <line class="cls-2" x1="2631.54" y1="2371.15" x2="2631.54" y2="2274.19"/>
          <line class="cls-2" x1="2644.06" y1="2363.44" x2="2644.05" y2="2266.49"/>
        </g>
        <g>
          <line class="cls-2" x1="2425.66" y1="2466.97" x2="2539.18" y2="2532.54"/>
          <line class="cls-2" x1="2425.66" y1="2481.5" x2="2539.18" y2="2547.07"/>
          <line class="cls-2" x1="2425.66" y1="2496.03" x2="2539.18" y2="2561.6"/>
          <line class="cls-2" x1="2425.66" y1="2510.56" x2="2539.18" y2="2576.13"/>
          <line class="cls-2" x1="2425.66" y1="2525.09" x2="2539.18" y2="2590.66"/>
          <line class="cls-2" x1="2425.66" y1="2539.62" x2="2539.18" y2="2605.19"/>
        </g>
        <g>
          <line class="cls-2" x1="2526.78" y1="2605.23" x2="2526.78" y2="2508.28"/>
          <line class="cls-2" x1="2514.26" y1="2597.53" x2="2514.26" y2="2500.58"/>
          <line class="cls-2" x1="2501.74" y1="2590.33" x2="2501.74" y2="2493.38"/>
          <line class="cls-2" x1="2489.23" y1="2582.63" x2="2489.23" y2="2485.67"/>
          <line class="cls-2" x1="2476.71" y1="2575.43" x2="2476.71" y2="2478.48"/>
          <line class="cls-2" x1="2464.19" y1="2568.23" x2="2464.19" y2="2471.28"/>
          <line class="cls-2" x1="2451.67" y1="2561.04" x2="2451.68" y2="2464.08"/>
          <line class="cls-2" x1="2439.15" y1="2553.33" x2="2439.16" y2="2456.38"/>
        </g>
      </g>
      <g id="corp_1" data-name="corp 1">
        <path class="cls-29" d="M2783.19,2340.64l8.36-4.83s12.03,5.67,12.62,19c.59,13.33,0,104.84,0,104.84l-151.42,87.42v-131.07l111.97-64.65"/>
        <path class="cls-11" d="M2760.45,2353.63c17.33,1.9,12.5,29.05,12.62,60.43.07,19.28-.11,43.16-.11,63.48l18.71-10.66c0-20.31.24-44.55.17-63.83-.11-31.37,4.71-58.53-12.62-60.43l-18.77,11.01h0Z"/>
        <path class="cls-11" d="M2728.22,2372.24c17.33,1.9,12.5,29.05,12.62,60.43.07,19.28-.11,43.16-.11,63.48l18.8-10.72c0-20.31.16-44.5.09-63.77-.11-31.37,4.71-58.53-12.62-60.43l-18.77,11.01Z"/>
        <path class="cls-11" d="M2695.98,2390.86c17.33,1.9,12.5,29.05,12.62,60.43.07,19.28-.11,43.16-.11,63.48l18.79-10.72c0-20.31.17-44.49.1-63.77-.11-31.37,4.71-58.53-12.62-60.43l-18.77,11.01h0Z"/>
        <path class="cls-11" d="M2663.75,2409.48c17.33,1.9,12.5,29.05,12.62,60.43.07,19.28-.11,43.16-.11,63.48l18.81-10.74c0-20.31.14-44.47.07-63.74-.11-31.37,4.71-58.53-12.62-60.43l-18.77,11.01h0Z"/>
        <path class="cls-15" d="M2689.67,2277l101.88,58.81-138.8,80.19-113.57-65.61,127.11-73.38c7.24-4.17,16.14-4.17,23.38,0h0Z"/>
        <polygon class="cls-34" points="2539.18 2350.38 2652.75 2416 2652.75 2438 2539.18 2372.71 2539.18 2350.38"/>
      </g>
      <g id="other">
        <path class="cls-29" d="M2493.19,2523.74l9.12-5.14s12.34,8.25,12.69,16.24c.36,7.99,0,78.89,0,78.89l-100.95,57.73.19-101.88,69.31-40.12,9.63-5.72h0Z"/>
        <path class="cls-11" d="M2465.47,2539.92c13.47,1.47,9.73,22.6,9.81,46.99.06,14.99-.09,33.57-.09,49.37l14.61-8.33c0-15.8.13-34.6.08-49.6-.09-24.4,3.66-45.52-9.81-46.99l-14.6,8.56h0Z"/>
        <path class="cls-11" d="M2440.41,2554.39c13.47,1.47,9.73,22.6,9.81,46.99.06,14.99-.09,33.57-.09,49.37l14.63-8.35c0-15.8.11-34.59.06-49.58-.09-24.4,3.66-45.52-9.81-46.99l-14.6,8.56h0Z"/>
        <polygon class="cls-29" points="2185.87 2539.79 2294.77 2477.65 2293.36 2397.66 2185.98 2459.65 2185.87 2539.79"/>
        <polygon class="cls-33" points="2337.39 2598.21 2211.21 2525.36 2211.21 2418.24 2337.39 2492.76 2337.39 2598.21"/>
        <path class="cls-15" d="M2116.68,2398.99l79.49-44.85c6.92-3.91,15.4-3.86,22.27.13l74.91,43.39-88.65,51.18-88.04-49.85h0Z"/>
        <polygon class="cls-15" points="2384.72 2450.54 2295.81 2501.23 2414.24 2569.57 2502.3 2518.59 2384.72 2450.54"/>
        <path class="cls-16" d="M2110.16,2496.08l75.71,43.71v-101.78l-64.92-37.66-1.94-1.12c-2.34-1.36-5.78,1.5-7.34,3.29-1.75,2-1.52,6.11-1.52,7.49v86.08h0Z"/>
        <polygon class="cls-29" points="2443.64 2383.01 2526.71 2335.62 2525.63 2274.61 2443.73 2321.9 2443.64 2383.01"/>
        <path class="cls-15" d="M2366.83,2289.19l84.67-47.77c5.28-2.98,11.74-2.94,16.99.1l57.14,33.1-93.39,53.92-65.4-39.35h0Z"/>
        <path class="cls-11" d="M2163.24,2424.91c-13.47,1.47-9.73,22.6-9.81,46.99-.06,14.99.09,33.57.09,49.37l-14.63-8.35c0-15.8-.11-34.59-.06-49.58.09-24.4-3.66-45.52,9.81-46.99l14.6,8.56Z"/>
        <g>
          <line class="cls-2" x1="2194.54" y1="2436.17" x2="2308.07" y2="2501.74"/>
          <line class="cls-2" x1="2194.54" y1="2450.71" x2="2308.07" y2="2516.28"/>
          <line class="cls-2" x1="2194.54" y1="2465.24" x2="2308.07" y2="2530.8"/>
          <line class="cls-2" x1="2194.54" y1="2479.76" x2="2308.07" y2="2545.34"/>
          <line class="cls-2" x1="2194.54" y1="2494.3" x2="2308.07" y2="2559.87"/>
          <line class="cls-2" x1="2194.54" y1="2508.83" x2="2308.07" y2="2574.4"/>
        </g>
        <g>
          <line class="cls-2" x1="2295.11" y1="2574.44" x2="2295.11" y2="2477.49"/>
          <line class="cls-2" x1="2282.6" y1="2566.73" x2="2282.6" y2="2469.78"/>
          <line class="cls-2" x1="2270.08" y1="2559.54" x2="2270.08" y2="2462.58"/>
          <line class="cls-2" x1="2257.56" y1="2551.83" x2="2257.56" y2="2454.88"/>
          <line class="cls-2" x1="2245.04" y1="2544.64" x2="2245.05" y2="2447.68"/>
          <line class="cls-2" x1="2232.52" y1="2537.44" x2="2232.53" y2="2440.48"/>
          <line class="cls-2" x1="2220.01" y1="2530.24" x2="2220.01" y2="2433.29"/>
          <line class="cls-2" x1="2207.49" y1="2522.54" x2="2207.49" y2="2425.59"/>
        </g>
        <polygon class="cls-34" points="2414.04 2671.45 2414.24 2569.57 2295.81 2501.23 2295.81 2603.19 2414.04 2671.45"/>
        <polygon class="cls-43" points="2295.81 2576.95 2414.04 2645.21 2414.04 2671.45 2295.81 2603.19 2295.81 2576.95"/>
        <polygon class="cls-42" points="2301.46 2583.17 2405.32 2643.13 2405.32 2663.2 2301.46 2603.23 2301.46 2583.17"/>
        <g>
          <line class="cls-2" x1="2301.6" y1="2588.04" x2="2386.04" y2="2636.81"/>
          <line class="cls-2" x1="2301.46" y1="2599.43" x2="2386.04" y2="2648.29"/>
          <line class="cls-2" x1="2386.04" y1="2636.77" x2="2405.37" y2="2647.94"/>
          <line class="cls-2" x1="2386.04" y1="2648.25" x2="2405.32" y2="2659.39"/>
          <line class="cls-2" x1="2375.82" y1="2646.16" x2="2375.82" y2="2626.1"/>
          <line class="cls-2" x1="2365.93" y1="2640.45" x2="2365.93" y2="2620.39"/>
          <line class="cls-2" x1="2356.04" y1="2634.75" x2="2356.04" y2="2614.68"/>
          <line class="cls-2" x1="2346.15" y1="2629.04" x2="2346.15" y2="2608.97"/>
          <line class="cls-2" x1="2336.26" y1="2623.18" x2="2336.27" y2="2603.26"/>
          <line class="cls-2" x1="2326.38" y1="2617.62" x2="2326.38" y2="2597.56"/>
          <line class="cls-2" x1="2316.49" y1="2611.91" x2="2316.49" y2="2591.85"/>
          <line class="cls-2" x1="2306.61" y1="2606.21" x2="2306.61" y2="2586.13"/>
          <line class="cls-2" x1="2386.04" y1="2652.07" x2="2386.04" y2="2631.99"/>
          <line class="cls-2" x1="2395.93" y1="2657.98" x2="2395.93" y2="2637.91"/>
        </g>
      </g>
      <g id="entrance">
        <g>
          <polygon class="cls-29" points="2238.1 2528.49 2227.42 2534.59 2258.14 2552.32 2268.38 2546.47 2238.1 2528.49"/>
          <polygon class="cls-19" points="2227.42 2536.38 2227.42 2534.59 2258.14 2552.32 2258.14 2554.48 2227.42 2536.38"/>
          <polygon class="cls-19" points="2224.54 2537.63 2258.14 2557.41 2258.14 2559.34 2224.54 2539.5 2224.54 2537.63"/>
          <polygon class="cls-19" points="2221.43 2542.95 2221.43 2540.9 2258.14 2562.25 2258.14 2564.14 2221.43 2542.95"/>
          <path class="cls-19" d="M2254.98,2565.3l-36.37-21.14v1.75l34.96,20.49c.28-.51.75-.93,1.4-1.1Z"/>
          <path class="cls-19" d="M2251.3,2568.11l-35.65-20.79v1.69l34.09,20.02c.06-.05,1.52-.89,1.57-.93h0Z"/>
          <path class="cls-19" d="M2247.03,2570.63l-34.22-20.18v1.87l32.65,19.21c1.03-.59.38-.21,1.58-.9h0Z"/>
          <polygon class="cls-29" points="2224.54 2537.63 2227.42 2536.38 2258.14 2554.48 2258.14 2557.41 2224.54 2537.63"/>
          <polygon class="cls-29" points="2221.43 2540.9 2224.54 2539.5 2258.14 2559.34 2258.14 2562.25 2221.43 2540.9"/>
          <path class="cls-29" d="M2256.11,2562.97l-34.68-20.02-2.82,1.21,36.41,21.17c-.06-.91.31-1.85,1.09-2.36h0Z"/>
          <path class="cls-29" d="M2253.01,2566.08l-34.4-20.16-2.9,1.45,35.51,20.7c.15-.92.75-1.75,1.79-1.99h0Z"/>
          <path class="cls-29" d="M2248.84,2569.29c.1,0,.19,0,.28.02.11-.04.23-.07.36-.09.08-.06.16-.13.25-.18l-34.02-19.98-2.9,1.39,33.94,20.01c.39-.68,1.09-1.16,2.1-1.16h0Z"/>
          <polygon class="cls-19" points="2268.38 2546.47 2258.14 2552.32 2258.14 2555.05 2256.04 2556.17 2256 2558.16 2253.36 2559.47 2253.36 2561.39 2250.69 2562.81 2250.71 2564.72 2248.12 2566.26 2248.12 2568.09 2245.31 2569.61 2245.46 2571.53 2268.38 2558.42 2268.38 2546.47"/>
        </g>
        <g class="cls-37">
          <polygon points="2271.59 2502.46 2271.35 2587.43 2269.87 2586.58 2270.11 2501.61 2271.59 2502.46"/>
          <polygon points="2270.11 2501.61 2269.87 2586.58 2268.4 2587.43 2268.64 2502.46 2270.11 2501.61"/>
          <polygon points="2270.12 2503.42 2269.88 2588.39 2268.22 2587.43 2268.46 2502.46 2270.12 2503.42"/>
          <polygon class="cls-62" points="2270.12 2503.32 2269.88 2588.29 2268.4 2587.43 2268.64 2502.46 2270.12 2503.32"/>
          <path d="M2270.11,2501.51l1.66.96-1.65.96-1.66-.96,1.65-.96ZM2270.12,2503.32l1.47-.85-1.48-.85-1.47.85,1.48.85"/>
          <polygon class="cls-60" points="2271.59 2502.46 2270.12 2503.32 2268.64 2502.46 2270.11 2501.61 2271.59 2502.46"/>
          <polygon points="2271.77 2502.47 2271.53 2587.43 2269.88 2588.39 2270.12 2503.42 2271.77 2502.47"/>
          <polygon class="cls-58" points="2271.59 2502.46 2271.35 2587.43 2269.88 2588.29 2270.12 2503.32 2271.59 2502.46"/>
        </g>
        <g class="cls-37">
          <polygon points="2188.6 2454.6 2188.35 2539.57 2186.87 2538.72 2187.11 2453.75 2188.6 2454.6"/>
          <polygon points="2187.11 2453.75 2186.87 2538.72 2185.4 2539.57 2185.64 2454.6 2187.11 2453.75"/>
          <polygon points="2187.12 2455.57 2186.88 2540.54 2185.22 2539.57 2185.46 2454.6 2187.12 2455.57"/>
          <polygon class="cls-62" points="2187.12 2455.46 2186.88 2540.43 2185.4 2539.57 2185.64 2454.6 2187.12 2455.46"/>
          <path d="M2187.11,2453.65l1.66.96-1.65.96-1.66-.96,1.65-.96ZM2187.12,2455.46l1.47-.85-1.48-.85-1.47.85,1.48.85"/>
          <polygon class="cls-60" points="2188.6 2454.6 2187.12 2455.46 2185.64 2454.6 2187.11 2453.75 2188.6 2454.6"/>
          <polygon points="2188.77 2454.61 2188.53 2539.57 2186.88 2540.54 2187.12 2455.57 2188.77 2454.61"/>
          <polygon class="cls-58" points="2188.6 2454.6 2188.35 2539.57 2186.88 2540.43 2187.12 2455.46 2188.6 2454.6"/>
        </g>
        <g class="cls-37">
          <polygon points="2212.35 2441.97 2212.11 2526.93 2210.63 2526.08 2210.87 2441.11 2212.35 2441.97"/>
          <polygon points="2210.87 2441.11 2210.63 2526.08 2209.16 2526.93 2209.4 2441.97 2210.87 2441.11"/>
          <polygon points="2210.88 2442.93 2210.64 2527.9 2208.98 2526.93 2209.21 2441.97 2210.88 2442.93"/>
          <polygon class="cls-62" points="2210.88 2442.82 2210.64 2527.79 2209.16 2526.93 2209.4 2441.97 2210.88 2442.82"/>
          <path d="M2210.86,2441.01l1.66.96-1.65.96-1.66-.96,1.65-.96ZM2210.88,2442.82l1.47-.85-1.48-.85-1.47.85,1.48.85"/>
          <polygon class="cls-60" points="2212.35 2441.97 2210.88 2442.82 2209.4 2441.97 2210.87 2441.11 2212.35 2441.97"/>
          <polygon points="2212.52 2441.97 2212.29 2526.94 2210.64 2527.9 2210.88 2442.93 2212.52 2441.97"/>
          <polygon class="cls-58" points="2212.35 2441.97 2212.11 2526.93 2210.64 2527.79 2210.88 2442.82 2212.35 2441.97"/>
        </g>
        <g class="cls-37">
          <polygon points="2294.96 2488.75 2294.72 2573.72 2293.24 2572.86 2293.48 2487.89 2294.96 2488.75"/>
          <polygon points="2293.48 2487.89 2293.24 2572.86 2291.76 2573.72 2292.01 2488.75 2293.48 2487.89"/>
          <polygon points="2293.49 2489.71 2293.25 2574.68 2291.59 2573.72 2291.82 2488.75 2293.49 2489.71"/>
          <polygon class="cls-62" points="2293.49 2489.61 2293.24 2574.57 2291.76 2573.72 2292.01 2488.75 2293.49 2489.61"/>
          <path d="M2293.47,2487.79l1.66.96-1.65.96-1.66-.96,1.65-.96ZM2293.49,2489.61l1.47-.85-1.48-.85-1.47.85,1.48.85"/>
          <polygon class="cls-60" points="2294.96 2488.75 2293.49 2489.61 2292.01 2488.75 2293.48 2487.89 2294.96 2488.75"/>
          <polygon points="2295.13 2488.75 2294.9 2573.72 2293.25 2574.68 2293.49 2489.71 2295.13 2488.75"/>
          <polygon class="cls-58" points="2294.96 2488.75 2294.72 2573.72 2293.24 2574.57 2293.49 2489.61 2294.96 2488.75"/>
        </g>
      </g>
      <g id="rooftop">
        <g>
          <polygon class="cls-5" points="2488.1 2484.35 2531.13 2520.33 2531.27 2515.45 2490.07 2481.86 2488.1 2484.35"/>
          <polygon class="cls-12" points="2669.81 2435.32 2531.27 2515.45 2490.07 2481.86 2614.29 2411.68 2669.81 2435.32"/>
          <polygon class="cls-5" points="2669.81 2440.35 2531.17 2520.39 2531.27 2515.45 2669.81 2435.32 2669.81 2440.35"/>
        </g>
        <polygon class="cls-36" points="2496.84 2487.39 2537.89 2461.78 2552.93 2462.47 2624.63 2416.24 2620.43 2414.17 2551.55 2456.44 2536.73 2456.9 2493.65 2484.78 2496.84 2487.39"/>
        <g>
          <polygon class="cls-5" points="2446.33 2472.96 2476.51 2486.15 2535.96 2450.38 2552.1 2449.06 2633.97 2397.82 2634.56 2405.49 2553.43 2456.66 2537.45 2457.62 2477.49 2494.82 2446.33 2480.42 2446.33 2472.96"/>
          <polygon class="cls-12" points="2450.85 2475.08 2587.07 2385.17 2633.97 2397.82 2552.1 2449.06 2535.96 2450.38 2476.51 2486.15 2450.85 2475.08"/>
        </g>
        <polygon class="cls-36" points="2455.43 2477.05 2513.76 2440.66 2528.82 2441.35 2607.42 2390.66 2603.11 2389.5 2527.43 2435.32 2512.62 2435.78 2450.85 2475.08 2455.43 2477.05"/>
        <g>
          <polygon class="cls-5" points="2416.5 2454.74 2448.87 2468.89 2511.82 2429.61 2526.86 2429.01 2603.44 2382.26 2603.09 2390.03 2527.84 2436.21 2513.11 2436.52 2449 2476.22 2416.49 2462.23 2416.5 2454.74"/>
          <polygon class="cls-12" points="2420.16 2456.5 2557.46 2369.93 2603.44 2382.26 2526.86 2429.01 2511.82 2429.61 2448.87 2468.89 2420.16 2456.5"/>
        </g>
        <polygon class="cls-36" points="2424 2458.02 2488.89 2418.43 2504.71 2418.43 2574.6 2374.49 2570.29 2373.37 2504.42 2412.36 2488.01 2413.4 2418.44 2455.59 2424 2458.02"/>
        <g>
          <polygon class="cls-5" points="2387.86 2436.87 2418.78 2450.38 2486.56 2409.21 2502.8 2407.79 2574.6 2363.53 2573.65 2371.32 2503.14 2414.49 2487.03 2415.53 2418.92 2457.72 2387.37 2444.15 2387.86 2436.87"/>
          <polygon class="cls-12" points="2390.42 2437.83 2521.15 2353.45 2574.6 2363.53 2502.8 2407.79 2486.56 2409.21 2418.78 2450.38 2390.42 2437.83"/>
        </g>
        <polygon class="cls-36" points="2395 2439.87 2458.24 2400.49 2474.32 2399.12 2542.41 2357.25 2538.29 2355.77 2473.5 2394.4 2457.39 2395.44 2389.53 2437.45 2395 2439.87"/>
        <g>
          <polygon class="cls-12" points="2362.53 2418.64 2491.72 2333.79 2539.18 2350.38 2474.04 2388.07 2457.81 2389.49 2390.03 2430.67 2362.53 2418.64"/>
          <polygon class="cls-5" points="2362.53 2418.64 2390.03 2430.67 2457.81 2389.49 2474.04 2388.07 2539.18 2350.38 2539.18 2356.15 2474.39 2394.77 2458.28 2395.82 2390.16 2438 2362.53 2426.11 2362.53 2418.64"/>
        </g>
        <polygon class="cls-36" points="2368.19 2420.98 2431.43 2381.58 2447.51 2380.21 2515.6 2338.34 2511.48 2336.87 2446.68 2375.49 2430.57 2376.54 2362.71 2418.55 2368.19 2420.98"/>
        <g>
          <polygon class="cls-5" points="2333.04 2396.63 2361.06 2411.68 2427.92 2372.1 2445.33 2369.93 2508.49 2332.66 2508.49 2340 2443.76 2378.75 2427.8 2380.24 2361.2 2420.03 2333.04 2404.63 2333.04 2396.63"/>
          <polygon class="cls-12" points="2332.44 2396.41 2450.85 2328.53 2508.49 2332.66 2445.33 2369.93 2427.92 2372.1 2361.06 2411.68 2332.44 2396.41"/>
        </g>
        <g>
          <polygon class="cls-5" points="2508.49 2339.05 2659.85 2251.66 2659.85 2259.79 2508.49 2346.96 2508.49 2339.05"/>
          <polygon class="cls-12" points="2450.85 2328.53 2589.65 2263.6 2659.85 2251.66 2508.49 2339.05 2450.85 2328.53"/>
          <polygon class="cls-12" points="2546.64 2226.25 2589.65 2263.6 2450.85 2328.53 2425.62 2313.96 2546.64 2226.25"/>
        </g>
        <g>
          <polygon class="cls-18" points="2358.84 2255.69 2219.98 2335.82 2299.18 2373.83 2411.83 2311.43 2358.84 2255.69"/>
          <polygon class="cls-20" points="2219.98 2340.85 2307.62 2381.4 2300.81 2374.62 2219.98 2335.82 2219.98 2340.85"/>
        </g>
        <g>
          <polygon class="cls-5" points="2307.62 2381.4 2307.62 2372.71 2276.76 2346.93 2276.76 2354.57 2307.62 2381.4"/>
          <polygon class="cls-12" points="2411.83 2311.43 2375.15 2289.19 2276.76 2346.93 2307.62 2372.71 2411.83 2311.43"/>
        </g>
        <g>
          <polygon class="cls-5" points="2307.62 2381.4 2307.62 2372.71 2333.04 2396.63 2333.04 2404.7 2307.62 2381.4"/>
          <polygon class="cls-12" points="2450.85 2328.53 2416.49 2308.69 2307.62 2372.71 2333.04 2396.63 2450.85 2328.53"/>
        </g>
        <polygon class="cls-5" points="2270.44 2525.32 2211.11 2500.95 2210.75 2505.23 2270.44 2529.09 2270.44 2525.32"/>
        <g>
          <polygon class="cls-5" points="2377.73 2434.64 2377.73 2439.59 2270.44 2529.09 2270.44 2525.32 2377.73 2434.64"/>
          <g>
            <polygon class="cls-12" points="2328.89 2418.24 2377.73 2434.64 2270.44 2525.32 2211.11 2500.95 2200.47 2492.76 2328.89 2418.24"/>
            <polygon class="cls-12" points="2200.47 2492.76 2158.28 2443.67 2307.62 2401.91 2328.89 2418.24 2200.47 2492.76"/>
            <polygon class="cls-5" points="2200.47 2492.76 2200.47 2497.09 2210.75 2505.23 2211.11 2500.95 2200.47 2492.76"/>
            <polygon class="cls-5" points="2200.47 2497.09 2155.52 2445.61 2158.28 2443.67 2200.47 2492.76 2200.47 2497.09"/>
            <line class="cls-3" x1="2211.11" y1="2500.95" x2="2328.89" y2="2418.24"/>
          </g>
        </g>
      </g>
      <g id="text">
        <g class="cls-37">
          <g class="cls-61">
            <g>
              <path class="cls-44" d="M2311.6,2530.53l-.34-.2-.31-.18-.52-.31v.25l.44.32-.66,1.96-.7-2.75.5.23v-.25l-.6-.35-.36-.21-.56-.33v.25l.47.33-.73,1.91-.61-2.68.45.21v-.25l-1.56-.9v.25l.39.26.95,3.84.37.21.82-2.15.84,3.11.37.21.93-2.73.43.18v-.25"/>
              <path class="cls-44" d="M2313.46,2531.6l-1.61-.93v.25l.45.31c0,.46,0,.92,0,1.36v.23c0,.46,0,.92-.02,1.35l-.45-.21v.25l.44.25.73.42.44.26v-.25l-.45-.31c0-.46,0-.92,0-1.37v-.23c0-.46,0-.91.02-1.35l.45.21v-.25"/>
              <path class="cls-44" d="M2315.51,2532.78l-1.63-.94v.25l.45.31c0,.45,0,.91,0,1.36v.29c0,.41,0,.85-.02,1.3l-.45-.21v.25l.44.25.37.21,1.91,1.1.06-1-.38-.22-.15.66-1.08-.63c-.01-.46,0-.91,0-1.29v-.33c0-.45,0-.91.02-1.35l.47.22v-.25"/>
              <path class="cls-44" d="M2318.59,2534.56l-1.63-.94v.25l.45.31c0,.45,0,.91,0,1.36v.29c0,.41,0,.85-.02,1.3l-.45-.21v.25l.44.25.36.21,1.91,1.1.06-1-.38-.22-.15.66-1.08-.63c-.01-.46,0-.91,0-1.29v-.33c0-.45,0-.91.02-1.35l.47.22v-.25"/>
              <path class="cls-44" d="M2322.74,2536.96l-.5-.28-1.03-.59-.37-.21-.8-.46v.25l.45.31c0,.46,0,.92,0,1.36v.23c0,.46,0,.92-.02,1.35l-.45-.21v.25l.44.25.37.21,2,1.15.04-.92-.37-.21-.12.59-1.19-.69c-.01-.46,0-.92,0-1.4l.69.4.07.5.27.16v-1.21l-.27-.16-.07.43-.69-.4c0-.44,0-.87.02-1.3l1.09.63.11.72.37.21-.04-.96"/>
              <path class="cls-44" d="M2327.64,2539.78l-.43-.25-.44-.26-.32-.18-.99,2.1-1.04-3.27-.45-.26h0l-.74-.43v.25l.48.33v2.92s-.51-.22-.51-.22v.25l.5.29.31.18.44.25v-.25l-.44-.32v-1.51l-.02-1.07,1.12,3.53.34.19,1.07-2.26v1.26c-.01.41-.01.85-.02,1.3l-.42-.19v.25l.42.24.72.42.44.25v-.25l-.45-.31c0-.46,0-.91,0-1.36v-.23c0-.45,0-.91.02-1.35l.44.21v-.25"/>
              <polyline class="cls-44" points="2329.37 2542.78 2328.06 2542.03 2328.06 2542.44 2329.37 2543.2 2329.37 2542.78"/>
              <path class="cls-44" d="M2330.56,2543.65l.5-1.2.48,1.77-.98-.56M2331.48,2541.99l-.44-.25-1.12,2.61-.44-.19v.25l.33.19.28.16.57.33v-.25l-.47-.34.26-.63,1.16.67.25.94-.47-.21v.24l1.55.89v-.24l-.37-.26-1.11-3.93"/>
              <path class="cls-44" d="M2334.85,2543.94l-1.64-.95v.25l.45.31c0,.45,0,.91,0,1.36v.29c0,.41,0,.85-.02,1.3l-.45-.21v.25l.44.26.37.21,1.91,1.1.06-1-.37-.21-.16.65-1.08-.63c-.01-.46,0-.91,0-1.29v-.33c0-.45,0-.91.02-1.35l.47.22v-.25"/>
              <path class="cls-44" d="M2338.99,2546.34l-.5-.29-1.03-.59-.37-.21-.8-.46v.25l.45.31c.01.46,0,.92,0,1.36v.23c0,.46,0,.92-.02,1.35l-.45-.21v.25l.44.25.37.21,2,1.15.04-.92-.37-.21-.12.59-1.19-.69c-.01-.46,0-.92,0-1.4l.69.4.07.5.27.16v-1.21l-.27-.16-.07.43-.69-.4c0-.44,0-.87.02-1.3l1.09.63.11.72.37.21-.03-.96"/>
              <polyline class="cls-44" points="2342.56 2548.4 2342.32 2548.26 2341.96 2548.06 2341.39 2547.72 2341.39 2547.97 2341.78 2548.25 2341.15 2548.92 2340.54 2547.53 2340.94 2547.72 2340.94 2547.46 2339.35 2546.55 2339.35 2546.8 2339.77 2547.09 2340.69 2549.19 2339.77 2550.04 2339.31 2549.83 2339.31 2550.08 2339.56 2550.23 2339.92 2550.44 2340.49 2550.76 2340.49 2550.51 2340.11 2550.25 2340.84 2549.52 2341.51 2551.05 2341.07 2550.84 2341.06 2551.1 2342.7 2552.04 2342.7 2551.78 2342.28 2551.5 2341.29 2549.25 2342.12 2548.45 2342.56 2548.65 2342.56 2548.4"/>
              <path class="cls-44" d="M2343.86,2551.33l.5-1.2.48,1.76-.98-.56M2344.79,2549.67l-.44-.25-1.12,2.61-.44-.19v.25l.34.19.28.16.57.33v-.25l-.47-.34.26-.63,1.16.67.25.94-.47-.21v.24l1.55.89v-.24l-.37-.26-1.11-3.93"/>
              <polyline class="cls-44" points="2350.03 2552.71 2348.68 2551.94 2348.68 2552.18 2349.27 2552.59 2349.27 2554.7 2347.51 2551.25 2346.5 2550.67 2346.5 2550.93 2346.88 2551.18 2346.94 2551.31 2346.93 2554.16 2346.47 2553.96 2346.47 2554.22 2346.93 2554.48 2347.24 2554.66 2347.82 2555 2347.82 2554.74 2347.24 2554.34 2347.24 2551.91 2349.25 2555.85 2349.57 2556.03 2349.57 2555.3 2349.58 2552.77 2350.03 2552.96 2350.03 2552.71"/>
              <path class="cls-44" d="M2351.53,2553.86l.34.19c.7.4,1.11,1.16,1.11,2.14s-.42,1.26-1.15.84l-.31-.18c-.01-.47,0-.94,0-1.43v-.19c0-.46,0-.93.02-1.37M2351.95,2553.82l-.42-.24-.37-.21-.8-.46v.25l.45.31c.01.46,0,.92,0,1.36v.19c0,.49,0,.95-.02,1.39l-.45-.21v.25l.44.25.37.21.68.39c1.1.64,1.88.44,1.88-.7s-.69-2.18-1.77-2.8"/>
              <path class="cls-44" d="M2356.71,2556.57l-.5-.29-1.03-.59-.36-.21-.81-.47v.25l.45.31c0,.46,0,.92,0,1.36v.23c0,.46,0,.92-.02,1.35l-.45-.21v.25l.44.26.37.21,2,1.15.04-.92-.37-.21-.12.59-1.19-.69c-.01-.46,0-.92,0-1.4l.7.4.06.49.27.16v-1.21l-.27-.16-.07.43-.69-.4c0-.44,0-.87.02-1.3l1.09.63.11.72.37.21-.03-.96"/>
              <path class="cls-44" d="M2358.37,2557.81l.35.2c.5.28.73.65.73,1.09,0,.39-.22.57-.78.25l-.31-.18c0-.48,0-.93.02-1.36M2358.83,2557.79l-.45-.26-.36-.21-.8-.46v.25l.45.31c0,.46,0,.92,0,1.36v.23c0,.46,0,.92-.02,1.35l-.45-.21v.25l.44.25.72.42.45.26v-.25l-.45-.31c0-.44,0-.88,0-1.34l.23.13c.38.22.55.44.63.87l.16.84c.06.37.26.59.66.82.2.12.31.16.49.22v-.25l-.41-.28-.16-.79c-.1-.52-.28-.86-.74-1.19.66.27.93.05.93-.34,0-.57-.47-1.19-1.3-1.67"/>
              <path class="cls-44" d="M2363.3,2560.28c-.75-.43-1.27-.35-1.27.28,0,.57.37,1.1.96,1.69l.21.22c.39.39.56.63.56.95,0,.35-.27.42-.72.17-.21-.13-.38-.25-.54-.43l-.11-.71-.41-.23-.04.76c.27.33.7.68,1.1.92.82.48,1.33.35,1.33-.28,0-.52-.27-.99-.97-1.68l-.23-.23c-.36-.35-.55-.64-.55-.95,0-.35.28-.39.65-.18.15.09.27.18.4.32l.11.68.41.23.04-.7c-.24-.32-.57-.61-.95-.82"/>
              <path class="cls-44" d="M2365.92,2562.17l.23.13c.55.32.83.76.83,1.26s-.24.7-.81.37l-.26-.15v-.24c0-.46,0-.93.01-1.38M2366.21,2562.05l-.28-.16-.36-.21-.81-.47v.25l.45.31c0,.46,0,.92,0,1.36v.23c0,.46,0,.92-.02,1.35l-.45-.21v.25l.44.26.72.42.48.28v-.25l-.49-.34v-1.08l.22.13c1.13.65,1.53.38,1.53-.22,0-.64-.45-1.32-1.45-1.9"/>
              <path class="cls-44" d="M2369.67,2567.41c-.64-.37-.91-1.26-.91-2.1s.27-1.43.92-1.06.91,1.26.91,2.1-.27,1.42-.92,1.05M2369.68,2563.96c-.85-.49-1.67-.3-1.67.91s.81,2.33,1.66,2.83,1.67.3,1.67-.91-.81-2.34-1.66-2.83"/>
              <path class="cls-44" d="M2372.81,2566.15l.35.2c.49.28.73.65.73,1.09,0,.39-.22.57-.77.25l-.32-.18c0-.48,0-.93.02-1.36M2373.28,2566.13l-.45-.26-.36-.2-.81-.47v.25l.45.31c0,.46,0,.92,0,1.36v.23c0,.46,0,.92-.02,1.35l-.45-.21v.25l.44.26.72.41.45.26v-.25l-.46-.32c0-.44,0-.88,0-1.34l.23.13c.38.22.54.43.63.87l.15.83c.06.37.26.59.66.82.2.12.31.16.49.22v-.25l-.41-.28-.16-.79c-.1-.52-.28-.86-.74-1.19.66.27.93.05.93-.34,0-.57-.47-1.19-1.3-1.67"/>
              <path class="cls-44" d="M2377.99,2568.85l-.5-.28-2.54-1.46-.04.96.38.22.11-.63.71.41c.01.46,0,.93,0,1.38v.23c0,.46,0,.91-.02,1.35l-.5-.24v.25l.5.28.73.42.5.28v-.25l-.5-.34c0-.46,0-.91,0-1.36v-.23c0-.46,0-.92.02-1.37l.71.41.11.75.37.21-.03-1"/>
              <path class="cls-44" d="M2380.12,2570c-1.02-.59-1.85-.37-1.86.8s.77,2.31,1.83,2.92c.42.24.79.37,1.1.37l.02-.79-.37-.21-.13.58c-.18-.02-.37-.09-.55-.19-.65-.38-1.15-1.18-1.15-2.25s.55-1.27,1.19-.89c.15.09.31.21.47.39l.13.73.37.21-.02-.82c-.34-.39-.69-.66-1.04-.86"/>
              <path class="cls-44" d="M2384.31,2572.5l-.5-.28-1.03-.59-.37-.21-.8-.46v.25l.45.31c0,.46,0,.92,0,1.36v.23c0,.46,0,.92-.02,1.35l-.45-.21v.25l.44.25.37.21,2,1.15.04-.92-.37-.21-.12.59-1.19-.69c-.01-.46,0-.92,0-1.4l.69.4.07.5.27.16v-1.21l-.27-.16-.07.43-.69-.4c0-.44,0-.87.02-1.3l1.09.63.11.72.37.21-.04-.96"/>
              <polyline class="cls-44" points="2388.34 2574.83 2387 2574.05 2386.99 2574.31 2387.58 2574.71 2387.58 2576.82 2385.82 2573.38 2384.81 2572.79 2384.81 2573.05 2385.19 2573.31 2385.25 2573.43 2385.25 2576.29 2384.79 2576.09 2384.79 2576.34 2385.25 2576.6 2385.55 2576.78 2386.13 2577.12 2386.13 2576.87 2385.55 2576.45 2385.56 2574.03 2387.56 2577.96 2387.88 2578.15 2387.88 2577.41 2387.89 2574.89 2388.34 2575.09 2388.34 2574.83"/>
              <path class="cls-44" d="M2391.7,2576.77l-.5-.28-2.54-1.46-.03.96.37.21.11-.63.71.41c.01.46,0,.93,0,1.38v.23c0,.46,0,.91-.02,1.35l-.5-.24v.25l.5.28.73.42.5.28v-.25l-.5-.34c0-.46,0-.91,0-1.36v-.23c0-.46,0-.92.02-1.37l.71.41.11.75.37.21-.03-1"/>
              <path class="cls-44" d="M2393.2,2577.91l.35.2c.5.28.73.65.73,1.09,0,.39-.22.57-.77.25l-.32-.18c0-.48,0-.93.02-1.36M2393.66,2577.9l-.45-.26-.36-.2-.81-.47v.25l.45.31c0,.46,0,.92,0,1.36v.23c0,.46,0,.92-.02,1.35l-.45-.21v.25l.44.26.72.41.45.26v-.25l-.46-.32c0-.44,0-.88,0-1.34l.23.13c.38.22.54.43.62.87l.16.84c.06.37.26.59.66.82.2.12.31.16.49.22v-.25l-.41-.28-.16-.79c-.1-.52-.28-.86-.74-1.19.66.27.93.05.93-.34,0-.57-.47-1.19-1.3-1.67"/>
              <path class="cls-44" d="M2398.92,2580.94l-.45-.26-.31-.18-.52-.3v.25l.51.36v1.68c0,.88-.31,1.04-.85.73s-.83-.77-.82-1.64v-.42c0-.44,0-.89.02-1.32l.5.23v-.25l-1.62-.94v.25l.42.28c.01.45,0,.9,0,1.34v.58c0,1.02.54,1.74,1.33,2.2s1.34.33,1.35-.8v-1.76l.46.21v-.25"/>
              <path class="cls-44" d="M2403.61,2583.65l-.44-.25-.44-.25-.32-.18-.99,2.1-1.03-3.27-.45-.26h0l-.73-.43v.25l.47.33v2.92s-.51-.22-.51-.22v.25l.5.28.31.18.44.25v-.25l-.44-.32v-1.51l-.02-1.07,1.12,3.53.34.19,1.07-2.26v1.27c-.01.41-.01.85-.03,1.3l-.43-.2v.25l.42.24.72.41.44.26v-.25l-.45-.31c0-.46,0-.91,0-1.36v-.23c0-.45,0-.91.02-1.35l.44.21v-.25"/>
            </g>
          </g>
        </g>
        <g>
          <g class="cls-37">
            <g class="cls-48">
              <g>
                <path class="cls-42" d="M2309.84,2549.15c-2.88-1.66-5.23-.32-5.24,2.98s2.33,7.35,5.21,9.02,5.23.33,5.24-2.98-2.32-7.35-5.2-9.02"/>
                <path d="M2309.8,2561.15c-2.88-1.66-5.22-5.7-5.21-9.02s2.36-4.65,5.24-2.98c2.88,1.66,5.21,5.7,5.2,9.02s-2.36,4.65-5.24,2.98M2309.84,2549.04c-2.93-1.69-5.32-.33-5.33,3.04s2.36,7.48,5.3,9.17c2.93,1.69,5.32.33,5.33-3.04s-2.36-7.48-5.29-9.17"/>
              </g>
            </g>
          </g>
          <g class="cls-37">
            <g class="cls-51">
              <g>
                <path class="cls-57" d="M2306.34,2548.7c-1.09.51-1.7,1.73-1.71,3.44-.01,3.31,2.32,7.35,5.2,9.01,1.25.72,2.43.9,3.37.53-.82.09-1.74-.15-2.71-.7-2.93-1.69-5.31-5.81-5.3-9.17,0-1.38.41-2.46,1.14-3.11"/>
                <path d="M2309.83,2561.15c-2.88-1.66-5.21-5.7-5.2-9.01,0-1.7.62-2.93,1.71-3.44-.74.65-1.14,1.73-1.14,3.11-.01,3.37,2.36,7.48,5.3,9.17.96.55,1.89.79,2.71.7-.95.38-2.12.19-3.37-.53M2306.7,2548.44c-1.37.37-2.16,1.71-2.17,3.66-.01,3.37,2.36,7.48,5.29,9.17,1.45.84,2.81.96,3.83.34l-.06-.11c-.91.25-1.99.04-3.11-.61-2.88-1.66-5.22-5.7-5.21-9.02,0-1.56.53-2.74,1.47-3.32l-.06-.11"/>
              </g>
            </g>
          </g>
        </g>
        <g>
          <g class="cls-37">
            <g class="cls-49">
              <g>
                <path class="cls-42" d="M2327.91,2560.62c-2.88-1.66-5.23-.33-5.24,2.98s2.33,7.36,5.21,9.02,5.23.32,5.24-2.98-2.33-7.35-5.21-9.02"/>
                <path d="M2327.87,2572.61c-2.88-1.66-5.22-5.71-5.21-9.02s2.36-4.65,5.24-2.98c2.88,1.66,5.22,5.7,5.21,9.02s-2.36,4.65-5.24,2.98M2327.91,2560.51c-2.93-1.69-5.32-.33-5.33,3.04s2.36,7.48,5.3,9.17,5.32.33,5.33-3.04-2.36-7.48-5.29-9.17"/>
              </g>
            </g>
          </g>
          <g class="cls-37">
            <g class="cls-50">
              <g>
                <path class="cls-57" d="M2324.41,2560.17c-1.09.51-1.7,1.73-1.71,3.44-.01,3.31,2.32,7.35,5.2,9.02,1.25.72,2.43.9,3.37.53-.82.09-1.74-.15-2.71-.7-2.93-1.69-5.31-5.81-5.3-9.17,0-1.37.41-2.46,1.14-3.11"/>
                <path d="M2327.91,2572.62c-2.88-1.66-5.21-5.7-5.2-9.02,0-1.7.62-2.93,1.71-3.44-.74.65-1.14,1.73-1.14,3.11-.01,3.37,2.36,7.48,5.3,9.17.96.55,1.89.79,2.71.7-.95.38-2.12.19-3.37-.53M2324.77,2559.9c-1.37.38-2.16,1.71-2.17,3.66-.01,3.37,2.36,7.48,5.29,9.17,1.45.84,2.81.96,3.83.34l-.06-.11c-.91.25-1.99.04-3.11-.61-2.88-1.66-5.22-5.71-5.21-9.02,0-1.56.53-2.73,1.47-3.32l-.06-.11"/>
              </g>
            </g>
          </g>
        </g>
        <g>
          <g class="cls-37">
            <g class="cls-56">
              <g>
                <path class="cls-42" d="M2345.98,2572.08c-2.88-1.66-5.23-.32-5.24,2.98s2.33,7.36,5.21,9.02c2.88,1.66,5.23.32,5.24-2.98.01-3.31-2.33-7.36-5.21-9.02"/>
                <path d="M2345.95,2584.09c-2.88-1.66-5.22-5.71-5.21-9.02s2.36-4.65,5.24-2.98c2.88,1.66,5.22,5.71,5.21,9.02s-2.36,4.65-5.24,2.98M2345.98,2571.98c-2.93-1.69-5.32-.33-5.33,3.04-.01,3.37,2.37,7.48,5.3,9.17,2.93,1.69,5.32.33,5.33-3.04s-2.36-7.48-5.29-9.17"/>
              </g>
            </g>
          </g>
          <g class="cls-37">
            <g class="cls-53">
              <g>
                <path class="cls-57" d="M2342.48,2571.63c-1.09.51-1.7,1.73-1.71,3.44-.01,3.31,2.32,7.35,5.2,9.02,1.25.72,2.43.9,3.37.53-.82.09-1.74-.15-2.71-.71-2.93-1.69-5.31-5.81-5.3-9.17,0-1.38.41-2.46,1.14-3.11"/>
                <path d="M2345.98,2584.09c-2.88-1.66-5.21-5.7-5.2-9.02,0-1.7.63-2.93,1.71-3.44-.74.65-1.14,1.73-1.14,3.11-.01,3.37,2.36,7.48,5.3,9.17.96.55,1.89.8,2.71.71-.95.37-2.12.19-3.37-.53M2342.85,2571.36c-1.37.38-2.16,1.71-2.17,3.66-.01,3.37,2.36,7.48,5.29,9.17,1.45.84,2.81.96,3.83.34l-.06-.11c-.91.25-1.99.04-3.11-.61-2.88-1.66-5.22-5.71-5.21-9.02,0-1.56.53-2.73,1.47-3.32l-.06-.11"/>
              </g>
            </g>
          </g>
        </g>
        <g>
          <g class="cls-37">
            <g class="cls-52">
              <g>
                <path class="cls-42" d="M2364.05,2583.55c-2.88-1.66-5.23-.32-5.24,2.98s2.33,7.35,5.21,9.02,5.23.33,5.24-2.98c.01-3.31-2.33-7.36-5.21-9.02"/>
                <path d="M2364.02,2595.55c-2.88-1.66-5.22-5.7-5.21-9.02s2.36-4.65,5.24-2.98,5.22,5.71,5.21,9.02c-.01,3.31-2.36,4.65-5.24,2.98M2364.05,2583.44c-2.93-1.69-5.32-.33-5.33,3.04s2.37,7.48,5.3,9.17,5.32.33,5.33-3.04-2.36-7.48-5.29-9.17"/>
              </g>
            </g>
          </g>
          <g class="cls-37">
            <g class="cls-55">
              <g>
                <path class="cls-57" d="M2360.55,2583.1c-1.09.51-1.7,1.73-1.71,3.44-.01,3.31,2.32,7.35,5.21,9.02,1.25.72,2.43.9,3.37.52-.82.09-1.74-.15-2.71-.7-2.93-1.69-5.31-5.81-5.3-9.17,0-1.38.41-2.46,1.14-3.11"/>
                <path d="M2364.05,2595.56c-2.88-1.66-5.22-5.7-5.21-9.02,0-1.71.63-2.93,1.71-3.44-.74.65-1.14,1.73-1.14,3.11-.01,3.37,2.36,7.48,5.3,9.17.96.55,1.89.79,2.71.7-.94.38-2.12.19-3.37-.52M2360.92,2582.83c-1.37.38-2.16,1.71-2.17,3.66-.01,3.37,2.36,7.48,5.3,9.17,1.45.84,2.81.96,3.83.34l-.06-.11c-.91.25-1.99.04-3.11-.61-2.88-1.66-5.22-5.7-5.21-9.02,0-1.56.53-2.74,1.47-3.32l-.06-.11"/>
              </g>
            </g>
          </g>
        </g>
        <g>
          <g class="cls-37">
            <g class="cls-54">
              <g>
                <path class="cls-42" d="M2382.12,2595.01c-2.88-1.66-5.23-.32-5.24,2.98s2.33,7.36,5.21,9.02,5.23.32,5.24-2.98c.01-3.31-2.33-7.36-5.21-9.02"/>
                <path d="M2382.09,2607.01c-2.88-1.66-5.22-5.71-5.21-9.02.01-3.31,2.36-4.65,5.24-2.98,2.88,1.66,5.22,5.71,5.21,9.02s-2.36,4.65-5.24,2.98M2382.12,2594.91c-2.93-1.69-5.32-.33-5.33,3.04s2.37,7.48,5.3,9.17,5.32.33,5.33-3.04-2.36-7.48-5.29-9.17"/>
              </g>
            </g>
          </g>
          <g class="cls-37">
            <g class="cls-46">
              <g>
                <path class="cls-57" d="M2378.62,2594.57c-1.09.51-1.7,1.73-1.71,3.44-.01,3.31,2.33,7.36,5.21,9.02,1.25.72,2.43.9,3.37.52-.82.09-1.74-.15-2.71-.7-2.93-1.69-5.31-5.81-5.3-9.17,0-1.37.41-2.46,1.14-3.11"/>
                <path d="M2382.12,2607.02c-2.88-1.66-5.22-5.71-5.21-9.02,0-1.7.62-2.93,1.71-3.44-.74.65-1.14,1.73-1.14,3.11-.01,3.37,2.37,7.48,5.3,9.17.96.55,1.89.79,2.71.7-.94.37-2.12.19-3.37-.52M2378.99,2594.3c-1.37.38-2.16,1.71-2.17,3.66-.01,3.37,2.36,7.48,5.3,9.17,1.45.84,2.81.96,3.83.34l-.06-.11c-.91.25-1.99.04-3.11-.61-2.88-1.66-5.22-5.71-5.21-9.02,0-1.56.53-2.73,1.47-3.32l-.06-.11"/>
              </g>
            </g>
          </g>
        </g>
        <g>
          <g class="cls-37">
            <g class="cls-45">
              <g>
                <path class="cls-42" d="M2400.19,2606.48c-2.88-1.66-5.23-.32-5.24,2.98s2.33,7.35,5.21,9.02,5.23.33,5.24-2.98c.01-3.31-2.33-7.36-5.21-9.02"/>
                <path d="M2400.16,2618.48c-2.88-1.66-5.22-5.7-5.21-9.02.01-3.31,2.36-4.65,5.24-2.98,2.88,1.66,5.22,5.71,5.21,9.02s-2.36,4.65-5.24,2.98M2400.2,2606.37c-2.93-1.69-5.32-.33-5.33,3.04s2.36,7.48,5.29,9.17c2.93,1.69,5.32.33,5.33-3.04.01-3.37-2.36-7.48-5.29-9.17"/>
              </g>
            </g>
          </g>
          <g class="cls-37">
            <g class="cls-47">
              <g>
                <path class="cls-57" d="M2396.7,2606.03c-1.09.51-1.7,1.73-1.71,3.44-.01,3.31,2.33,7.36,5.21,9.02,1.25.72,2.43.9,3.37.52-.82.09-1.74-.15-2.71-.7-2.93-1.69-5.31-5.81-5.3-9.17,0-1.38.41-2.46,1.14-3.11"/>
                <path d="M2400.19,2618.49c-2.88-1.66-5.22-5.71-5.21-9.02,0-1.7.63-2.93,1.71-3.44-.74.65-1.14,1.73-1.14,3.11-.01,3.37,2.37,7.48,5.3,9.17.96.55,1.89.79,2.71.7-.94.38-2.12.2-3.37-.52M2397.06,2605.77c-1.37.38-2.16,1.71-2.17,3.66-.01,3.37,2.36,7.48,5.3,9.17,1.45.84,2.81.96,3.83.34l-.06-.11c-.91.25-1.99.04-3.11-.61-2.88-1.66-5.22-5.7-5.21-9.02,0-1.56.53-2.74,1.47-3.32l-.06-.11"/>
              </g>
            </g>
          </g>
        </g>
      </g>
    </g>
  </g>
  <g id="Layer_2" data-name="Layer 2">
    <g>
      <g id="Layer_4" data-name="Layer 4">
        <polygon class="cls-14" points="1175.01 1849.79 1174.89 1796.46 1220.92 1823.04 1220.92 1876.46 1175.01 1849.79"/>
        <polygon class="cls-17" points="1406.19 2022.37 1220.92 2129.06 1220.92 2036.08 1405.83 1929.98 1406.19 2022.37"/>
        <polygon class="cls-14" points="1220.92 2129.16 1220.92 2036.17 990.23 1903.3 990.23 1995.82 1220.92 2129.16"/>
        <polygon class="cls-16" points="1105.95 1916.77 1129.03 1903.47 1151.83 1916.63 1174.89 1903.2 1128.73 1876.6 1082.52 1903.24 1105.95 1916.77"/>
        <polygon class="cls-16" points="1290.55 1809.71 1313.63 1796.38 1336.71 1809.65 1359.84 1796.34 1313.68 1769.74 1267.46 1796.38 1290.55 1809.71"/>
        <polygon class="cls-16" points="1383.08 1863.22 1406.17 1849.89 1429.25 1863.17 1452.38 1849.85 1406.21 1823.25 1360 1849.89 1383.08 1863.22"/>
        <polygon class="cls-17" points="1406.19 2022.37 1452.38 1995.4 1452.38 1903.14 1406.19 1930.03 1406.19 2022.37"/>
        <polygon class="cls-31" points="1567.99 1836.41 1637.33 1796.46 1637.33 1902.36 1475.46 1995.41 1475.46 1889.66 1567.99 1836.41"/>
        <rect class="cls-28" x="1452.38" y="1903.14" width="23.08" height="92.26"/>
        <polygon class="cls-21" points="1475.46 1903.14 1488.75 1882.12 1452.38 1903.14 1475.46 1903.14"/>
        <path class="cls-21" d="M1591.18,1769.74l-93.01,53.45-184.52-106.51-138.65,79.94,230.83,133.37,50.55-29.15,27.65-15.95,153.29-88.42-46.15-26.73h0ZM1267.46,1796.38l46.21-26.64,46.17,26.6-46.19,26.85-46.19-26.81h0ZM1405.9,1876.61l-46.19-26.78,46.21-26.64,46.17,26.6-46.19,26.82h0Z"/>
        <polygon class="cls-26" points="1452.38 1988.81 1220.92 2122.44 990.23 1989.09 990.23 1995.82 1220.92 2129.16 1452.38 1995.4 1452.38 1988.81"/>
        <g>
          <polygon class="cls-30" points="1229.3 2045.97 1229.3 2072.72 1239.44 2066.86 1239.43 2040.1 1229.3 2045.97"/>
          <path class="cls-39" d="M1237.32,2066.01l-7.97,4.6v2.02l10.04-5.8v-26.64s-2.03,1.16-2.03,1.16c0,0,.04,24.73-.04,24.66h0Z"/>
        </g>
        <g>
          <polygon class="cls-30" points="1247.98 2035.17 1247.98 2061.92 1258.12 2056.06 1258.11 2029.3 1247.98 2035.17"/>
          <path class="cls-39" d="M1256,2055.21l-7.97,4.6v2.02l10.04-5.8v-26.64s-2.03,1.16-2.03,1.16c0,0,.04,24.73-.04,24.66h0Z"/>
        </g>
        <g>
          <polygon class="cls-30" points="1266.65 2024.41 1266.65 2051.15 1276.8 2045.3 1276.79 2018.53 1266.65 2024.41"/>
          <path class="cls-39" d="M1274.68,2044.44l-7.97,4.6v2.02l10.04-5.8v-26.64s-2.03,1.16-2.03,1.16c0,0,.04,24.73-.04,24.66h0Z"/>
        </g>
        <g>
          <polygon class="cls-30" points="1398.19 1949.48 1398.19 1976.23 1408.33 1970.37 1408.32 1943.61 1398.19 1949.48"/>
          <path class="cls-39" d="M1406.21,1969.52l-7.97,4.6v2.02l10.04-5.8v-26.64s-2.03,1.16-2.03,1.16c0,0,.04,24.73-.04,24.66h0Z"/>
        </g>
        <g>
          <polygon class="cls-30" points="1416.87 1938.68 1416.87 1965.42 1427.01 1959.57 1427 1932.81 1416.87 1938.68"/>
          <path class="cls-39" d="M1424.89,1958.72l-7.97,4.6v2.02l10.04-5.8v-26.64s-2.03,1.16-2.03,1.16c0,0,.04,24.73-.04,24.66h0Z"/>
        </g>
        <g>
          <polygon class="cls-30" points="1435.54 1927.91 1435.54 1954.66 1445.69 1948.8 1445.67 1922.04 1435.54 1927.91"/>
          <path class="cls-39" d="M1443.57,1947.95l-7.97,4.6v2.02l10.04-5.8v-26.64s-2.03,1.16-2.03,1.16c0,0,.04,24.73-.04,24.66h0Z"/>
        </g>
        <g>
          <polygon class="cls-30" points="1398.19 1984.96 1398.19 2011.71 1408.33 2005.85 1408.32 1979.09 1398.19 1984.96"/>
          <path class="cls-39" d="M1406.21,2005l-7.97,4.6v2.02l10.04-5.8v-26.64s-2.03,1.16-2.03,1.16c0,0,.04,24.73-.04,24.66h0Z"/>
        </g>
        <g>
          <polygon class="cls-30" points="1416.87 1974.16 1416.87 2000.91 1427.01 1995.05 1427 1968.28 1416.87 1974.16"/>
          <path class="cls-39" d="M1424.89,1994.2l-7.97,4.6v2.02l10.04-5.8v-26.64s-2.03,1.16-2.03,1.16c0,0,.04,24.73-.04,24.66h0Z"/>
        </g>
        <g>
          <polygon class="cls-30" points="1435.54 1963.39 1435.54 1990.14 1445.69 1984.28 1445.67 1957.52 1435.54 1963.39"/>
          <path class="cls-39" d="M1443.57,1983.43l-7.97,4.6v2.02l10.04-5.8v-26.64s-2.03,1.16-2.03,1.16c0,0,.04,24.73-.04,24.66h0Z"/>
        </g>
        <g>
          <polygon class="cls-30" points="1229.3 2083.85 1229.3 2110.6 1239.44 2104.74 1239.43 2077.98 1229.3 2083.85"/>
          <path class="cls-39" d="M1237.32,2103.89l-7.97,4.6v2.02l10.04-5.8v-26.64s-2.03,1.16-2.03,1.16c0,0,.04,24.73-.04,24.66h0Z"/>
        </g>
        <g>
          <polygon class="cls-30" points="1247.98 2073.05 1247.98 2099.8 1258.12 2093.94 1258.11 2067.17 1247.98 2073.05"/>
          <path class="cls-39" d="M1256,2093.09l-7.97,4.6v2.02l10.04-5.8v-26.64s-2.03,1.16-2.03,1.16c0,0,.04,24.73-.04,24.66h0Z"/>
        </g>
        <g>
          <polygon class="cls-30" points="1266.65 2062.28 1266.65 2089.03 1276.8 2083.17 1276.79 2056.41 1266.65 2062.28"/>
          <path class="cls-39" d="M1274.68,2082.32l-7.97,4.6v2.02l10.04-5.8v-26.64s-2.03,1.16-2.03,1.16c0,0,.04,24.73-.04,24.66h0Z"/>
        </g>
        <g>
          <polygon class="cls-30" points="1212.61 2045.47 1212.61 2072.22 1202.46 2066.36 1202.48 2039.6 1212.61 2045.47"/>
          <path class="cls-39" d="M1204.58,2065.52l7.97,4.6v2.02l-10.04-5.8v-26.64s2.03,1.16,2.03,1.16c0,0-.04,24.73.04,24.66h0Z"/>
        </g>
        <g>
          <polygon class="cls-30" points="1193.93 2034.67 1193.93 2061.42 1183.79 2055.56 1183.8 2028.8 1193.93 2034.67"/>
          <path class="cls-39" d="M1185.91,2054.71l7.97,4.6v2.02l-10.04-5.8v-26.64s2.03,1.16,2.03,1.16c0,0-.04,24.73.04,24.66h0Z"/>
        </g>
        <g>
          <polygon class="cls-30" points="1175.25 2023.91 1175.25 2050.65 1165.11 2044.8 1165.12 2018.03 1175.25 2023.91"/>
          <path class="cls-39" d="M1167.23,2043.94l7.97,4.6v2.02l-10.04-5.8v-26.64s2.03,1.16,2.03,1.16c0,0-.04,24.73.04,24.66h0Z"/>
        </g>
        <g>
          <polygon class="cls-30" points="1156.58 2013.06 1156.58 2039.8 1146.43 2033.95 1146.45 2007.19 1156.58 2013.06"/>
          <path class="cls-39" d="M1148.55,2033.1l7.97,4.6v2.02l-10.04-5.8v-26.64s2.03,1.16,2.03,1.16c0,0-.04,24.73.04,24.66h0Z"/>
        </g>
        <g>
          <polygon class="cls-30" points="1137.9 2002.25 1137.9 2029 1127.76 2023.14 1127.77 1996.38 1137.9 2002.25"/>
          <path class="cls-39" d="M1129.88,2022.29l7.97,4.6v2.02l-10.04-5.8v-26.64s2.03,1.16,2.03,1.16c0,0-.04,24.73.04,24.66h0Z"/>
        </g>
        <g>
          <polygon class="cls-30" points="1119.22 1991.49 1119.22 2018.24 1109.08 2012.38 1109.1 1985.61 1119.22 1991.49"/>
          <path class="cls-39" d="M1111.2,2011.53l7.97,4.6v2.02l-10.04-5.8v-26.64s2.03,1.16,2.03,1.16c0,0-.04,24.73.04,24.66h0Z"/>
        </g>
        <g>
          <polygon class="cls-30" points="1100.55 1980.64 1100.55 2007.38 1090.41 2001.53 1090.42 1974.77 1100.55 1980.64"/>
          <path class="cls-39" d="M1092.52,2000.68l7.97,4.6v2.02l-10.04-5.8v-26.64s2.03,1.16,2.03,1.16c0,0-.04,24.73.04,24.66h0Z"/>
        </g>
        <g>
          <polygon class="cls-30" points="1081.87 1969.83 1081.87 1996.58 1071.73 1990.72 1071.74 1963.96 1081.87 1969.83"/>
          <path class="cls-39" d="M1073.85,1989.88l7.97,4.6v2.02l-10.04-5.8v-26.64s2.03,1.16,2.03,1.16c0,0-.04,24.73.04,24.66h0Z"/>
        </g>
        <g>
          <polygon class="cls-30" points="1063.2 1959.07 1063.2 1985.82 1053.05 1979.96 1053.07 1953.2 1063.2 1959.07"/>
          <path class="cls-39" d="M1055.17,1979.11l7.97,4.6v2.02l-10.04-5.8v-26.64s2.03,1.16,2.03,1.16c0,0-.04,24.73.04,24.66h0Z"/>
        </g>
        <g>
          <polygon class="cls-30" points="1044.52 1948.22 1044.52 1974.97 1034.38 1969.11 1034.39 1942.35 1044.52 1948.22"/>
          <path class="cls-39" d="M1036.49,1968.26l7.97,4.6v2.02l-10.04-5.8v-26.64s2.03,1.16,2.03,1.16c0,0-.04,24.73.04,24.66h0Z"/>
        </g>
        <g>
          <polygon class="cls-30" points="1025.84 1937.42 1025.84 1964.16 1015.7 1958.31 1015.71 1931.55 1025.84 1937.42"/>
          <path class="cls-39" d="M1017.82,1957.46l7.97,4.6v2.02l-10.04-5.8v-26.64s2.03,1.16,2.03,1.16c0,0-.04,24.73.04,24.66h0Z"/>
        </g>
        <g>
          <polygon class="cls-30" points="1007.17 1926.66 1007.17 1953.4 997.02 1947.54 997.03 1920.78 1007.17 1926.66"/>
          <path class="cls-39" d="M999.14,1946.69l7.97,4.6v2.02l-10.04-5.8v-26.64s2.03,1.16,2.03,1.16c0,0-.04,24.73.04,24.66h0Z"/>
        </g>
        <g>
          <polygon class="cls-30" points="1192.17 1816.38 1192.17 1843.13 1182.03 1837.27 1182.03 1810.51 1192.17 1816.38"/>
          <path class="cls-39" d="M1184.14,1836.43l7.97,4.6v2.02l-10.04-5.8v-26.64s2.03,1.16,2.03,1.16c0,0-.04,24.73.04,24.66h0Z"/>
        </g>
        <g>
          <polygon class="cls-30" points="1212.61 2084.42 1212.61 2111.16 1202.46 2105.31 1202.48 2078.55 1212.61 2084.42"/>
          <path class="cls-39" d="M1204.58,2104.46l7.97,4.6v2.02l-10.04-5.8v-26.64s2.03,1.16,2.03,1.16c0,0-.04,24.73.04,24.66h0Z"/>
        </g>
        <g>
          <polygon class="cls-30" points="1193.93 2073.62 1193.93 2100.36 1183.79 2094.5 1183.8 2067.74 1193.93 2073.62"/>
          <path class="cls-39" d="M1185.91,2093.65l7.97,4.6v2.02l-10.04-5.8v-26.64s2.03,1.16,2.03,1.16c0,0-.04,24.73.04,24.66h0Z"/>
        </g>
        <g>
          <polygon class="cls-30" points="1175.25 2062.85 1175.25 2089.6 1165.11 2083.74 1165.12 2056.98 1175.25 2062.85"/>
          <path class="cls-39" d="M1167.23,2082.89l7.97,4.6v2.02l-10.04-5.8v-26.64s2.03,1.16,2.03,1.16c0,0-.04,24.73.04,24.66h0Z"/>
        </g>
        <g>
          <polygon class="cls-30" points="1156.58 2052 1156.58 2078.75 1146.43 2072.89 1146.45 2046.13 1156.58 2052"/>
          <path class="cls-39" d="M1148.55,2072.04l7.97,4.6v2.02l-10.04-5.8v-26.64s2.03,1.16,2.03,1.16c0,0-.04,24.73.04,24.66h0Z"/>
        </g>
        <g>
          <polygon class="cls-30" points="1137.9 2041.2 1137.9 2067.94 1127.76 2062.09 1127.77 2035.32 1137.9 2041.2"/>
          <path class="cls-39" d="M1129.88,2061.24l7.97,4.6v2.02l-10.04-5.8v-26.64s2.03,1.16,2.03,1.16c0,0-.04,24.73.04,24.66h0Z"/>
        </g>
        <g>
          <polygon class="cls-30" points="1119.22 2030.43 1119.22 2057.18 1109.08 2051.32 1109.1 2024.56 1119.22 2030.43"/>
          <path class="cls-39" d="M1111.2,2050.47l7.97,4.6v2.02l-10.04-5.8v-26.64s2.03,1.16,2.03,1.16c0,0-.04,24.73.04,24.66h0Z"/>
        </g>
        <g>
          <polygon class="cls-30" points="1100.55 2019.58 1100.55 2046.33 1090.41 2040.47 1090.42 2013.71 1100.55 2019.58"/>
          <path class="cls-39" d="M1092.52,2039.62l7.97,4.6v2.02l-10.04-5.8v-26.64s2.03,1.16,2.03,1.16c0,0-.04,24.73.04,24.66h0Z"/>
        </g>
        <g>
          <polygon class="cls-30" points="1081.87 2008.78 1081.87 2035.53 1071.73 2029.67 1071.74 2002.91 1081.87 2008.78"/>
          <path class="cls-39" d="M1073.85,2028.82l7.97,4.6v2.02l-10.04-5.8v-26.64s2.03,1.16,2.03,1.16c0,0-.04,24.73.04,24.66h0Z"/>
        </g>
        <g>
          <polygon class="cls-30" points="1063.2 1998.02 1063.2 2024.76 1053.05 2018.91 1053.07 1992.14 1063.2 1998.02"/>
          <path class="cls-39" d="M1055.17,2018.05l7.97,4.6v2.02l-10.04-5.8v-26.64s2.03,1.16,2.03,1.16c0,0-.04,24.73.04,24.66h0Z"/>
        </g>
        <g>
          <polygon class="cls-30" points="1044.52 1987.16 1044.52 2013.91 1034.38 2008.05 1034.39 1981.29 1044.52 1987.16"/>
          <path class="cls-39" d="M1036.49,2007.21l7.97,4.6v2.02l-10.04-5.8v-26.64s2.03,1.16,2.03,1.16c0,0-.04,24.73.04,24.66h0Z"/>
        </g>
        <polyline class="cls-16" points="1152.28 1836.73 1198.44 1810.04 1406.19 1930.03 1360.02 1956.51"/>
        <g>
          <polygon class="cls-30" points="1025.84 1976.36 1025.84 2003.11 1015.7 1997.25 1015.71 1970.49 1025.84 1976.36"/>
          <path class="cls-39" d="M1017.82,1996.4l7.97,4.6v2.02l-10.04-5.8v-26.64s2.03,1.16,2.03,1.16c0,0-.04,24.73.04,24.66h0Z"/>
        </g>
        <g>
          <polygon class="cls-30" points="1007.17 1965.6 1007.17 1992.34 997.02 1986.49 997.03 1959.72 1007.17 1965.6"/>
          <path class="cls-39" d="M999.14,1985.63l7.97,4.6v2.02l-10.04-5.8v-26.64s2.03,1.16,2.03,1.16c0,0-.04,24.73.04,24.66h0Z"/>
        </g>
        <polygon class="cls-17" points="1198.28 1970.17 1221.31 1956.75 1243.99 1969.92 1267.25 1956.54 1221.09 1929.94 1174.87 1956.58 1198.28 1970.17"/>
        <path class="cls-21" d="M1128.73,1823.33l-138.5,79.96,230.69,133.48,138.64-80.35-230.83-133.08h0ZM1082.64,1903.28l46.09-26.69,46.27,26.69-46.27,26.65-46.09-26.65h0ZM1174.89,1956.54l46.02-26.61,46.31,26.61-46.31,26.73-46.02-26.73Z"/>
        <polygon class="cls-30" points="1481.61 1901.15 1493.15 1894.49 1493.15 1907.85 1481.61 1914.4 1481.61 1901.15"/>
        <polygon class="cls-40" points="1490.63 1895.95 1493.15 1894.49 1493.15 1907.85 1481.61 1914.4 1481.61 1911.95 1490.63 1906.75 1490.63 1895.95"/>
        <polygon class="cls-30" points="1481.61 1923.25 1493.15 1916.58 1493.15 1929.94 1481.61 1936.49 1481.61 1923.25"/>
        <polygon class="cls-40" points="1490.63 1918.04 1493.15 1916.58 1493.15 1929.94 1481.61 1936.49 1481.61 1934.04 1490.63 1928.83 1490.63 1918.04"/>
        <polygon class="cls-30" points="1469.69 1908.61 1458.15 1908.65 1458.15 1922.01 1469.69 1922.01 1469.69 1908.61"/>
        <polygon class="cls-40" points="1460.63 1908.64 1458.15 1908.65 1458.15 1922.01 1469.69 1922.01 1469.69 1919.88 1460.67 1919.88 1460.63 1908.64"/>
        <polygon class="cls-30" points="1469.69 1929.8 1458.14 1929.83 1458.14 1943.19 1469.69 1943.19 1469.69 1929.8"/>
        <polygon class="cls-40" points="1460.63 1929.82 1458.14 1929.83 1458.14 1943.19 1469.69 1943.19 1469.69 1941.06 1460.66 1941.06 1460.63 1929.82"/>
        <polygon class="cls-30" points="1469.69 1950.62 1458.14 1950.65 1458.14 1964.01 1469.69 1964.01 1469.69 1950.62"/>
        <polygon class="cls-40" points="1460.63 1950.64 1458.14 1950.65 1458.14 1964.01 1469.69 1964.01 1469.69 1961.88 1460.66 1961.88 1460.63 1950.64"/>
        <polygon class="cls-30" points="1469.69 1971.17 1458.14 1971.21 1458.14 1984.56 1469.69 1984.57 1469.69 1971.17"/>
        <polygon class="cls-40" points="1460.63 1971.2 1458.14 1971.21 1458.14 1984.56 1469.69 1984.57 1469.69 1982.44 1460.66 1982.43 1460.63 1971.2"/>
        <polygon class="cls-30" points="1481.61 1945.33 1493.15 1938.67 1493.15 1952.03 1481.61 1958.58 1481.61 1945.33"/>
        <polygon class="cls-40" points="1490.63 1940.13 1493.15 1938.67 1493.15 1952.03 1481.61 1958.58 1481.61 1956.13 1490.63 1950.93 1490.63 1940.13"/>
        <polygon class="cls-30" points="1481.61 1967.42 1493.15 1960.76 1493.15 1974.12 1481.61 1980.67 1481.61 1967.42"/>
        <polygon class="cls-40" points="1490.63 1962.22 1493.15 1960.76 1493.15 1974.12 1481.61 1980.67 1481.61 1978.22 1490.63 1973.01 1490.63 1962.22"/>
        <polygon class="cls-30" points="1501.64 1889.47 1513.18 1882.81 1513.18 1896.17 1501.64 1902.72 1501.64 1889.47"/>
        <polygon class="cls-40" points="1510.66 1884.27 1513.18 1882.81 1513.18 1896.17 1501.64 1902.72 1501.64 1900.27 1510.66 1895.07 1510.66 1884.27"/>
        <polygon class="cls-30" points="1501.64 1911.56 1513.18 1904.9 1513.18 1918.26 1501.64 1924.81 1501.64 1911.56"/>
        <polygon class="cls-40" points="1510.66 1906.36 1513.18 1904.9 1513.18 1918.26 1501.64 1924.81 1501.64 1922.36 1510.66 1917.15 1510.66 1906.36"/>
        <polygon class="cls-30" points="1501.64 1933.65 1513.18 1926.99 1513.18 1940.35 1501.64 1946.9 1501.64 1933.65"/>
        <polygon class="cls-40" points="1510.66 1928.45 1513.18 1926.99 1513.18 1940.35 1501.64 1946.9 1501.64 1944.45 1510.66 1939.25 1510.66 1928.45"/>
        <polygon class="cls-30" points="1501.64 1955.75 1513.18 1949.08 1513.18 1962.44 1501.64 1968.99 1501.64 1955.75"/>
        <polygon class="cls-40" points="1510.66 1950.54 1513.18 1949.08 1513.18 1962.44 1501.64 1968.99 1501.64 1966.54 1510.66 1961.33 1510.66 1950.54"/>
        <polygon class="cls-30" points="1521.66 1877.79 1533.2 1871.13 1533.2 1884.49 1521.66 1891.04 1521.66 1877.79"/>
        <polygon class="cls-40" points="1530.68 1872.58 1533.2 1871.13 1533.2 1884.49 1521.66 1891.04 1521.66 1888.59 1530.68 1883.38 1530.68 1872.58"/>
        <polygon class="cls-30" points="1521.66 1899.88 1533.2 1893.22 1533.2 1906.58 1521.66 1913.13 1521.66 1899.88"/>
        <polygon class="cls-40" points="1530.68 1894.68 1533.2 1893.22 1533.2 1906.58 1521.66 1913.13 1521.66 1910.68 1530.68 1905.48 1530.68 1894.68"/>
        <polygon class="cls-30" points="1521.66 1921.97 1533.2 1915.31 1533.2 1928.67 1521.66 1935.22 1521.66 1921.97"/>
        <polygon class="cls-40" points="1530.68 1916.76 1533.2 1915.31 1533.2 1928.67 1521.66 1935.22 1521.66 1932.77 1530.68 1927.56 1530.68 1916.76"/>
        <polygon class="cls-30" points="1521.66 1944.06 1533.2 1937.4 1533.2 1950.76 1521.66 1957.31 1521.66 1944.06"/>
        <polygon class="cls-40" points="1530.68 1938.86 1533.2 1937.4 1533.2 1950.76 1521.66 1957.31 1521.66 1954.86 1530.68 1949.66 1530.68 1938.86"/>
        <polygon class="cls-30" points="1541.68 1866.11 1553.22 1859.45 1553.22 1872.81 1541.68 1879.36 1541.68 1866.11"/>
        <polygon class="cls-40" points="1550.7 1860.9 1553.22 1859.45 1553.22 1872.81 1541.68 1879.36 1541.68 1876.91 1550.7 1871.7 1550.7 1860.9"/>
        <polygon class="cls-30" points="1541.68 1888.2 1553.22 1881.54 1553.22 1894.9 1541.68 1901.45 1541.68 1888.2"/>
        <polygon class="cls-40" points="1550.7 1883 1553.22 1881.54 1553.22 1894.9 1541.68 1901.45 1541.68 1899 1550.7 1893.79 1550.7 1883"/>
        <polygon class="cls-30" points="1541.68 1910.29 1553.22 1903.63 1553.22 1916.99 1541.68 1923.54 1541.68 1910.29"/>
        <polygon class="cls-40" points="1550.7 1905.08 1553.22 1903.63 1553.22 1916.99 1541.68 1923.54 1541.68 1921.09 1550.7 1915.88 1550.7 1905.08"/>
        <polygon class="cls-30" points="1541.68 1932.38 1553.22 1925.72 1553.22 1939.08 1541.68 1945.63 1541.68 1932.38"/>
        <polygon class="cls-40" points="1550.7 1927.18 1553.22 1925.72 1553.22 1939.08 1541.68 1945.63 1541.68 1943.18 1550.7 1937.98 1550.7 1927.18"/>
        <polygon class="cls-30" points="1561.71 1854.43 1573.25 1847.77 1573.25 1861.13 1561.71 1867.68 1561.71 1854.43"/>
        <polygon class="cls-40" points="1570.73 1849.22 1573.25 1847.77 1573.25 1861.13 1561.71 1867.68 1561.71 1865.23 1570.73 1860.02 1570.73 1849.22"/>
        <polygon class="cls-30" points="1561.71 1876.52 1573.25 1869.86 1573.25 1883.21 1561.71 1889.77 1561.71 1876.52"/>
        <polygon class="cls-40" points="1570.73 1871.31 1573.25 1869.86 1573.25 1883.21 1561.71 1889.77 1561.71 1887.32 1570.73 1882.11 1570.73 1871.31"/>
        <polygon class="cls-30" points="1561.71 1898.61 1573.25 1891.95 1573.25 1905.31 1561.71 1911.86 1561.71 1898.61"/>
        <polygon class="cls-40" points="1570.73 1893.4 1573.25 1891.95 1573.25 1905.31 1561.71 1911.86 1561.71 1909.41 1570.73 1904.2 1570.73 1893.4"/>
        <polygon class="cls-30" points="1561.71 1920.7 1573.25 1914.04 1573.25 1927.4 1561.71 1933.95 1561.71 1920.7"/>
        <polygon class="cls-40" points="1570.73 1915.49 1573.25 1914.04 1573.25 1927.4 1561.71 1933.95 1561.71 1931.5 1570.73 1926.29 1570.73 1915.49"/>
        <polygon class="cls-30" points="1581.74 1842.75 1593.27 1836.09 1593.27 1849.45 1581.74 1856 1581.74 1842.75"/>
        <polygon class="cls-40" points="1590.75 1837.54 1593.27 1836.09 1593.27 1849.45 1581.74 1856 1581.74 1853.55 1590.75 1848.34 1590.75 1837.54"/>
        <polygon class="cls-30" points="1581.74 1864.84 1593.27 1858.18 1593.27 1871.53 1581.74 1878.09 1581.74 1864.84"/>
        <polygon class="cls-40" points="1590.75 1859.63 1593.27 1858.18 1593.27 1871.53 1581.74 1878.09 1581.74 1875.64 1590.75 1870.43 1590.75 1859.63"/>
        <polygon class="cls-30" points="1581.74 1886.93 1593.27 1880.27 1593.27 1893.63 1581.74 1900.18 1581.74 1886.93"/>
        <polygon class="cls-40" points="1590.75 1881.72 1593.27 1880.27 1593.27 1893.63 1581.74 1900.18 1581.74 1897.73 1590.75 1892.52 1590.75 1881.72"/>
        <polygon class="cls-30" points="1581.74 1909.02 1593.27 1902.36 1593.27 1915.71 1581.74 1922.27 1581.74 1909.02"/>
        <polygon class="cls-40" points="1590.75 1903.81 1593.27 1902.36 1593.27 1915.71 1581.74 1922.27 1581.74 1919.82 1590.75 1914.61 1590.75 1903.81"/>
        <polygon class="cls-30" points="1601.76 1831.07 1613.3 1824.4 1613.3 1837.76 1601.76 1844.32 1601.76 1831.07"/>
        <polygon class="cls-40" points="1610.78 1825.86 1613.3 1824.4 1613.3 1837.76 1601.76 1844.32 1601.76 1841.87 1610.78 1836.66 1610.78 1825.86"/>
        <polygon class="cls-30" points="1601.76 1853.16 1613.3 1846.5 1613.3 1859.85 1601.76 1866.41 1601.76 1853.16"/>
        <polygon class="cls-40" points="1610.78 1847.95 1613.3 1846.5 1613.3 1859.85 1601.76 1866.41 1601.76 1863.96 1610.78 1858.75 1610.78 1847.95"/>
        <polygon class="cls-30" points="1601.76 1875.25 1613.3 1868.59 1613.3 1881.94 1601.76 1888.5 1601.76 1875.25"/>
        <polygon class="cls-40" points="1610.78 1870.04 1613.3 1868.59 1613.3 1881.94 1601.76 1888.5 1601.76 1886.05 1610.78 1880.84 1610.78 1870.04"/>
        <polygon class="cls-30" points="1601.76 1897.34 1613.3 1890.68 1613.3 1904.03 1601.76 1910.59 1601.76 1897.34"/>
        <polygon class="cls-40" points="1610.78 1892.13 1613.3 1890.68 1613.3 1904.03 1601.76 1910.59 1601.76 1908.14 1610.78 1902.93 1610.78 1892.13"/>
        <polygon class="cls-30" points="1621.78 1819.39 1633.32 1812.72 1633.32 1826.08 1621.78 1832.64 1621.78 1819.39"/>
        <polygon class="cls-40" points="1630.8 1814.18 1633.32 1812.72 1633.32 1826.08 1621.78 1832.64 1621.78 1830.19 1630.8 1824.98 1630.8 1814.18"/>
        <polygon class="cls-30" points="1621.78 1841.48 1633.32 1834.82 1633.32 1848.18 1621.78 1854.73 1621.78 1841.48"/>
        <polygon class="cls-40" points="1630.8 1836.27 1633.32 1834.82 1633.32 1848.18 1621.78 1854.73 1621.78 1852.28 1630.8 1847.07 1630.8 1836.27"/>
        <polygon class="cls-30" points="1621.78 1863.57 1633.32 1856.9 1633.32 1870.26 1621.78 1876.82 1621.78 1863.57"/>
        <polygon class="cls-40" points="1630.8 1858.36 1633.32 1856.9 1633.32 1870.26 1621.78 1876.82 1621.78 1874.37 1630.8 1869.16 1630.8 1858.36"/>
        <polygon class="cls-30" points="1621.78 1885.66 1633.32 1879 1633.32 1892.35 1621.78 1898.91 1621.78 1885.66"/>
        <polygon class="cls-40" points="1630.8 1880.45 1633.32 1879 1633.32 1892.35 1621.78 1898.91 1621.78 1896.46 1630.8 1891.25 1630.8 1880.45"/>
        <path class="cls-21" d="M1129.2,1826.99l-132.12,76.31,223.84,128.93,131.79-76.28-223.51-128.96h0ZM1074.61,1903.05l54.94-31.72,54.58,31.92-54.58,31.49-54.94-31.69ZM1166.38,1956.48l54.94-31.72,54.58,31.92-54.58,31.49-54.94-31.69Z"/>
        <path class="cls-21" d="M1314.3,1720.63l-132.12,76.31,223.84,128.93,223.76-129.77-38.04-21.91-93.09,52.8-184.34-106.36ZM1259.72,1796.69l54.94-31.72,54.58,31.92-54.58,31.49-54.94-31.69ZM1351.49,1850.13l54.94-31.72,54.58,31.92-54.58,31.49-54.94-31.69Z"/>
      </g>
      <g id="Layer_3-2" data-name="Layer 3">
        <polygon class="cls-7" points="1421.33 1959.72 1351.19 1998.93 1340.63 2147.91 1409.78 2107.81 1409.74 2055.84 1421.33 1967.25 1421.33 1959.72"/>
        <polygon class="cls-21" points="1376.56 1992.16 1386.67 1986.28 1386.67 2121.22 1376.56 2127.11 1376.56 1992.16"/>
        <polygon class="cls-21" points="1398.89 1980.13 1403.26 1977.62 1403.26 2046.1 1398.89 2048.63 1398.89 1980.13"/>
        <polygon class="cls-35" points="1360.8 1996.24 1360.8 2002.27 1354.05 1998.37 1353.35 2004.12 1360.8 2008.42 1420.53 1974.08 1421.94 1962.62 1360.8 1996.24"/>
        <polygon class="cls-22" points="1340.63 2147.91 1271.35 2107.77 1283.15 1951.77 1354.34 1992.88 1340.63 2147.91"/>
        <g>
          <polygon class="cls-7" points="1360.63 1929.89 1429.32 1890.24 1429.32 1962.66 1360.63 2002.1 1360.63 1929.89"/>
          <polygon class="cls-6" points="1429.32 1890.24 1335.98 1836.46 1267.23 1876.23 1360.63 1929.89 1429.32 1890.24"/>
          <polygon class="cls-22" points="1267.23 1876.23 1267.23 1948.18 1360.63 2002.1 1360.63 1929.89 1267.23 1876.23"/>
          <polygon class="cls-27" points="1422.67 1889.76 1336.99 1840.39 1273.88 1876.9 1359.61 1926.16 1422.67 1889.76"/>
        </g>
        <polygon class="cls-21" points="1386.67 1949.11 1396.13 1943.61 1396.77 1981.35 1386.67 1987.15 1386.67 1949.11"/>
      </g>
    </g>
  </g>
  <g id="Layer_1" data-name="Layer 1">
    <g>
      <polyline class="cls-8" points="2191.98 1936.18 2053.91 2015.9 2109.14 2047.79 2191.98 1999.96 2191.98 1936.18"/>
      <polyline class="cls-8" points="2081.52 1872.41 2081.52 1904.42 2081.52 1936.3 1998.67 1984.01 1943.44 1952.13 2081.52 1872.41"/>
      <polygon class="cls-8" points="1860.56 1904.42 1915.83 1872.52 1943.41 1888.35 1971.06 1872.41 1915.83 1840.52 1832.98 1888.35 1860.56 1904.42"/>
      <polyline class="cls-10" points="2109.14 2111.56 2314.17 2012.06 2314.17 2121 2109.14 2239.38 2109.14 2111.56"/>
      <polyline class="cls-23" points="2109.14 2111.56 2109.14 2239.38 2164.34 2207.51 2164.34 2079.69 2109.14 2111.56"/>
      <polyline class="cls-28" points="1722.6 1888.3 2095.27 2103.46 2095.27 2231.28 1708.65 2008.06 1708.43 1896.48"/>
      <polygon class="cls-30" points="1998.67 2047.79 1998.67 2175.6 2109.14 2239.38 2109.14 2111.56 1998.67 2047.79"/>
      <polygon class="cls-25" points="1805.42 1936.21 1805.42 2064.03 1998.67 2175.6 1998.67 2047.79 1805.42 1936.21"/>
      <line class="cls-4" x1="2012.48" y1="2055.76" x2="2012.48" y2="2183.1"/>
      <line class="cls-4" x1="2026.29" y1="2063.93" x2="2026.29" y2="2191.27"/>
      <line class="cls-4" x1="2040.1" y1="2072.09" x2="2040.1" y2="2199.43"/>
      <line class="cls-4" x1="2053.91" y1="2080.26" x2="2053.91" y2="2207.6"/>
      <line class="cls-4" x1="2067.71" y1="2088.42" x2="2067.71" y2="2215.76"/>
      <line class="cls-4" x1="2081.52" y1="2096.58" x2="2081.52" y2="2223.93"/>
      <line class="cls-4" x1="2095.33" y1="2104.75" x2="2095.33" y2="2232.09"/>
      <line class="cls-4" x1="2108.71" y1="2146.78" x2="1998.24" y2="2082.89"/>
      <line class="cls-4" x1="2108.53" y1="2177.96" x2="1998.83" y2="2114.51"/>
      <polygon class="cls-30" points="1998.67 2112 1811.97 2003.9 1811.97 1961.62 1998.67 2069.44 1998.67 2112"/>
      <polygon class="cls-38" points="2005.67 2073.46 2005.67 2079.84 1805.42 1963.88 1805.42 1958.16 2005.67 2073.46"/>
      <line class="cls-4" x1="2108.4" y1="2210.45" x2="1997.94" y2="2146.56"/>
      <line class="cls-4" x1="2122.95" y1="2103.78" x2="2122.95" y2="2231.12"/>
      <line class="cls-4" x1="2136.75" y1="2095.86" x2="2136.75" y2="2223.2"/>
      <line class="cls-4" x1="2150.56" y1="2088.42" x2="2150.56" y2="2215.76"/>
      <line class="cls-4" x1="2164.34" y1="2111.64" x2="2109.14" y2="2143.59"/>
      <line class="cls-4" x1="2109.14" y1="2175.51" x2="2164.34" y2="2143.56"/>
      <line class="cls-4" x1="2109.14" y1="2207.44" x2="2164.34" y2="2175.49"/>
      <polygon class="cls-41" points="1811.72 2001.36 1811.72 2003.68 1998.58 2111.87 1998.58 2109.29 1811.72 2001.36"/>
      <g>
        <polygon class="cls-24" points="1971.1 2164.28 1971.1 2047.79 1975.69 2050.56 1975.69 2166.78 1971.1 2164.28"/>
        <polyline class="cls-25" points="1975.69 2166.83 1977.65 2165.36 1977.65 2051.7 1975.69 2050.56 1975.69 2166.8"/>
      </g>
      <g>
        <polygon class="cls-24" points="1943.52 2148.31 1943.52 2031.82 1948.11 2034.6 1948.11 2150.81 1943.52 2148.31"/>
        <polyline class="cls-25" points="1948.11 2150.86 1950.07 2149.39 1950.07 2035.73 1948.11 2034.6 1948.11 2150.83"/>
      </g>
      <g>
        <polygon class="cls-24" points="1915.95 2132.33 1915.95 2015.84 1920.54 2018.61 1920.54 2134.83 1915.95 2132.33"/>
        <polyline class="cls-25" points="1920.54 2134.88 1922.5 2133.41 1922.5 2019.74 1920.54 2018.61 1920.54 2134.85"/>
      </g>
      <g>
        <polygon class="cls-24" points="1888.37 2116.59 1888.37 2000.1 1892.96 2002.88 1892.96 2119.09 1888.37 2116.59"/>
        <polyline class="cls-25" points="1892.96 2119.14 1894.92 2117.68 1894.92 2004.01 1892.96 2002.88 1892.96 2119.11"/>
      </g>
      <polygon class="cls-38" points="2048.31 2098.19 2048.31 2104.65 2005.67 2079.84 2005.67 2073.46 2048.31 2098.19"/>
      <g>
        <polygon class="cls-24" points="1860.8 2100.37 1860.8 1983.88 1865.38 1986.66 1865.38 2102.87 1860.8 2100.37"/>
        <polyline class="cls-25" points="1865.38 2102.92 1867.34 2101.46 1867.34 1987.79 1865.38 1986.66 1865.38 2102.89"/>
      </g>
      <g>
        <polygon class="cls-24" points="1833.22 2084.78 1833.22 1968.29 1837.81 1971.07 1837.81 2087.28 1833.22 2084.78"/>
        <polyline class="cls-25" points="1837.81 2087.34 1839.77 2085.87 1839.77 1972.2 1837.81 1971.07 1837.81 2087.3"/>
      </g>
      <g>
        <polygon class="cls-24" points="1998.64 2179.36 1998.64 2064.89 2003.56 2067.58 2003.56 2182.04 1998.64 2179.36"/>
        <polyline class="cls-25" points="2003.56 2182.09 2005.67 2180.52 2005.67 2073.46 2003.56 2072.32 2003.56 2182.06"/>
      </g>
      <g>
        <polygon class="cls-24" points="2022.81 2193.21 2022.81 2078.1 2027.69 2080.79 2027.69 2195.9 2022.81 2193.21"/>
        <polyline class="cls-25" points="2027.69 2195.96 2029.77 2194.38 2029.77 2086.72 2027.69 2085.57 2027.69 2195.93"/>
      </g>
      <g>
        <polygon class="cls-24" points="2048.31 2208.06 2048.31 2093.77 2053.2 2096.45 2053.2 2210.74 2048.31 2208.06"/>
        <polyline class="cls-25" points="2053.2 2210.8 2055.28 2209.23 2055.28 2102.33 2053.2 2101.19 2053.2 2210.76"/>
      </g>
      <g>
        <polygon class="cls-24" points="2077.3 2224.68 2077.3 2110.92 2082.19 2113.58 2082.19 2227.34 2077.3 2224.68"/>
        <polyline class="cls-25" points="2082.19 2227.4 2084.27 2225.82 2084.27 2118.75 2082.19 2117.61 2082.19 2227.36"/>
      </g>
      <g>
        <polygon class="cls-24" points="2169.5 2208.28 2169.5 2076.42 2164.62 2079.51 2164.62 2211.36 2169.5 2208.28"/>
        <polyline class="cls-25" points="2164.62 2211.42 2162.53 2209.61 2162.53 2086.3 2164.62 2084.98 2164.62 2211.39"/>
      </g>
      <g>
        <polygon class="cls-24" points="2102.18 2238.08 2102.18 2106.29 2107.05 2109.38 2107.05 2241.17 2102.18 2238.08"/>
        <polyline class="cls-25" points="2107.05 2241.21 2111.29 2238.69 2111.47 2116.48 2107.05 2115.5 2107.05 2241.17"/>
      </g>
      <polyline class="cls-9" points="2107.05 2126.3 2314.17 2006.73 2314.17 2012.06 2107.05 2132.27 2107.05 2126.3"/>
      <polygon class="cls-38" points="2102.18 2129.06 2102.18 2135.51 2084.35 2125.19 2084.35 2119.14 2102.18 2129.06"/>
      <polygon class="cls-32" points="2077.35 2114.89 2077.3 2121.4 2055.28 2108.64 2055.28 2102.6 2077.35 2114.89"/>
      <polygon class="cls-38" points="2111.47 2129.67 2111.47 2135.8 2162.48 2106.29 2162.53 2100.1 2111.47 2129.67"/>
      <g>
        <polygon class="cls-59" points="1716.67 1937.05 1726.1 1942.5 1726.1 1923.65 1716.67 1918.2 1716.67 1937.05"/>
        <polyline class="cls-40" points="1717.92 1936.33 1726.1 1941.05 1726.1 1942.5 1716.67 1937.05 1716.67 1918.2 1717.92 1918.93 1717.92 1936.33"/>
      </g>
      <g>
        <polygon class="cls-59" points="1734.68 1947.47 1744.12 1952.92 1744.12 1934.07 1734.68 1928.63 1734.68 1947.47"/>
        <polyline class="cls-40" points="1735.94 1946.75 1744.12 1951.47 1744.12 1952.92 1734.68 1947.47 1734.68 1928.63 1735.94 1929.35 1735.94 1946.75"/>
      </g>
      <g>
        <polygon class="cls-59" points="1752.7 1957.9 1762.14 1963.34 1762.14 1944.49 1752.7 1939.05 1752.7 1957.9"/>
        <polyline class="cls-40" points="1753.96 1957.17 1762.14 1961.9 1762.14 1963.34 1752.7 1957.9 1752.7 1939.05 1753.96 1939.78 1753.96 1957.17"/>
      </g>
      <g>
        <polygon class="cls-59" points="1770.72 1968.32 1780.15 1973.77 1780.15 1954.92 1770.72 1949.47 1770.72 1968.32"/>
        <polyline class="cls-40" points="1771.98 1967.6 1780.15 1972.32 1780.15 1973.77 1770.72 1968.32 1770.72 1949.47 1771.98 1950.2 1771.98 1967.6"/>
      </g>
      <g>
        <polygon class="cls-59" points="1788.74 1978.74 1798.17 1984.19 1798.17 1965.34 1788.74 1959.89 1788.74 1978.74"/>
        <polyline class="cls-40" points="1789.99 1978.02 1798.17 1982.74 1798.17 1984.19 1788.74 1978.74 1788.74 1959.89 1789.99 1960.62 1789.99 1978.02"/>
      </g>
      <g>
        <polygon class="cls-59" points="1716.67 1968.32 1726.1 1973.77 1726.1 1954.92 1716.67 1949.47 1716.67 1968.32"/>
        <polyline class="cls-40" points="1717.92 1967.6 1726.1 1972.32 1726.1 1973.77 1716.67 1968.32 1716.67 1949.47 1717.92 1950.2 1717.92 1967.6"/>
      </g>
      <g>
        <polygon class="cls-59" points="1734.68 1978.74 1744.12 1984.19 1744.12 1965.34 1734.68 1959.89 1734.68 1978.74"/>
        <polyline class="cls-40" points="1735.94 1978.02 1744.12 1982.74 1744.12 1984.19 1734.68 1978.74 1734.68 1959.89 1735.94 1960.62 1735.94 1978.02"/>
      </g>
      <g>
        <polygon class="cls-59" points="1752.7 1989.17 1762.14 1994.61 1762.14 1975.76 1752.7 1970.32 1752.7 1989.17"/>
        <polyline class="cls-40" points="1753.96 1988.44 1762.14 1993.16 1762.14 1994.61 1752.7 1989.17 1752.7 1970.32 1753.96 1971.04 1753.96 1988.44"/>
      </g>
      <g>
        <polygon class="cls-59" points="1770.72 1999.59 1780.15 2005.03 1780.15 1986.19 1770.72 1980.74 1770.72 1999.59"/>
        <polyline class="cls-40" points="1771.98 1998.86 1780.15 2003.58 1780.15 2005.03 1770.72 1999.59 1770.72 1980.74 1771.98 1981.46 1771.98 1998.86"/>
      </g>
      <g>
        <polygon class="cls-59" points="1788.74 2010.01 1798.17 2015.46 1798.17 1996.61 1788.74 1991.16 1788.74 2010.01"/>
        <polyline class="cls-40" points="1789.99 2009.29 1798.17 2014.01 1798.17 2015.46 1788.74 2010.01 1788.74 1991.16 1789.99 1991.89 1789.99 2009.29"/>
      </g>
      <g>
        <polygon class="cls-59" points="1716.67 1999.59 1726.1 2005.03 1726.1 1986.19 1716.67 1980.74 1716.67 1999.59"/>
        <polyline class="cls-40" points="1717.92 1998.86 1726.1 2003.58 1726.1 2005.03 1716.67 1999.59 1716.67 1980.74 1717.92 1981.46 1717.92 1998.86"/>
      </g>
      <g>
        <polygon class="cls-59" points="1734.68 2010.01 1744.12 2015.46 1744.12 1996.61 1734.68 1991.16 1734.68 2010.01"/>
        <polyline class="cls-40" points="1735.94 2009.29 1744.12 2014.01 1744.12 2015.46 1734.68 2010.01 1734.68 1991.16 1735.94 1991.89 1735.94 2009.29"/>
      </g>
      <g>
        <polygon class="cls-59" points="1752.7 2020.43 1762.14 2025.88 1762.14 2007.03 1752.7 2001.58 1752.7 2020.43"/>
        <polyline class="cls-40" points="1753.96 2019.71 1762.14 2024.43 1762.14 2025.88 1752.7 2020.43 1752.7 2001.58 1753.96 2002.31 1753.96 2019.71"/>
      </g>
      <g>
        <polygon class="cls-59" points="1770.72 2030.85 1780.15 2036.3 1780.15 2017.45 1770.72 2012 1770.72 2030.85"/>
        <polyline class="cls-40" points="1771.98 2030.13 1780.15 2034.85 1780.15 2036.3 1770.72 2030.85 1770.72 2012 1771.98 2012.73 1771.98 2030.13"/>
      </g>
      <g>
        <polygon class="cls-59" points="1788.74 2041.27 1798.17 2046.72 1798.17 2027.88 1788.74 2022.43 1788.74 2041.27"/>
        <polyline class="cls-40" points="1789.99 2040.55 1798.17 2045.27 1798.17 2046.72 1788.74 2041.27 1788.74 2022.43 1789.99 2023.15 1789.99 2040.55"/>
      </g>
      <g>
        <polygon class="cls-59" points="2196.7 2115.44 2187.27 2120.89 2187.27 2102.04 2196.7 2096.6 2196.7 2115.44"/>
        <polyline class="cls-40" points="2195.44 2114.72 2187.27 2119.44 2187.27 2120.89 2196.7 2115.44 2196.7 2096.6 2195.44 2097.32 2195.44 2114.72"/>
      </g>
      <g>
        <polygon class="cls-59" points="2217.59 2103.29 2208.16 2108.74 2208.16 2089.9 2217.59 2084.45 2217.59 2103.29"/>
        <polyline class="cls-40" points="2216.33 2102.57 2208.16 2107.29 2208.16 2108.74 2217.59 2103.29 2217.59 2084.45 2216.33 2085.17 2216.33 2102.57"/>
      </g>
      <g>
        <polygon class="cls-59" points="2238.48 2091.15 2229.04 2096.6 2229.04 2077.75 2238.48 2072.3 2238.48 2091.15"/>
        <polyline class="cls-40" points="2237.22 2090.43 2229.04 2095.15 2229.04 2096.6 2238.48 2091.15 2238.48 2072.3 2237.22 2073.02 2237.22 2090.43"/>
      </g>
      <g>
        <polygon class="cls-59" points="2259.37 2079 2249.93 2084.45 2249.93 2065.6 2259.37 2060.15 2259.37 2079"/>
        <polyline class="cls-40" points="2258.11 2078.28 2249.93 2083 2249.93 2084.45 2259.37 2079 2259.37 2060.15 2258.11 2060.88 2258.11 2078.28"/>
      </g>
      <g>
        <polygon class="cls-59" points="2280.25 2066.85 2270.82 2072.3 2270.82 2053.45 2280.25 2048 2280.25 2066.85"/>
        <polyline class="cls-40" points="2279 2066.13 2270.82 2070.85 2270.82 2072.3 2280.25 2066.85 2280.25 2048 2279 2048.73 2279 2066.13"/>
      </g>
      <g>
        <polygon class="cls-59" points="2301.14 2054.71 2291.71 2060.15 2291.71 2041.31 2301.14 2035.86 2301.14 2054.71"/>
        <polyline class="cls-40" points="2299.89 2053.98 2291.71 2058.7 2291.71 2060.15 2301.14 2054.71 2301.14 2035.86 2299.89 2036.59 2299.89 2053.98"/>
      </g>
      <g>
        <polygon class="cls-59" points="2196.7 2145.81 2187.27 2151.26 2187.27 2132.41 2196.7 2126.96 2196.7 2145.81"/>
        <polyline class="cls-40" points="2195.44 2145.09 2187.27 2149.81 2187.27 2151.26 2196.7 2145.81 2196.7 2126.96 2195.44 2127.69 2195.44 2145.09"/>
      </g>
      <g>
        <polygon class="cls-59" points="2217.59 2133.66 2208.16 2139.11 2208.16 2120.26 2217.59 2114.81 2217.59 2133.66"/>
        <polyline class="cls-40" points="2216.33 2132.94 2208.16 2137.66 2208.16 2139.11 2217.59 2133.66 2217.59 2114.81 2216.33 2115.54 2216.33 2132.94"/>
      </g>
      <g>
        <polygon class="cls-59" points="2238.48 2121.52 2229.04 2126.96 2229.04 2108.12 2238.48 2102.67 2238.48 2121.52"/>
        <polyline class="cls-40" points="2237.22 2120.79 2229.04 2125.51 2229.04 2126.96 2238.48 2121.52 2238.48 2102.67 2237.22 2103.4 2237.22 2120.79"/>
      </g>
      <g>
        <polygon class="cls-59" points="2259.37 2109.37 2249.93 2114.81 2249.93 2095.97 2259.37 2090.52 2259.37 2109.37"/>
        <polyline class="cls-40" points="2258.11 2108.65 2249.93 2113.37 2249.93 2114.81 2259.37 2109.37 2259.37 2090.52 2258.11 2091.25 2258.11 2108.65"/>
      </g>
      <g>
        <polygon class="cls-59" points="2280.25 2097.22 2270.82 2102.67 2270.82 2083.82 2280.25 2078.37 2280.25 2097.22"/>
        <polyline class="cls-40" points="2279 2096.5 2270.82 2101.22 2270.82 2102.67 2280.25 2097.22 2280.25 2078.37 2279 2079.1 2279 2096.5"/>
      </g>
      <g>
        <polygon class="cls-59" points="2301.14 2085.08 2291.71 2090.52 2291.71 2071.67 2301.14 2066.23 2301.14 2085.08"/>
        <polyline class="cls-40" points="2299.89 2084.35 2291.71 2089.07 2291.71 2090.52 2301.14 2085.08 2301.14 2066.23 2299.89 2066.95 2299.89 2084.35"/>
      </g>
      <g>
        <polygon class="cls-59" points="2196.7 2176.18 2187.27 2181.62 2187.27 2162.78 2196.7 2157.33 2196.7 2176.18"/>
        <polyline class="cls-40" points="2195.44 2175.46 2187.27 2180.18 2187.27 2181.62 2196.7 2176.18 2196.7 2157.33 2195.44 2158.06 2195.44 2175.46"/>
      </g>
      <g>
        <polygon class="cls-59" points="2217.59 2164.03 2208.16 2169.48 2208.16 2150.63 2217.59 2145.18 2217.59 2164.03"/>
        <polyline class="cls-40" points="2216.33 2163.31 2208.16 2168.03 2208.16 2169.48 2217.59 2164.03 2217.59 2145.18 2216.33 2145.91 2216.33 2163.31"/>
      </g>
      <g>
        <polygon class="cls-59" points="2238.48 2151.89 2229.04 2157.33 2229.04 2138.48 2238.48 2133.04 2238.48 2151.89"/>
        <polyline class="cls-40" points="2237.22 2151.16 2229.04 2155.88 2229.04 2157.33 2238.48 2151.89 2238.48 2133.04 2237.22 2133.76 2237.22 2151.16"/>
      </g>
      <g>
        <polygon class="cls-59" points="2259.37 2139.74 2249.93 2145.18 2249.93 2126.33 2259.37 2120.89 2259.37 2139.74"/>
        <polyline class="cls-40" points="2258.11 2139.01 2249.93 2143.74 2249.93 2145.18 2259.37 2139.74 2259.37 2120.89 2258.11 2121.62 2258.11 2139.01"/>
      </g>
      <g>
        <polygon class="cls-59" points="2280.25 2127.59 2270.82 2133.04 2270.82 2114.19 2280.25 2108.74 2280.25 2127.59"/>
        <polyline class="cls-40" points="2279 2126.87 2270.82 2131.59 2270.82 2133.04 2280.25 2127.59 2280.25 2108.74 2279 2109.47 2279 2126.87"/>
      </g>
      <g>
        <polygon class="cls-59" points="2301.14 2115.44 2291.71 2120.89 2291.71 2102.04 2301.14 2096.6 2301.14 2115.44"/>
        <polyline class="cls-40" points="2299.89 2114.72 2291.71 2119.44 2291.71 2120.89 2301.14 2115.44 2301.14 2096.6 2299.89 2097.32 2299.89 2114.72"/>
      </g>
      <polyline class="cls-25" points="1810.01 2071.2 1811.97 2069.74 1811.97 1956.07 1810.01 1954.94 1810.01 2071.17"/>
      <polygon class="cls-24" points="1805.42 2068.65 1805.42 1952.16 1810.01 1954.94 1810.01 2071.15 1805.42 2068.65"/>
      <path class="cls-24" d="M2247.21,1968.07l-27.62,15.94-110.46,63.78-55.23-31.89,110.46-63.78,27.62-15.94-55.23-31.89-27.62,15.94-110.46,63.78-55.23-31.89,110.46-63.78,27.62-15.94-165.69-95.66-27.62,15.94-27.62,15.94-27.62,15.94-27.62,15.94-27.62,15.94-27.62,15.94-41.7,24.07,398.62,229.82,179.25-103.65,27.87-15.93-66.95-38.66h.01ZM1832.98,1888.35l82.85-47.83,55.23,31.89-82.85,47.83-55.23-31.89h0Z"/>
      <polygon class="cls-24" points="1805.42 1952.16 1805.42 1958.16 2107.05 2132.27 2107.05 2126.3 1805.42 1952.16"/>
      <polygon class="cls-13" points="1722.97 1897.02 1916.28 1785.41 2067.71 1872.47 1930.3 1952.92 1998.83 1992.88 2136.74 1913.23 2177.46 1936.18 2040.1 2016.32 2109.59 2056.46 2247.67 1976.74 2301.14 2007.59 2107.73 2119.14 1722.97 1897.02"/>
    </g>
  </g>
</svg>